<svg xmlns="http://www.w3.org/2000/svg" width="297.5" height="467.25" viewBox="0 0 297.5 467.25">
  <g id="Grupo_1104719" data-name="Grupo 1104719" transform="translate(7119.5 10949)">
    <path id="Trazado_880895" data-name="Trazado 880895" d="M4.078-11.375,7-3.125l2.906-8.25h3.078V0H10.633V-3.109l.234-5.367L7.8,0H6.188L3.125-8.469l.234,5.359V0H1.016V-11.375ZM19.781,0a2.507,2.507,0,0,1-.227-.758,2.732,2.732,0,0,1-2.133.914,3,3,0,0,1-2.059-.719,2.312,2.312,0,0,1-.816-1.812,2.389,2.389,0,0,1,1-2.062,4.915,4.915,0,0,1,2.879-.727h1.039v-.484a1.393,1.393,0,0,0-.3-.937,1.183,1.183,0,0,0-.949-.352,1.345,1.345,0,0,0-.895.273.929.929,0,0,0-.324.75H14.734a2.268,2.268,0,0,1,.453-1.359,3,3,0,0,1,1.281-.98,4.669,4.669,0,0,1,1.859-.355,3.689,3.689,0,0,1,2.48.785,2.747,2.747,0,0,1,.918,2.207v3.664a4.041,4.041,0,0,0,.336,1.82V0ZM17.914-1.57a1.945,1.945,0,0,0,.922-.223,1.462,1.462,0,0,0,.625-.6V-3.844h-.844q-1.7,0-1.8,1.172l-.008.133a.9.9,0,0,0,.3.7A1.153,1.153,0,0,0,17.914-1.57ZM18.773-12h2.461L19.07-9.578H17.234Zm4.336,7.7A5.053,5.053,0,0,1,24-7.453,2.9,2.9,0,0,1,26.43-8.609,2.6,2.6,0,0,1,28.594-7.57l.148-.883h1.984V3.25H28.461V-.727a2.6,2.6,0,0,1-2.047.883,2.878,2.878,0,0,1-2.406-1.172A5.3,5.3,0,0,1,23.109-4.3Zm2.258.16A3.315,3.315,0,0,0,25.793-2.3a1.363,1.363,0,0,0,1.2.634,1.518,1.518,0,0,0,1.469-.829v-3.5a1.506,1.506,0,0,0-1.453-.8,1.38,1.38,0,0,0-1.211.634A3.661,3.661,0,0,0,25.367-4.144Zm12.2,3.285A2.831,2.831,0,0,1,35.25.156a2.67,2.67,0,0,1-2.074-.781,3.335,3.335,0,0,1-.73-2.289V-8.453H34.7v5.467q0,1.322,1.2,1.322a1.63,1.63,0,0,0,1.578-.8V-8.453H39.75V0H37.625ZM43.836,0H41.57V-8.453h2.266Zm-2.4-10.641a1.112,1.112,0,0,1,.34-.836A1.277,1.277,0,0,1,42.7-11.8a1.28,1.28,0,0,1,.922.328,1.105,1.105,0,0,1,.344.836,1.108,1.108,0,0,1-.348.844,1.283,1.283,0,0,1-.918.328,1.283,1.283,0,0,1-.918-.328A1.108,1.108,0,0,1,41.438-10.641Zm6.336,2.188.07.977a2.951,2.951,0,0,1,2.43-1.133,2.453,2.453,0,0,1,2,.789,3.682,3.682,0,0,1,.672,2.359V0H50.688V-5.406a1.465,1.465,0,0,0-.312-1.043,1.4,1.4,0,0,0-1.039-.324,1.553,1.553,0,0,0-1.43.813V0H45.648V-8.453ZM59.555,0a2.507,2.507,0,0,1-.227-.758A2.732,2.732,0,0,1,57.2.156a3,3,0,0,1-2.059-.719,2.312,2.312,0,0,1-.816-1.812,2.389,2.389,0,0,1,1-2.062A4.915,4.915,0,0,1,58.2-5.164h1.039v-.484a1.393,1.393,0,0,0-.3-.937,1.183,1.183,0,0,0-.949-.352,1.345,1.345,0,0,0-.895.273.929.929,0,0,0-.324.75H54.508a2.268,2.268,0,0,1,.453-1.359,3,3,0,0,1,1.281-.98A4.669,4.669,0,0,1,58.1-8.609a3.689,3.689,0,0,1,2.48.785A2.747,2.747,0,0,1,61.5-5.617v3.664a4.041,4.041,0,0,0,.336,1.82V0ZM57.688-1.57a1.945,1.945,0,0,0,.922-.223,1.462,1.462,0,0,0,.625-.6V-3.844h-.844q-1.7,0-1.8,1.172l-.008.133a.9.9,0,0,0,.3.7A1.153,1.153,0,0,0,57.688-1.57Zm10.125-.766a.727.727,0,0,0-.41-.652,4.659,4.659,0,0,0-1.316-.426Q63.07-4.047,63.07-5.977A2.323,2.323,0,0,1,64-7.855a3.766,3.766,0,0,1,2.441-.754,4.053,4.053,0,0,1,2.574.758,2.388,2.388,0,0,1,.965,1.969H67.727a1.092,1.092,0,0,0-.312-.8A1.322,1.322,0,0,0,66.438-7a1.351,1.351,0,0,0-.883.258.814.814,0,0,0-.312.656.7.7,0,0,0,.355.605,3.657,3.657,0,0,0,1.2.4,9.8,9.8,0,0,1,1.422.379A2.336,2.336,0,0,1,70.008-2.43a2.2,2.2,0,0,1-.992,1.871,4.28,4.28,0,0,1-2.562.715,4.47,4.47,0,0,1-1.887-.379,3.166,3.166,0,0,1-1.293-1.039A2.414,2.414,0,0,1,62.8-2.687h2.141a1.179,1.179,0,0,0,.445.922,1.766,1.766,0,0,0,1.109.32,1.635,1.635,0,0,0,.98-.246A.766.766,0,0,0,67.813-2.336Zm10.8-.422,1.57-5.7h2.359L79.688,0H77.531L74.68-8.453h2.359ZM85.914,0H83.648V-8.453h2.266Zm-2.4-10.641a1.112,1.112,0,0,1,.34-.836,1.277,1.277,0,0,1,.926-.328,1.28,1.28,0,0,1,.922.328,1.105,1.105,0,0,1,.344.836A1.108,1.108,0,0,1,85.7-9.8a1.283,1.283,0,0,1-.918.328,1.283,1.283,0,0,1-.918-.328A1.108,1.108,0,0,1,83.516-10.641Zm9.008,4.3a6.134,6.134,0,0,0-.812-.062,1.654,1.654,0,0,0-1.68.867V0H87.773V-8.453h2.133l.063,1.008a2.092,2.092,0,0,1,1.883-1.164,2.366,2.366,0,0,1,.7.1Zm4.18-4.2v2.078h1.445V-6.8H96.7v4.219a1.007,1.007,0,0,0,.18.672.9.9,0,0,0,.688.2,3.6,3.6,0,0,0,.664-.055V-.047a4.648,4.648,0,0,1-1.367.2,2.156,2.156,0,0,1-2.422-2.4V-6.8H93.211V-8.453h1.234v-2.078Zm7.766,9.672A2.831,2.831,0,0,1,102.156.156a2.67,2.67,0,0,1-2.074-.781,3.335,3.335,0,0,1-.73-2.289V-8.453h2.258v5.467q0,1.322,1.2,1.322a1.63,1.63,0,0,0,1.578-.8V-8.453h2.266V0h-2.125ZM113.258,0a2.507,2.507,0,0,1-.227-.758A2.732,2.732,0,0,1,110.9.156a3,3,0,0,1-2.059-.719,2.312,2.312,0,0,1-.816-1.812,2.389,2.389,0,0,1,1-2.062,4.915,4.915,0,0,1,2.879-.727h1.039v-.484a1.393,1.393,0,0,0-.3-.937,1.183,1.183,0,0,0-.949-.352,1.345,1.345,0,0,0-.895.273.929.929,0,0,0-.324.75h-2.258a2.268,2.268,0,0,1,.453-1.359,3,3,0,0,1,1.281-.98,4.669,4.669,0,0,1,1.859-.355,3.689,3.689,0,0,1,2.48.785,2.747,2.747,0,0,1,.918,2.207v3.664a4.041,4.041,0,0,0,.336,1.82V0Zm-1.867-1.57a1.945,1.945,0,0,0,.922-.223,1.462,1.462,0,0,0,.625-.6V-3.844h-.844q-1.7,0-1.8,1.172l-.008.133a.9.9,0,0,0,.3.7A1.153,1.153,0,0,0,111.391-1.57ZM119.32,0h-2.266V-12h2.266Zm5.75.156a4.15,4.15,0,0,1-3.027-1.141,4.054,4.054,0,0,1-1.168-3.039v-.219a5.106,5.106,0,0,1,.492-2.277,3.612,3.612,0,0,1,1.395-1.547,3.914,3.914,0,0,1,2.059-.543,3.508,3.508,0,0,1,2.73,1.094,4.444,4.444,0,0,1,1,3.1v.922h-5.383a2.1,2.1,0,0,0,.66,1.328,2,2,0,0,0,1.395.5,2.437,2.437,0,0,0,2.039-.945l1.109,1.242a3.389,3.389,0,0,1-1.375,1.121A4.511,4.511,0,0,1,125.07.156Zm-.258-6.945a1.411,1.411,0,0,0-1.09.455,2.357,2.357,0,0,0-.535,1.3h3.141v-.181a1.681,1.681,0,0,0-.406-1.165A1.456,1.456,0,0,0,124.813-6.789Zm9.594,4.453a.727.727,0,0,0-.41-.652,4.659,4.659,0,0,0-1.316-.426q-3.016-.633-3.016-2.562a2.323,2.323,0,0,1,.934-1.879,3.766,3.766,0,0,1,2.441-.754,4.053,4.053,0,0,1,2.574.758,2.388,2.388,0,0,1,.965,1.969H134.32a1.092,1.092,0,0,0-.312-.8A1.322,1.322,0,0,0,133.031-7a1.351,1.351,0,0,0-.883.258.814.814,0,0,0-.312.656.7.7,0,0,0,.355.605,3.657,3.657,0,0,0,1.2.4,9.8,9.8,0,0,1,1.422.379A2.336,2.336,0,0,1,136.6-2.43a2.205,2.205,0,0,1-.992,1.871,4.28,4.28,0,0,1-2.562.715,4.47,4.47,0,0,1-1.887-.379,3.166,3.166,0,0,1-1.293-1.039,2.414,2.414,0,0,1-.469-1.426h2.141a1.179,1.179,0,0,0,.445.922,1.766,1.766,0,0,0,1.109.32,1.635,1.635,0,0,0,.98-.246A.766.766,0,0,0,134.406-2.336Z" transform="translate(-7039 -10678)" fill="#12263f"/>
    <path id="Trazado_880920" data-name="Trazado 880920" d="M5.227-4.164H3.359V0H1.016V-11.375H5.242a4.778,4.778,0,0,1,3.109.9A3.1,3.1,0,0,1,9.445-7.937,3.5,3.5,0,0,1,8.941-6,3.437,3.437,0,0,1,7.414-4.758L9.875-.109V0H7.359Zm-1.867-1.9H5.25a1.936,1.936,0,0,0,1.367-.449A1.606,1.606,0,0,0,7.1-7.75a1.719,1.719,0,0,0-.457-1.266,1.9,1.9,0,0,0-1.4-.461H3.359ZM14.969.156A4.15,4.15,0,0,1,11.941-.984a4.054,4.054,0,0,1-1.168-3.039v-.219a5.106,5.106,0,0,1,.492-2.277A3.612,3.612,0,0,1,12.66-8.066a3.914,3.914,0,0,1,2.059-.543,3.508,3.508,0,0,1,2.73,1.094,4.444,4.444,0,0,1,1,3.1v.922H13.063a2.1,2.1,0,0,0,.66,1.328,2,2,0,0,0,1.395.5,2.437,2.437,0,0,0,2.039-.945l1.109,1.242A3.389,3.389,0,0,1,16.891-.246,4.511,4.511,0,0,1,14.969.156Zm-.258-6.945a1.411,1.411,0,0,0-1.09.455,2.357,2.357,0,0,0-.535,1.3h3.141v-.181a1.681,1.681,0,0,0-.406-1.165A1.456,1.456,0,0,0,14.711-6.789ZM27.336-4.148a5.07,5.07,0,0,1-.887,3.129A2.843,2.843,0,0,1,24.055.156a2.633,2.633,0,0,1-2.07-.891V3.25H19.727v-11.7H21.82l.078.828a2.654,2.654,0,0,1,2.141-.984,2.862,2.862,0,0,1,2.43,1.156,5.207,5.207,0,0,1,.867,3.188Zm-2.258-.164a3.327,3.327,0,0,0-.418-1.82,1.361,1.361,0,0,0-1.215-.641,1.478,1.478,0,0,0-1.461.813V-2.5a1.5,1.5,0,0,0,1.477.836Q25.078-1.664,25.078-4.312Zm8.406-2.023a6.134,6.134,0,0,0-.812-.062,1.654,1.654,0,0,0-1.68.867V0H28.734V-8.453h2.133l.063,1.008a2.092,2.092,0,0,1,1.883-1.164,2.366,2.366,0,0,1,.7.1ZM38.461.156A4.15,4.15,0,0,1,35.434-.984a4.054,4.054,0,0,1-1.168-3.039v-.219a5.106,5.106,0,0,1,.492-2.277,3.612,3.612,0,0,1,1.395-1.547,3.914,3.914,0,0,1,2.059-.543,3.508,3.508,0,0,1,2.73,1.094,4.444,4.444,0,0,1,1,3.1v.922H36.555a2.1,2.1,0,0,0,.66,1.328,2,2,0,0,0,1.395.5,2.437,2.437,0,0,0,2.039-.945l1.109,1.242A3.389,3.389,0,0,1,40.383-.246,4.511,4.511,0,0,1,38.461.156ZM38.2-6.789a1.411,1.411,0,0,0-1.09.455,2.357,2.357,0,0,0-.535,1.3h3.141v-.181a1.681,1.681,0,0,0-.406-1.165A1.456,1.456,0,0,0,38.2-6.789ZM47.8-2.336a.727.727,0,0,0-.41-.652,4.659,4.659,0,0,0-1.316-.426q-3.016-.633-3.016-2.562a2.323,2.323,0,0,1,.934-1.879,3.766,3.766,0,0,1,2.441-.754A4.053,4.053,0,0,1,49-7.852a2.388,2.388,0,0,1,.965,1.969H47.711a1.092,1.092,0,0,0-.312-.8A1.322,1.322,0,0,0,46.422-7a1.351,1.351,0,0,0-.883.258.814.814,0,0,0-.312.656.7.7,0,0,0,.355.605,3.657,3.657,0,0,0,1.2.4A9.8,9.8,0,0,1,48.2-4.7,2.336,2.336,0,0,1,49.992-2.43,2.2,2.2,0,0,1,49-.559a4.28,4.28,0,0,1-2.562.715,4.47,4.47,0,0,1-1.887-.379,3.166,3.166,0,0,1-1.293-1.039,2.414,2.414,0,0,1-.469-1.426H44.93a1.179,1.179,0,0,0,.445.922,1.766,1.766,0,0,0,1.109.32,1.635,1.635,0,0,0,.98-.246A.766.766,0,0,0,47.8-2.336ZM55.336.156A4.15,4.15,0,0,1,52.309-.984a4.054,4.054,0,0,1-1.168-3.039v-.219a5.106,5.106,0,0,1,.492-2.277,3.612,3.612,0,0,1,1.395-1.547,3.914,3.914,0,0,1,2.059-.543,3.508,3.508,0,0,1,2.73,1.094,4.444,4.444,0,0,1,1,3.1v.922H53.43a2.1,2.1,0,0,0,.66,1.328,2,2,0,0,0,1.395.5,2.437,2.437,0,0,0,2.039-.945l1.109,1.242A3.389,3.389,0,0,1,57.258-.246,4.511,4.511,0,0,1,55.336.156Zm-.258-6.945a1.411,1.411,0,0,0-1.09.455,2.357,2.357,0,0,0-.535,1.3h3.141v-.181a1.681,1.681,0,0,0-.406-1.165A1.456,1.456,0,0,0,55.078-6.789Zm7.094-1.664.07.977a2.951,2.951,0,0,1,2.43-1.133,2.453,2.453,0,0,1,2,.789,3.682,3.682,0,0,1,.672,2.359V0H65.086V-5.406a1.465,1.465,0,0,0-.312-1.043,1.4,1.4,0,0,0-1.039-.324,1.553,1.553,0,0,0-1.43.813V0H60.047V-8.453Zm9.586-2.078v2.078H73.2V-6.8H71.758v4.219a1.007,1.007,0,0,0,.18.672.9.9,0,0,0,.688.2,3.6,3.6,0,0,0,.664-.055V-.047a4.648,4.648,0,0,1-1.367.2,2.156,2.156,0,0,1-2.422-2.4V-6.8H68.266V-8.453H69.5v-2.078ZM79.359,0a2.507,2.507,0,0,1-.227-.758A2.732,2.732,0,0,1,77,.156a3,3,0,0,1-2.059-.719,2.312,2.312,0,0,1-.816-1.812,2.389,2.389,0,0,1,1-2.062A4.915,4.915,0,0,1,78-5.164h1.039v-.484a1.393,1.393,0,0,0-.3-.937,1.183,1.183,0,0,0-.949-.352,1.345,1.345,0,0,0-.895.273.929.929,0,0,0-.324.75H74.313a2.268,2.268,0,0,1,.453-1.359,3,3,0,0,1,1.281-.98,4.669,4.669,0,0,1,1.859-.355,3.689,3.689,0,0,1,2.48.785A2.747,2.747,0,0,1,81.3-5.617v3.664a4.041,4.041,0,0,0,.336,1.82V0ZM77.492-1.57a1.945,1.945,0,0,0,.922-.223,1.462,1.462,0,0,0,.625-.6V-3.844H78.2q-1.7,0-1.8,1.172l-.008.133a.9.9,0,0,0,.3.7A1.153,1.153,0,0,0,77.492-1.57Zm9.063-.094a1.481,1.481,0,0,0,1.016-.344,1.2,1.2,0,0,0,.406-.914h2.117a2.9,2.9,0,0,1-.469,1.574A3.093,3.093,0,0,1,88.363-.238a3.949,3.949,0,0,1-1.77.395A3.67,3.67,0,0,1,83.734-1,4.56,4.56,0,0,1,82.688-4.18v-.148a4.508,4.508,0,0,1,1.039-3.117,3.627,3.627,0,0,1,2.852-1.164,3.555,3.555,0,0,1,2.543.9,3.2,3.2,0,0,1,.973,2.4H87.977a1.551,1.551,0,0,0-.406-1.072,1.354,1.354,0,0,0-1.031-.412,1.36,1.36,0,0,0-1.191.575,3.333,3.333,0,0,0-.4,1.866v.235a3.375,3.375,0,0,0,.4,1.878A1.377,1.377,0,0,0,86.555-1.664ZM93.766,0H91.5V-8.453h2.266Zm-2.4-10.641a1.112,1.112,0,0,1,.34-.836,1.277,1.277,0,0,1,.926-.328,1.28,1.28,0,0,1,.922.328,1.105,1.105,0,0,1,.344.836,1.108,1.108,0,0,1-.348.844,1.283,1.283,0,0,1-.918.328,1.283,1.283,0,0,1-.918-.328A1.108,1.108,0,0,1,91.367-10.641ZM95.273-4.3a5.013,5.013,0,0,1,.484-2.242A3.546,3.546,0,0,1,97.152-8.07a4.069,4.069,0,0,1,2.113-.539,3.849,3.849,0,0,1,2.793,1.047,4.2,4.2,0,0,1,1.207,2.844l.016.578A4.418,4.418,0,0,1,102.2-1.02,3.775,3.775,0,0,1,99.281.156a3.793,3.793,0,0,1-2.918-1.172A4.5,4.5,0,0,1,95.273-4.2Zm2.258.16A3.16,3.16,0,0,0,97.984-2.3a1.5,1.5,0,0,0,1.3.638,1.5,1.5,0,0,0,1.281-.63,3.457,3.457,0,0,0,.461-2.015,3.128,3.128,0,0,0-.461-1.831,1.5,1.5,0,0,0-1.3-.649,1.474,1.474,0,0,0-1.281.646A3.516,3.516,0,0,0,97.531-4.144ZM99.711-12h2.461l-2.164,2.422H98.172Zm7.039,3.547.07.977a2.951,2.951,0,0,1,2.43-1.133,2.453,2.453,0,0,1,2,.789,3.682,3.682,0,0,1,.672,2.359V0h-2.258V-5.406a1.465,1.465,0,0,0-.312-1.043,1.4,1.4,0,0,0-1.039-.324,1.553,1.553,0,0,0-1.43.813V0h-2.258V-8.453Z" transform="translate(-7027 -10485)" fill="#12263f"/>
    <path id="Trazado_880809" data-name="Trazado 880809" d="M10,0H285a10,10,0,0,1,10,10V150a10,10,0,0,1-10,10H10A10,10,0,0,1,0,150V10A10,10,0,0,1,10,0Z" transform="translate(-7118 -10949)" fill="#3a1d71"/>
    <path id="Trazado_880810" data-name="Trazado 880810" d="M3.508,17H1.164V5.625H3.508Zm4.1-8.453.07.977a2.951,2.951,0,0,1,2.43-1.133,2.453,2.453,0,0,1,2,.789,3.682,3.682,0,0,1,.672,2.359V17H10.523V11.594a1.465,1.465,0,0,0-.312-1.043,1.4,1.4,0,0,0-1.039-.324,1.553,1.553,0,0,0-1.43.813V17H5.484V8.547ZM15.109,17V10.2H13.852V8.547h1.258V7.828a2.918,2.918,0,0,1,.816-2.207,3.162,3.162,0,0,1,2.285-.785,5.278,5.278,0,0,1,1.148.156l-.023,1.75a2.878,2.878,0,0,0-.687-.07q-1.273,0-1.273,1.2v.68h1.68V10.2h-1.68V17Zm9.867-6.336a6.134,6.134,0,0,0-.812-.062,1.654,1.654,0,0,0-1.68.867V17H20.227V8.547h2.133l.063,1.008A2.092,2.092,0,0,1,24.3,8.391a2.366,2.366,0,0,1,.7.1ZM30.727,17a2.507,2.507,0,0,1-.227-.758,2.732,2.732,0,0,1-2.133.914,3,3,0,0,1-2.059-.719,2.312,2.312,0,0,1-.816-1.812,2.389,2.389,0,0,1,1-2.062,4.915,4.915,0,0,1,2.879-.727h1.039v-.484a1.393,1.393,0,0,0-.3-.937,1.183,1.183,0,0,0-.949-.352,1.345,1.345,0,0,0-.895.273.929.929,0,0,0-.324.75H25.68a2.268,2.268,0,0,1,.453-1.359,3,3,0,0,1,1.281-.98,4.669,4.669,0,0,1,1.859-.355,3.689,3.689,0,0,1,2.48.785,2.747,2.747,0,0,1,.918,2.207v3.664a4.041,4.041,0,0,0,.336,1.82V17Zm-1.867-1.57a1.945,1.945,0,0,0,.922-.223,1.462,1.462,0,0,0,.625-.6V13.156h-.844q-1.7,0-1.8,1.172l-.008.133a.9.9,0,0,0,.3.7A1.153,1.153,0,0,0,28.859,15.43ZM38.3,17.156a4.15,4.15,0,0,1-3.027-1.141A4.054,4.054,0,0,1,34.1,12.977v-.219a5.106,5.106,0,0,1,.492-2.277,3.612,3.612,0,0,1,1.395-1.547,3.914,3.914,0,0,1,2.059-.543,3.508,3.508,0,0,1,2.73,1.094,4.444,4.444,0,0,1,1,3.1v.922H36.391a2.1,2.1,0,0,0,.66,1.328,2,2,0,0,0,1.395.5,2.437,2.437,0,0,0,2.039-.945l1.109,1.242a3.389,3.389,0,0,1-1.375,1.121A4.511,4.511,0,0,1,38.3,17.156Zm-.258-6.945a1.411,1.411,0,0,0-1.09.455,2.357,2.357,0,0,0-.535,1.3h3.141v-.181a1.681,1.681,0,0,0-.406-1.165A1.456,1.456,0,0,0,38.039,10.211Zm9.594,4.453a.727.727,0,0,0-.41-.652,4.659,4.659,0,0,0-1.316-.426q-3.016-.633-3.016-2.562a2.323,2.323,0,0,1,.934-1.879,3.766,3.766,0,0,1,2.441-.754,4.053,4.053,0,0,1,2.574.758,2.388,2.388,0,0,1,.965,1.969H47.547a1.092,1.092,0,0,0-.312-.8A1.322,1.322,0,0,0,46.258,10a1.351,1.351,0,0,0-.883.258.814.814,0,0,0-.312.656.7.7,0,0,0,.355.605,3.657,3.657,0,0,0,1.2.4,9.8,9.8,0,0,1,1.422.379,2.336,2.336,0,0,1,1.789,2.273,2.2,2.2,0,0,1-.992,1.871,4.28,4.28,0,0,1-2.562.715,4.47,4.47,0,0,1-1.887-.379,3.166,3.166,0,0,1-1.293-1.039,2.414,2.414,0,0,1-.469-1.426h2.141a1.179,1.179,0,0,0,.445.922,1.766,1.766,0,0,0,1.109.32,1.635,1.635,0,0,0,.98-.246A.766.766,0,0,0,47.633,14.664Zm6.352-8.2V8.547H55.43V10.2H53.984v4.219a1.007,1.007,0,0,0,.18.672.9.9,0,0,0,.688.2,3.6,3.6,0,0,0,.664-.055v1.711a4.648,4.648,0,0,1-1.367.2,2.156,2.156,0,0,1-2.422-2.4V10.2H50.492V8.547h1.234V6.469Zm7.453,4.2a6.134,6.134,0,0,0-.812-.062,1.654,1.654,0,0,0-1.68.867V17H56.688V8.547H58.82l.063,1.008a2.092,2.092,0,0,1,1.883-1.164,2.366,2.366,0,0,1,.7.1Zm6.148,5.477a2.831,2.831,0,0,1-2.312,1.016,2.67,2.67,0,0,1-2.074-.781,3.335,3.335,0,0,1-.73-2.289V8.547h2.258v5.467q0,1.322,1.2,1.322a1.63,1.63,0,0,0,1.578-.8V8.547h2.266V17H67.648Zm7.406-.8a1.481,1.481,0,0,0,1.016-.344,1.2,1.2,0,0,0,.406-.914h2.117a2.9,2.9,0,0,1-.469,1.574A3.093,3.093,0,0,1,76.8,16.762a3.949,3.949,0,0,1-1.77.395A3.67,3.67,0,0,1,72.172,16a4.56,4.56,0,0,1-1.047-3.184v-.148a4.508,4.508,0,0,1,1.039-3.117,3.627,3.627,0,0,1,2.852-1.164,3.555,3.555,0,0,1,2.543.9,3.2,3.2,0,0,1,.973,2.4H76.414a1.551,1.551,0,0,0-.406-1.072,1.51,1.51,0,0,0-2.223.163,3.333,3.333,0,0,0-.4,1.866v.235a3.375,3.375,0,0,0,.4,1.878A1.377,1.377,0,0,0,74.992,15.336Zm7.531-8.867V8.547h1.445V10.2H82.523v4.219a1.007,1.007,0,0,0,.18.672.9.9,0,0,0,.688.2,3.6,3.6,0,0,0,.664-.055v1.711a4.648,4.648,0,0,1-1.367.2,2.156,2.156,0,0,1-2.422-2.4V10.2H79.031V8.547h1.234V6.469Zm7.766,9.672a2.831,2.831,0,0,1-2.312,1.016,2.67,2.67,0,0,1-2.074-.781,3.335,3.335,0,0,1-.73-2.289V8.547H87.43v5.467q0,1.322,1.2,1.322a1.63,1.63,0,0,0,1.578-.8V8.547h2.266V17H90.352Zm8.641-5.477a6.134,6.134,0,0,0-.812-.062,1.654,1.654,0,0,0-1.68.867V17H94.18V8.547h2.133l.063,1.008a2.092,2.092,0,0,1,1.883-1.164,2.366,2.366,0,0,1,.7.1ZM104.68,17a2.507,2.507,0,0,1-.227-.758,2.732,2.732,0,0,1-2.133.914,3,3,0,0,1-2.059-.719,2.312,2.312,0,0,1-.816-1.812,2.389,2.389,0,0,1,1-2.062,4.915,4.915,0,0,1,2.879-.727h1.039v-.484a1.393,1.393,0,0,0-.3-.937,1.183,1.183,0,0,0-.949-.352,1.345,1.345,0,0,0-.895.273.929.929,0,0,0-.324.75H99.633a2.268,2.268,0,0,1,.453-1.359,3,3,0,0,1,1.281-.98,4.669,4.669,0,0,1,1.859-.355,3.689,3.689,0,0,1,2.48.785,2.747,2.747,0,0,1,.918,2.207v3.664a4.041,4.041,0,0,0,.336,1.82V17Zm-1.867-1.57a1.945,1.945,0,0,0,.922-.223,1.462,1.462,0,0,0,.625-.6V13.156h-.844q-1.7,0-1.8,1.172l-.008.133a.9.9,0,0,0,.3.7A1.153,1.153,0,0,0,102.813,15.43Zm9.18-2.719a5.094,5.094,0,0,1,.887-3.148A2.877,2.877,0,0,1,115.3,8.391a2.589,2.589,0,0,1,2.039.922V5h2.266V17H117.57l-.109-.9a2.657,2.657,0,0,1-2.172,1.055,2.869,2.869,0,0,1-2.395-1.176A5.258,5.258,0,0,1,111.992,12.711Zm2.258.168a3.337,3.337,0,0,0,.414,1.823,1.349,1.349,0,0,0,1.2.634,1.511,1.511,0,0,0,1.477-.884V11.111a1.489,1.489,0,0,0-1.461-.884Q114.25,10.227,114.25,12.879Zm11,4.277a4.15,4.15,0,0,1-3.027-1.141,4.054,4.054,0,0,1-1.168-3.039v-.219a5.106,5.106,0,0,1,.492-2.277,3.612,3.612,0,0,1,1.395-1.547A3.914,3.914,0,0,1,125,8.391a3.508,3.508,0,0,1,2.73,1.094,4.444,4.444,0,0,1,1,3.1v.922h-5.383a2.1,2.1,0,0,0,.66,1.328,2,2,0,0,0,1.395.5,2.437,2.437,0,0,0,2.039-.945l1.109,1.242a3.389,3.389,0,0,1-1.375,1.121A4.511,4.511,0,0,1,125.25,17.156Zm-.258-6.945a1.411,1.411,0,0,0-1.09.455,2.357,2.357,0,0,0-.535,1.3h3.141v-.181a1.681,1.681,0,0,0-.406-1.165A1.456,1.456,0,0,0,124.992,10.211Zm17.242-2.687H138.75V17h-2.344V7.523h-3.437v-1.9h9.266ZM146.063,17h-2.344V5.625h2.344Z" transform="translate(-7046 -10836)" fill="#fff"/>
    <path id="Trazado_880555" data-name="Trazado 880555" d="M172.363,220.138c-.461,0-.841.125-.868.51a1.222,1.222,0,0,1-1.383,1.331,1.28,1.28,0,0,1-1.451-1.431v-3.471a1.271,1.271,0,0,1,1.424-1.431c1.288,0,1.383.846,1.411,1.232s.38.51.882.51c.6,0,.882-.149.882-.8,0-1.443-1.343-2.364-3.228-2.364-1.709,0-3.133.771-3.133,2.849v3.471c0,2.078,1.411,2.849,3.119,2.849,1.9,0,3.242-.958,3.242-2.464C173.258,220.3,172.973,220.138,172.363,220.138Z" transform="translate(-7061.514 -11108.637)" fill="#00ffdf"/>
    <path id="Trazado_880556" data-name="Trazado 880556" d="M231.147,214.228h-2.726c-.407,0-.665.236-.665.5v8.087c0,.336.434.51.882.51s.882-.174.882-.51v-2.887h1.519c1.79,0,3.187-.784,3.187-2.824v-.075C234.225,214.987,232.869,214.228,231.147,214.228Zm1.315,3a1.283,1.283,0,0,1-1.424,1.431h-1.519v-3.011h1.519a1.283,1.283,0,0,1,1.424,1.431Z" transform="translate(-7114.818 -11108.637)" fill="#00ffdf"/>
    <path id="Trazado_880557" data-name="Trazado 880557" d="M293.916,214.228c-.448,0-.882.149-.882.5v5.823a1.493,1.493,0,0,1-2.984,0v-5.823c0-.348-.448-.5-.882-.5s-.882.149-.882.5v5.823c0,2.078,1.424,2.849,3.255,2.849s3.255-.771,3.255-2.849v-5.823C294.8,214.377,294.35,214.228,293.916,214.228Z" transform="translate(-7167.836 -11108.637)" fill="#00ffdf"/>
    <path id="Trazado_880811" data-name="Trazado 880811" d="M1,0A1,1,0,1,1,0,1,1,1,0,0,1,1,0Z" transform="translate(-6908.016 -10914.102)" fill="#00ffdf"/>
    <path id="Trazado_880812" data-name="Trazado 880812" d="M1,0A1,1,0,1,1,0,1,1,1,0,0,1,1,0Z" transform="translate(-6903.766 -10914.102)" fill="#00ffdf"/>
    <path id="Trazado_880835" data-name="Trazado 880835" d="M1,0A1,1,0,1,1,0,1,1,1,0,0,1,1,0Z" transform="translate(-6899.515 -10914.102)" fill="#00ffdf"/>
    <path id="Trazado_880839" data-name="Trazado 880839" d="M1,0A1,1,0,1,1,0,1,1,1,0,0,1,1,0Z" transform="translate(-6895.264 -10914.102)" fill="#00ffdf"/>
    <path id="Trazado_880840" data-name="Trazado 880840" d="M1,0A1,1,0,1,1,0,1,1,1,0,0,1,1,0Z" transform="translate(-6891.014 -10914.102)" fill="#00ffdf"/>
    <path id="Trazado_880847" data-name="Trazado 880847" d="M1,0A1,1,0,1,1,0,1,1,1,0,0,1,1,0Z" transform="translate(-6886.764 -10914.102)" fill="#00ffdf"/>
    <path id="Trazado_880851" data-name="Trazado 880851" d="M1,0A1,1,0,1,1,0,1,1,1,0,0,1,1,0Z" transform="translate(-6882.514 -10914.102)" fill="#00ffdf"/>
    <path id="Trazado_880855" data-name="Trazado 880855" d="M1,0A1,1,0,1,1,0,1,1,1,0,0,1,1,0Z" transform="translate(-6878.264 -10914.102)" fill="#00ffdf"/>
    <path id="Trazado_880859" data-name="Trazado 880859" d="M1,0A1,1,0,1,1,0,1,1,1,0,0,1,1,0Z" transform="translate(-6874.013 -10914.102)" fill="#00ffdf"/>
    <path id="Trazado_880863" data-name="Trazado 880863" d="M1,0A1,1,0,1,1,0,1,1,1,0,0,1,1,0Z" transform="translate(-6869.763 -10914.102)" fill="#00ffdf"/>
    <path id="Trazado_880867" data-name="Trazado 880867" d="M1,0A1,1,0,1,1,0,1,1,1,0,0,1,1,0Z" transform="translate(-6865.513 -10914.102)" fill="#00ffdf"/>
    <path id="Trazado_880879" data-name="Trazado 880879" d="M1,0A1,1,0,1,1,0,1,1,1,0,0,1,1,0Z" transform="translate(-6861.263 -10914.102)" fill="#00ffdf"/>
    <path id="Trazado_880813" data-name="Trazado 880813" d="M1,0A1,1,0,1,1,0,1,1,1,0,0,1,1,0Z" transform="translate(-6908.016 -10909.797)" fill="#00ffdf"/>
    <path id="Trazado_880814" data-name="Trazado 880814" d="M1,0A1,1,0,1,1,0,1,1,1,0,0,1,1,0Z" transform="translate(-6903.766 -10909.797)" fill="#00ffdf"/>
    <path id="Trazado_880836" data-name="Trazado 880836" d="M1,0A1,1,0,1,1,0,1,1,1,0,0,1,1,0Z" transform="translate(-6899.515 -10909.797)" fill="#00ffdf"/>
    <path id="Trazado_880841" data-name="Trazado 880841" d="M1,0A1,1,0,1,1,0,1,1,1,0,0,1,1,0Z" transform="translate(-6895.264 -10909.797)" fill="#00ffdf"/>
    <path id="Trazado_880842" data-name="Trazado 880842" d="M1,0A1,1,0,1,1,0,1,1,1,0,0,1,1,0Z" transform="translate(-6891.014 -10909.797)" fill="#00ffdf"/>
    <path id="Trazado_880848" data-name="Trazado 880848" d="M1,0A1,1,0,1,1,0,1,1,1,0,0,1,1,0Z" transform="translate(-6886.764 -10909.797)" fill="#00ffdf"/>
    <path id="Trazado_880852" data-name="Trazado 880852" d="M1,0A1,1,0,1,1,0,1,1,1,0,0,1,1,0Z" transform="translate(-6882.514 -10909.797)" fill="#00ffdf"/>
    <path id="Trazado_880856" data-name="Trazado 880856" d="M1,0A1,1,0,1,1,0,1,1,1,0,0,1,1,0Z" transform="translate(-6878.264 -10909.797)" fill="#00ffdf"/>
    <path id="Trazado_880860" data-name="Trazado 880860" d="M1,0A1,1,0,1,1,0,1,1,1,0,0,1,1,0Z" transform="translate(-6874.013 -10909.797)" fill="#00ffdf"/>
    <path id="Trazado_880864" data-name="Trazado 880864" d="M1,0A1,1,0,1,1,0,1,1,1,0,0,1,1,0Z" transform="translate(-6869.763 -10909.797)" fill="#00ffdf"/>
    <path id="Trazado_880868" data-name="Trazado 880868" d="M1,0A1,1,0,1,1,0,1,1,1,0,0,1,1,0Z" transform="translate(-6865.513 -10909.797)" fill="#00ffdf"/>
    <path id="Trazado_880880" data-name="Trazado 880880" d="M1,0A1,1,0,1,1,0,1,1,1,0,0,1,1,0Z" transform="translate(-6861.263 -10909.797)" fill="#00ffdf"/>
    <path id="Trazado_880815" data-name="Trazado 880815" d="M1,0A1,1,0,1,1,0,1,1,1,0,0,1,1,0Z" transform="translate(-6908.016 -10905.453)" fill="#00ffdf"/>
    <path id="Trazado_880816" data-name="Trazado 880816" d="M1,0A1,1,0,1,1,0,1,1,1,0,0,1,1,0Z" transform="translate(-6903.766 -10905.453)" fill="#00ffdf"/>
    <path id="Trazado_880869" data-name="Trazado 880869" d="M1,0A1,1,0,1,1,0,1,1,1,0,0,1,1,0Z" transform="translate(-6865.513 -10905.453)" fill="#00ffdf"/>
    <path id="Trazado_880881" data-name="Trazado 880881" d="M1,0A1,1,0,1,1,0,1,1,1,0,0,1,1,0Z" transform="translate(-6861.263 -10905.453)" fill="#00ffdf"/>
    <path id="Trazado_880817" data-name="Trazado 880817" d="M1,0A1,1,0,1,1,0,1,1,1,0,0,1,1,0Z" transform="translate(-6908.016 -10901.148)" fill="#00ffdf"/>
    <path id="Trazado_880818" data-name="Trazado 880818" d="M1,0A1,1,0,1,1,0,1,1,1,0,0,1,1,0Z" transform="translate(-6903.766 -10901.148)" fill="#00ffdf"/>
    <path id="Trazado_880870" data-name="Trazado 880870" d="M1,0A1,1,0,1,1,0,1,1,1,0,0,1,1,0Z" transform="translate(-6865.513 -10901.148)" fill="#00ffdf"/>
    <path id="Trazado_880882" data-name="Trazado 880882" d="M1,0A1,1,0,1,1,0,1,1,1,0,0,1,1,0Z" transform="translate(-6861.263 -10901.148)" fill="#00ffdf"/>
    <path id="Trazado_880819" data-name="Trazado 880819" d="M1,0A1,1,0,1,1,0,1,1,1,0,0,1,1,0Z" transform="translate(-6908.016 -10896.806)" fill="#00ffdf"/>
    <path id="Trazado_880820" data-name="Trazado 880820" d="M1,0A1,1,0,1,1,0,1,1,1,0,0,1,1,0Z" transform="translate(-6903.766 -10896.806)" fill="#00ffdf"/>
    <path id="Trazado_880871" data-name="Trazado 880871" d="M1,0A1,1,0,1,1,0,1,1,1,0,0,1,1,0Z" transform="translate(-6865.513 -10896.806)" fill="#00ffdf"/>
    <path id="Trazado_880883" data-name="Trazado 880883" d="M1,0A1,1,0,1,1,0,1,1,1,0,0,1,1,0Z" transform="translate(-6861.263 -10896.806)" fill="#00ffdf"/>
    <path id="Trazado_880821" data-name="Trazado 880821" d="M1,0A1,1,0,1,1,0,1,1,1,0,0,1,1,0Z" transform="translate(-6908.016 -10892.501)" fill="#00ffdf"/>
    <path id="Trazado_880822" data-name="Trazado 880822" d="M1,0A1,1,0,1,1,0,1,1,1,0,0,1,1,0Z" transform="translate(-6903.766 -10892.501)" fill="#00ffdf"/>
    <path id="Trazado_880872" data-name="Trazado 880872" d="M1,0A1,1,0,1,1,0,1,1,1,0,0,1,1,0Z" transform="translate(-6865.513 -10892.501)" fill="#00ffdf"/>
    <path id="Trazado_880884" data-name="Trazado 880884" d="M1,0A1,1,0,1,1,0,1,1,1,0,0,1,1,0Z" transform="translate(-6861.263 -10892.501)" fill="#00ffdf"/>
    <path id="Trazado_880823" data-name="Trazado 880823" d="M1,0A1,1,0,1,1,0,1,1,1,0,0,1,1,0Z" transform="translate(-6908.016 -10888.158)" fill="#00ffdf"/>
    <path id="Trazado_880824" data-name="Trazado 880824" d="M1,0A1,1,0,1,1,0,1,1,1,0,0,1,1,0Z" transform="translate(-6903.766 -10888.158)" fill="#00ffdf"/>
    <path id="Trazado_880873" data-name="Trazado 880873" d="M1,0A1,1,0,1,1,0,1,1,1,0,0,1,1,0Z" transform="translate(-6865.513 -10888.158)" fill="#00ffdf"/>
    <path id="Trazado_880885" data-name="Trazado 880885" d="M1,0A1,1,0,1,1,0,1,1,1,0,0,1,1,0Z" transform="translate(-6861.263 -10888.158)" fill="#00ffdf"/>
    <path id="Trazado_880825" data-name="Trazado 880825" d="M1,0A1,1,0,1,1,0,1,1,1,0,0,1,1,0Z" transform="translate(-6908.016 -10883.854)" fill="#00ffdf"/>
    <path id="Trazado_880826" data-name="Trazado 880826" d="M1,0A1,1,0,1,1,0,1,1,1,0,0,1,1,0Z" transform="translate(-6903.766 -10883.854)" fill="#00ffdf"/>
    <path id="Trazado_880874" data-name="Trazado 880874" d="M1,0A1,1,0,1,1,0,1,1,1,0,0,1,1,0Z" transform="translate(-6865.513 -10883.854)" fill="#00ffdf"/>
    <path id="Trazado_880886" data-name="Trazado 880886" d="M1,0A1,1,0,1,1,0,1,1,1,0,0,1,1,0Z" transform="translate(-6861.263 -10883.854)" fill="#00ffdf"/>
    <path id="Trazado_880827" data-name="Trazado 880827" d="M1,0A1,1,0,1,1,0,1,1,1,0,0,1,1,0Z" transform="translate(-6908.016 -10879.51)" fill="#00ffdf"/>
    <path id="Trazado_880828" data-name="Trazado 880828" d="M1,0A1,1,0,1,1,0,1,1,1,0,0,1,1,0Z" transform="translate(-6903.766 -10879.51)" fill="#00ffdf"/>
    <path id="Trazado_880875" data-name="Trazado 880875" d="M1,0A1,1,0,1,1,0,1,1,1,0,0,1,1,0Z" transform="translate(-6865.513 -10879.51)" fill="#00ffdf"/>
    <path id="Trazado_880887" data-name="Trazado 880887" d="M1,0A1,1,0,1,1,0,1,1,1,0,0,1,1,0Z" transform="translate(-6861.263 -10879.51)" fill="#00ffdf"/>
    <path id="Trazado_880829" data-name="Trazado 880829" d="M1,0A1,1,0,1,1,0,1,1,1,0,0,1,1,0Z" transform="translate(-6908.016 -10875.207)" fill="#00ffdf"/>
    <path id="Trazado_880830" data-name="Trazado 880830" d="M1,0A1,1,0,1,1,0,1,1,1,0,0,1,1,0Z" transform="translate(-6903.766 -10875.207)" fill="#00ffdf"/>
    <path id="Trazado_880876" data-name="Trazado 880876" d="M1,0A1,1,0,1,1,0,1,1,1,0,0,1,1,0Z" transform="translate(-6865.513 -10875.207)" fill="#00ffdf"/>
    <path id="Trazado_880888" data-name="Trazado 880888" d="M1,0A1,1,0,1,1,0,1,1,1,0,0,1,1,0Z" transform="translate(-6861.263 -10875.207)" fill="#00ffdf"/>
    <path id="Trazado_880831" data-name="Trazado 880831" d="M1,0A1,1,0,1,1,0,1,1,1,0,0,1,1,0Z" transform="translate(-6908.016 -10870.862)" fill="#00ffdf"/>
    <path id="Trazado_880832" data-name="Trazado 880832" d="M1,0A1,1,0,1,1,0,1,1,1,0,0,1,1,0Z" transform="translate(-6903.766 -10870.862)" fill="#00ffdf"/>
    <path id="Trazado_880837" data-name="Trazado 880837" d="M1,0A1,1,0,1,1,0,1,1,1,0,0,1,1,0Z" transform="translate(-6899.515 -10870.862)" fill="#00ffdf"/>
    <path id="Trazado_880843" data-name="Trazado 880843" d="M1,0A1,1,0,1,1,0,1,1,1,0,0,1,1,0Z" transform="translate(-6895.264 -10870.862)" fill="#00ffdf"/>
    <path id="Trazado_880844" data-name="Trazado 880844" d="M1,0A1,1,0,1,1,0,1,1,1,0,0,1,1,0Z" transform="translate(-6891.014 -10870.862)" fill="#00ffdf"/>
    <path id="Trazado_880849" data-name="Trazado 880849" d="M1,0A1,1,0,1,1,0,1,1,1,0,0,1,1,0Z" transform="translate(-6886.764 -10870.862)" fill="#00ffdf"/>
    <path id="Trazado_880853" data-name="Trazado 880853" d="M1,0A1,1,0,1,1,0,1,1,1,0,0,1,1,0Z" transform="translate(-6882.514 -10870.862)" fill="#00ffdf"/>
    <path id="Trazado_880857" data-name="Trazado 880857" d="M1,0A1,1,0,1,1,0,1,1,1,0,0,1,1,0Z" transform="translate(-6878.264 -10870.862)" fill="#00ffdf"/>
    <path id="Trazado_880861" data-name="Trazado 880861" d="M1,0A1,1,0,1,1,0,1,1,1,0,0,1,1,0Z" transform="translate(-6874.013 -10870.862)" fill="#00ffdf"/>
    <path id="Trazado_880865" data-name="Trazado 880865" d="M1,0A1,1,0,1,1,0,1,1,1,0,0,1,1,0Z" transform="translate(-6869.763 -10870.862)" fill="#00ffdf"/>
    <path id="Trazado_880877" data-name="Trazado 880877" d="M1,0A1,1,0,1,1,0,1,1,1,0,0,1,1,0Z" transform="translate(-6865.513 -10870.862)" fill="#00ffdf"/>
    <path id="Trazado_880889" data-name="Trazado 880889" d="M1,0A1,1,0,1,1,0,1,1,1,0,0,1,1,0Z" transform="translate(-6861.263 -10870.862)" fill="#00ffdf"/>
    <path id="Trazado_880833" data-name="Trazado 880833" d="M1,0A1,1,0,1,1,0,1,1,1,0,0,1,1,0Z" transform="translate(-6908.016 -10866.559)" fill="#00ffdf"/>
    <path id="Trazado_880834" data-name="Trazado 880834" d="M1,0A1,1,0,1,1,0,1,1,1,0,0,1,1,0Z" transform="translate(-6903.766 -10866.559)" fill="#00ffdf"/>
    <path id="Trazado_880838" data-name="Trazado 880838" d="M1,0A1,1,0,1,1,0,1,1,1,0,0,1,1,0Z" transform="translate(-6899.515 -10866.559)" fill="#00ffdf"/>
    <path id="Trazado_880845" data-name="Trazado 880845" d="M1,0A1,1,0,1,1,0,1,1,1,0,0,1,1,0Z" transform="translate(-6895.264 -10866.559)" fill="#00ffdf"/>
    <path id="Trazado_880846" data-name="Trazado 880846" d="M1,0A1,1,0,1,1,0,1,1,1,0,0,1,1,0Z" transform="translate(-6891.014 -10866.559)" fill="#00ffdf"/>
    <path id="Trazado_880850" data-name="Trazado 880850" d="M1,0A1,1,0,1,1,0,1,1,1,0,0,1,1,0Z" transform="translate(-6886.764 -10866.559)" fill="#00ffdf"/>
    <path id="Trazado_880854" data-name="Trazado 880854" d="M1,0A1,1,0,1,1,0,1,1,1,0,0,1,1,0Z" transform="translate(-6882.514 -10866.559)" fill="#00ffdf"/>
    <path id="Trazado_880858" data-name="Trazado 880858" d="M1,0A1,1,0,1,1,0,1,1,1,0,0,1,1,0Z" transform="translate(-6878.264 -10866.559)" fill="#00ffdf"/>
    <path id="Trazado_880862" data-name="Trazado 880862" d="M1,0A1,1,0,1,1,0,1,1,1,0,0,1,1,0Z" transform="translate(-6874.013 -10866.559)" fill="#00ffdf"/>
    <path id="Trazado_880866" data-name="Trazado 880866" d="M1,0A1,1,0,1,1,0,1,1,1,0,0,1,1,0Z" transform="translate(-6869.763 -10866.559)" fill="#00ffdf"/>
    <path id="Trazado_880878" data-name="Trazado 880878" d="M1,0A1,1,0,1,1,0,1,1,1,0,0,1,1,0Z" transform="translate(-6865.513 -10866.559)" fill="#00ffdf"/>
    <path id="Trazado_880890" data-name="Trazado 880890" d="M1,0A1,1,0,1,1,0,1,1,1,0,0,1,1,0Z" transform="translate(-6861.263 -10866.559)" fill="#00ffdf"/>
    <path id="Trazado_880558" data-name="Trazado 880558" d="M153.262,122.206h-28.9a2.162,2.162,0,0,0-2.159,2.159v11.965a.931.931,0,0,0,1.862,0V124.365a.3.3,0,0,1,.3-.3h28.9a.3.3,0,0,1,.3.3v11.965a.931.931,0,0,0,1.862,0V124.365A2.162,2.162,0,0,0,153.262,122.206Z" transform="translate(-7022.371 -11028.037)" fill="#00ffdf"/>
    <path id="Trazado_880559" data-name="Trazado 880559" d="M154.49,268.5a.931.931,0,0,0-.931.931v5.683a.853.853,0,0,1-.251.6l-5.782,5.732a.843.843,0,0,1-.6.246H124.365a.3.3,0,0,1-.3-.3V269.431a.931.931,0,0,0-1.862,0V281.4a2.162,2.162,0,0,0,2.159,2.159h22.564a2.693,2.693,0,0,0,1.908-.785l5.782-5.732a2.727,2.727,0,0,0,.8-1.924v-5.683A.931.931,0,0,0,154.49,268.5Z" transform="translate(-7022.37 -11156.173)" fill="#00ffdf"/>
    <path id="Trazado_880560" data-name="Trazado 880560" d="M62.621,18.223a.931.931,0,1,0,0-1.862H59.943v-5.38h2.679a.931.931,0,1,0,0-1.862H59.943V7.289a3.683,3.683,0,0,0-3.679-3.679H54.432V.931a.931.931,0,0,0-1.862,0V3.609h-5.38V.931a.931.931,0,0,0-1.862,0V3.609h-5.38V.931a.931.931,0,0,0-1.862,0V3.609h-5.38V.931a.931.931,0,0,0-1.862,0V3.609h-5.38V.931a.931.931,0,0,0-1.862,0V3.609h-5.38V.931a.931.931,0,0,0-1.862,0V3.609h-5.38V.931a.931.931,0,0,0-1.862,0V3.609H7.289A3.683,3.683,0,0,0,3.609,7.289V9.12H.931a.931.931,0,1,0,0,1.862H3.609v5.38H.931a.931.931,0,1,0,0,1.862H3.609V23.6H.931a.931.931,0,1,0,0,1.862H3.609v5.38H.931a.931.931,0,1,0,0,1.862H3.609v5.38H.931a.931.931,0,1,0,0,1.862H3.609v5.38H.931a.931.931,0,1,0,0,1.862H3.609v5.38H.931a.931.931,0,1,0,0,1.862H3.609v1.831a3.683,3.683,0,0,0,3.679,3.679H9.12v2.678a.931.931,0,0,0,1.862,0V59.943h5.38v2.678a.931.931,0,0,0,1.862,0V59.943H23.6v2.678a.931.931,0,0,0,1.862,0V59.943h5.38v2.678a.931.931,0,0,0,1.862,0V59.943h5.38v2.678a.931.931,0,0,0,1.862,0V59.943h5.38v2.678a.931.931,0,0,0,1.862,0V59.943h5.38v2.678a.931.931,0,0,0,1.862,0V59.943h1.831a3.683,3.683,0,0,0,3.679-3.679V54.432h2.679a.931.931,0,1,0,0-1.862H59.943V47.19h2.679a.931.931,0,1,0,0-1.862H59.943v-5.38h2.679a.931.931,0,1,0,0-1.862H59.943v-5.38h2.679a.931.931,0,1,0,0-1.862H59.943v-5.38h2.679a.931.931,0,1,0,0-1.862H59.943v-5.38Zm-4.54-8.174h0v7.239h0v7.239h0v7.239h0v7.239h0v7.239h0V53.5h0v2.761a1.819,1.819,0,0,1-1.817,1.817H7.289a1.819,1.819,0,0,1-1.817-1.817V7.289A1.819,1.819,0,0,1,7.289,5.471H56.264a1.819,1.819,0,0,1,1.817,1.817Z" transform="translate(-6915.333 -10921)" fill="#00ffdf"/>
    <path id="Trazado_880561" data-name="Trazado 880561" d="M109.561,289.6l-.584-.584.354-.354a.947.947,0,1,0-1.34-1.34l-.354.354-1.594-1.594.354-.354a.947.947,0,1,0-1.34-1.34l-.354.354-1.594-1.594.354-.354a.947.947,0,0,0-1.34-1.34l-.354.354-1.595-1.594.354-.354a.947.947,0,0,0-1.34-1.34l-.354.354-.139-.139a1.761,1.761,0,0,0-2.487,0l-4.842,4.842a1.758,1.758,0,0,0,0,2.486l.139.139-.5.5a.947.947,0,1,0,1.34,1.34l.5-.5,1.594,1.594-.5.5a.947.947,0,1,0,1.34,1.34l.5-.5,1.594,1.594-.5.5a.947.947,0,1,0,1.34,1.34l.5-.5,1.594,1.594-.5.5a.948.948,0,1,0,1.34,1.34l.5-.5.584.584a1.761,1.761,0,0,0,2.487,0l4.842-4.842a1.758,1.758,0,0,0,0-2.486Zm-6.085,5.892L99.384,291.4h0l-2.934-2.934h0L92.8,284.822l4.649-4.649.712.712h0l2.934,2.934h0l7.026,7.026Z" transform="translate(-7081.747 -11164.688)" fill="#00ffdf"/>
    <path id="Trazado_880562" data-name="Trazado 880562" d="M203.393,195.773l-.584-.584.354-.354a.947.947,0,1,0-1.34-1.34l-.354.354-1.594-1.594.354-.354a.947.947,0,0,0-1.34-1.34l-.354.354-1.594-1.594.354-.354a.947.947,0,0,0-1.34-1.34l-.354.354-1.594-1.594.354-.354a.947.947,0,0,0-1.34-1.34l-.354.354-.139-.139a1.761,1.761,0,0,0-2.487,0L185.2,189.75a1.758,1.758,0,0,0,0,2.486l.139.139-.5.5a.947.947,0,1,0,1.34,1.34l.5-.5,1.594,1.594-.5.5a.947.947,0,1,0,1.34,1.34l.5-.5,1.594,1.594-.5.5a.947.947,0,1,0,1.34,1.34l.5-.5,1.594,1.594-.5.5a.947.947,0,1,0,1.34,1.34l.5-.5.584.584a1.758,1.758,0,0,0,2.486,0l4.842-4.842a1.758,1.758,0,0,0,0-2.487Zm-6.085,5.893-1.157-1.157h0l-2.933-2.934h0l-2.933-2.933h0l-3.646-3.646,4.649-4.649.712.712h0l2.934,2.934h0l2.934,2.934h0l4.092,4.092Z" transform="translate(-7163.932 -11082.506)" fill="#00ffdf"/>
    <path id="Trazado_880563" data-name="Trazado 880563" d="M297.223,101.942l-.584-.584.354-.354a.947.947,0,1,0-1.34-1.34l-.354.354L293.7,98.424l.354-.354a.947.947,0,0,0-1.34-1.34l-.354.354-1.594-1.594.354-.354a.947.947,0,0,0-1.34-1.34l-.354.354-1.594-1.594.354-.354a.947.947,0,1,0-1.34-1.34l-.354.354-.139-.139a1.76,1.76,0,0,0-2.487,0l-4.842,4.842a1.76,1.76,0,0,0,0,2.486l.139.139-.5.5a.947.947,0,1,0,1.34,1.34l.5-.5,1.594,1.594-.5.5a.947.947,0,1,0,1.34,1.34l.5-.5,1.594,1.594-.5.5a.947.947,0,1,0,1.34,1.34l.5-.5,1.594,1.594-.5.5a.947.947,0,1,0,1.34,1.34l.5-.5.584.584a1.758,1.758,0,0,0,2.486,0l4.842-4.842a1.758,1.758,0,0,0,0-2.487Zm-6.084,5.893-1.157-1.157h0l-2.934-2.934h0l-6.58-6.58,4.649-4.649.712.712h0l2.934,2.934h0l2.934,2.934h0l2.934,2.934h0l1.158,1.158Z" transform="translate(-7246.115 -11000.321)" fill="#00ffdf"/>
    <path id="Trazado_880564" data-name="Trazado 880564" d="M63.018,20.738l-8.094-8.094a.947.947,0,0,0-1.34,0l-.771.771a.769.769,0,1,1-1.088-1.088l.771-.771a.947.947,0,0,0,0-1.34L44.4,2.123a1.825,1.825,0,0,0-2.579,0l-.788.788L38.681.555A1.9,1.9,0,0,0,36,.555L.553,36a1.9,1.9,0,0,0,0,2.679l2.355,2.355-.788.788a1.823,1.823,0,0,0,0,2.579L10.214,52.5a.947.947,0,0,0,1.34,0l.77-.771a.769.769,0,1,1,1.088,1.088l-.771.771a.947.947,0,0,0,0,1.34l8.094,8.094a1.823,1.823,0,0,0,2.579,0L51.69,34.643a.947.947,0,0,0-1.34-1.34L22.025,61.629l-7.373-7.373.1-.1a2.664,2.664,0,1,0-3.768-3.768l-.1.1L3.511,43.115l1.407-1.407h0l3.246-3.246a.947.947,0,0,0-1.34-1.34L4.248,39.7,1.893,37.344l1.19-1.19,1.052,1.052a.947.947,0,0,0,1.34-1.34L4.424,34.814l1.833-1.833,1.052,1.052a.947.947,0,0,0,1.34-1.34L7.6,31.641l1.833-1.833,1.052,1.052a.947.947,0,1,0,1.34-1.34l-1.052-1.052L12.6,26.635l1.052,1.052a.947.947,0,0,0,1.34-1.34L13.942,25.3l1.833-1.833,1.052,1.052a.947.947,0,1,0,1.34-1.34l-1.052-1.052,1.833-1.833L20,21.342A.947.947,0,1,0,21.339,20L20.287,18.95l1.833-1.833,1.052,1.052a.947.947,0,0,0,1.34-1.34L23.46,15.777l1.833-1.833L26.345,15a.947.947,0,0,0,1.34-1.34L26.632,12.6l1.833-1.833,1.052,1.052a.947.947,0,0,0,1.34-1.34L29.805,9.431,31.638,7.6,32.69,8.651a.947.947,0,0,0,1.34-1.34L32.978,6.259l1.833-1.833,1.052,1.052a.947.947,0,0,0,1.34-1.34L36.151,3.086l1.19-1.19L39.7,4.251l-29.3,29.3a.947.947,0,1,0,1.34,1.34L43.113,3.513l7.373,7.373-.1.1a2.664,2.664,0,0,0,3.768,3.768l.1-.1,7.373,7.373-7.7,7.7a.947.947,0,0,0,1.34,1.34l7.754-7.754a1.823,1.823,0,0,0,0-2.579Z" transform="translate(-7002.276 -10921.002)" fill="#00ffdf"/>
    <path id="Trazado_880565" data-name="Trazado 880565" d="M117.156,157.7a.908.908,0,0,0-.978-.832c-2.887.232-5.919.35-9.011.35a89.053,89.053,0,0,1-19.362-1.862.908.908,0,1,0-.415,1.767,90.883,90.883,0,0,0,19.777,1.909c3.14,0,6.221-.12,9.156-.356A.908.908,0,0,0,117.156,157.7Z" transform="translate(-7164.613 -11056.542)" fill="#00ffdf"/>
    <path id="Trazado_880566" data-name="Trazado 880566" d="M117.156,286.309a.908.908,0,0,0-.978-.832c-2.887.232-5.919.35-9.011.35a89.053,89.053,0,0,1-19.362-1.862.908.908,0,0,0-.415,1.767,90.883,90.883,0,0,0,19.777,1.909c3.14,0,6.221-.12,9.156-.356A.908.908,0,0,0,117.156,286.309Z" transform="translate(-7164.613 -11169.599)" fill="#00ffdf"/>
    <path id="Trazado_880567" data-name="Trazado 880567" d="M77.012,7.14C76.821,2.8,65.079,1.1,60.006.572,58.441.409,56.8.278,55.129.184,52.959.062,50.716,0,48.461,0A103.118,103.118,0,0,0,32.442,1.16a.908.908,0,1,0,.289,1.792A101.3,101.3,0,0,1,48.461,1.815c2.22,0,4.43.061,6.566.181,1.642.092,3.253.221,4.79.381A53.4,53.4,0,0,1,71.294,4.63C75.013,5.93,75.2,7.038,75.2,7.247c0,.707-1.557,2.26-7.393,3.6l-.489.109a92.39,92.39,0,0,1-18.858,1.725A92.4,92.4,0,0,1,29.6,10.954l-.489-.109c-5.783-1.326-7.363-2.862-7.392-3.578,0-.007,0-.013,0-.02s0-.013,0-.019c.015-.427.532-.972,1.426-1.5A19.7,19.7,0,0,1,28.067,3.9a.908.908,0,1,0-.451-1.758c-5.115,1.312-7.709,3.029-7.709,5.1V54.681c0,2.222,2.962,4.028,8.8,5.367a92.688,92.688,0,0,0,19.753,1.88,92.667,92.667,0,0,0,19.752-1.88c5.841-1.339,8.8-3.145,8.8-5.367V7.294c0-.016,0-.031,0-.047A.851.851,0,0,0,77.012,7.14Zm-9.2,51.139a90.84,90.84,0,0,1-19.347,1.834,90.84,90.84,0,0,1-19.347-1.834c-5.836-1.338-7.393-2.891-7.393-3.6V41.629l.062.041.151.1.126.08.164.1.131.077.179.1.134.073c.066.035.134.069.2.1l.13.066c.085.042.172.083.26.124l.091.043q.179.082.368.163l.12.05c.089.037.177.074.269.111l.159.062.249.1.178.066.249.09.191.066.256.087.2.065.266.085.208.064.279.084.213.062.3.083.214.059.322.085.206.054.37.093.177.044q.278.067.565.133a92.678,92.678,0,0,0,19.753,1.88,92.676,92.676,0,0,0,19.753-1.88q.288-.066.565-.133l.177-.044.37-.093.206-.054.322-.085.214-.059.3-.083.213-.062.279-.084.208-.064.266-.085.2-.066.256-.087.191-.066.249-.09.178-.066.249-.1.159-.062c.091-.037.18-.074.268-.111l.121-.05q.188-.081.367-.163l.091-.043c.088-.041.175-.082.26-.124l.13-.066c.068-.035.137-.069.2-.1l.135-.073.179-.1.132-.077.163-.1.126-.08.151-.1.062-.041V54.681h0C75.2,55.388,73.644,56.941,67.808,58.279Zm7.35-19.189c-.286.776-2.061,2.165-7.35,3.378A90.84,90.84,0,0,1,48.461,44.3a90.841,90.841,0,0,1-19.347-1.834c-5.289-1.213-7.063-2.6-7.35-3.378a.639.639,0,0,1-.043-.22V25.817l.06.039.155.1.123.078.167.1.129.076.181.1.133.073c.066.035.134.069.2.1l.131.067c.083.041.169.081.256.122l.095.045q.179.082.367.163l.127.053c.086.036.173.072.262.108l.165.065.243.094.183.067.244.088.2.068.252.085.2.067.263.084.21.065.277.083.214.063.295.083.215.06.319.085.209.055.369.092.178.044q.278.067.565.133a92.678,92.678,0,0,0,19.753,1.88,92.677,92.677,0,0,0,19.753-1.88q.288-.066.565-.133l.178-.044.368-.092.209-.055.319-.085.215-.06.295-.083.214-.063.277-.083.21-.065.263-.084.2-.067.251-.085.2-.068.244-.088.183-.067.243-.094.165-.065c.089-.036.175-.072.261-.108l.128-.053q.188-.081.367-.163l.095-.045c.086-.04.173-.081.256-.122l.131-.067.2-.1.133-.073c.061-.033.122-.067.181-.1l.129-.076.166-.1.123-.078.155-.1.06-.039V38.87h0A.642.642,0,0,1,75.158,39.09Zm-7.35-12.434A90.84,90.84,0,0,1,48.461,28.49a90.84,90.84,0,0,1-19.347-1.834c-5.836-1.338-7.393-2.891-7.393-3.6V10.006l.06.039.155.1.123.078.167.1.129.076.181.1.133.073c.066.035.134.069.2.1l.131.067c.083.041.169.081.256.122l.095.045q.179.082.367.163l.127.053c.086.036.173.072.262.108l.165.065.243.094.183.067.244.088.2.068.252.085.2.067.263.084.21.065.277.083.214.063.295.083.215.06.319.085.209.055.369.092.178.044q.278.067.565.133a92.677,92.677,0,0,0,19.753,1.88,92.676,92.676,0,0,0,19.753-1.88q.288-.066.565-.133l.178-.044.368-.092.209-.055.319-.085.215-.06.295-.083L70.578,12l.277-.083.21-.065.263-.084.2-.067.251-.085.2-.068.244-.088.183-.067.243-.094.165-.065c.089-.036.175-.072.261-.108l.128-.053q.188-.081.367-.163l.095-.045c.086-.04.173-.081.256-.122l.131-.067.2-.1.133-.073c.061-.033.122-.067.181-.1l.129-.076.166-.1.123-.078.155-.1.06-.039V23.059h0C75.2,23.765,73.644,25.318,67.808,26.657Z" transform="translate(-7105.906 -10920)" fill="#00ffdf"/>
    <path id="Trazado_880568" data-name="Trazado 880568" d="M371.615,136.991a3.537,3.537,0,1,0,0,5A3.543,3.543,0,0,0,371.615,136.991Zm-1.284,3.721a1.723,1.723,0,1,1,.5-1.218A1.712,1.712,0,0,1,370.331,140.711Z" transform="translate(-7409.766 -11039.512)" fill="#00ffdf"/>
    <path id="Trazado_880569" data-name="Trazado 880569" d="M371.615,265.994a3.537,3.537,0,1,0,0,5A3.543,3.543,0,0,0,371.615,265.994Zm-1.284,3.721a1.723,1.723,0,1,1,.5-1.218A1.712,1.712,0,0,1,370.331,269.714Z" transform="translate(-7409.766 -11152.911)" fill="#00ffdf"/>
    <path id="Trazado_880570" data-name="Trazado 880570" d="M371.615,395.192a3.537,3.537,0,1,0,0,5A3.543,3.543,0,0,0,371.615,395.192Zm-1.284,3.721a1.723,1.723,0,1,1,.5-1.218A1.712,1.712,0,0,1,370.331,398.912Z" transform="translate(-7409.766 -11266.482)" fill="#00ffdf"/>
    <path id="Trazado_880571" data-name="Trazado 880571" d="M296.823,428.485a.907.907,0,0,0-.978-.832c-1.269.1-2.581.183-3.9.24a.908.908,0,0,0,.039,1.815h.04c1.34-.058,2.674-.141,3.965-.245A.908.908,0,0,0,296.823,428.485Z" transform="translate(-7344.279 -11295.925)" fill="#00ffdf"/>
    <path id="Trazado_880572" data-name="Trazado 880572" d="M107.452,416.867h-.282a89.055,89.055,0,0,1-19.362-1.862.908.908,0,1,0-.415,1.767,90.882,90.882,0,0,0,19.777,1.91h.285a.908.908,0,0,0,0-1.815Z" transform="translate(-7164.614 -11284.789)" fill="#00ffdf"/>
    <path id="Trazado_880894" data-name="Trazado 880894" d="M295.5,0H0" transform="translate(-7118.5 -10708.5)" fill="none" stroke="#a854f3" stroke-linecap="round" stroke-width="2" stroke-dasharray="2 4"/>
    <path id="Trazado_880902" data-name="Trazado 880902" d="M0,0H48V20H0Z" transform="translate(-7119 -10553)" fill="#f2e5fd"/>
    <path id="Trazado_880914" data-name="Trazado 880914" d="M0,0H96V21H0Z" transform="translate(-7119 -10533)" fill="#e3dfeb"/>
    <path id="Trazado_880903" data-name="Trazado 880903" d="M0,0H48V20H0Z" transform="translate(-7071 -10553)" fill="#debefb"/>
    <path id="Trazado_880904" data-name="Trazado 880904" d="M7.858,11.242H4.776L4.19,13H2.321L5.5,4.469H7.126L10.319,13H8.45ZM5.251,9.818H7.384L6.312,6.625Zm7.623.176V13H11.116V4.469h3.328a3.85,3.85,0,0,1,1.69.352,2.591,2.591,0,0,1,1.122,1,2.786,2.786,0,0,1,.393,1.474,2.45,2.45,0,0,1-.858,1.978,3.575,3.575,0,0,1-2.376.724Zm0-1.424h1.57a1.544,1.544,0,0,0,1.063-.328,1.193,1.193,0,0,0,.366-.937A1.407,1.407,0,0,0,15.5,6.291a1.379,1.379,0,0,0-1.02-.4H12.874Zm7.74,1.424V13H18.856V4.469h3.328a3.85,3.85,0,0,1,1.69.352,2.591,2.591,0,0,1,1.122,1,2.786,2.786,0,0,1,.393,1.474,2.45,2.45,0,0,1-.858,1.978,3.575,3.575,0,0,1-2.376.724Zm0-1.424h1.57a1.544,1.544,0,0,0,1.063-.328,1.193,1.193,0,0,0,.366-.937,1.407,1.407,0,0,0-.369-1.014,1.379,1.379,0,0,0-1.02-.4H20.614ZM30.528,13H28.835V6.473L26.813,7.1V5.723l3.533-1.266h.182Z" transform="translate(-7112 -10551)" fill="#12263f"/>
    <path id="Trazado_880917" data-name="Trazado 880917" d="M14.854,10.762A.9.9,0,0,0,14.5,10a4.611,4.611,0,0,0-1.266-.562,8.972,8.972,0,0,1-1.447-.583,2.365,2.365,0,0,1-1.453-2.115,2.06,2.06,0,0,1,.39-1.233,2.542,2.542,0,0,1,1.119-.847,4.212,4.212,0,0,1,1.638-.3,3.834,3.834,0,0,1,1.629.331,2.594,2.594,0,0,1,1.11.935,2.445,2.445,0,0,1,.4,1.371H14.86a1.15,1.15,0,0,0-.369-.911,1.517,1.517,0,0,0-1.037-.325,1.621,1.621,0,0,0-1,.272.859.859,0,0,0-.357.718.823.823,0,0,0,.419.7,4.733,4.733,0,0,0,1.233.527,5.329,5.329,0,0,1,2.186,1.119,2.229,2.229,0,0,1,.686,1.664,2.053,2.053,0,0,1-.838,1.737,3.668,3.668,0,0,1-2.256.63,4.356,4.356,0,0,1-1.793-.36A2.837,2.837,0,0,1,10.5,11.77a2.528,2.528,0,0,1-.425-1.453h1.764q0,1.412,1.688,1.412a1.642,1.642,0,0,0,.979-.255A.829.829,0,0,0,14.854,10.762Zm9.961-1.834a5.15,5.15,0,0,1-.445,2.209A3.354,3.354,0,0,1,23.1,12.6a3.766,3.766,0,0,1-3.794.006,3.387,3.387,0,0,1-1.289-1.456,5,5,0,0,1-.463-2.177V8.553A5.123,5.123,0,0,1,18,6.335a3.381,3.381,0,0,1,1.283-1.471,3.76,3.76,0,0,1,3.791,0,3.381,3.381,0,0,1,1.283,1.471,5.109,5.109,0,0,1,.454,2.212Zm-1.781-.387a3.59,3.59,0,0,0-.48-2.039,1.7,1.7,0,0,0-2.736-.009,3.549,3.549,0,0,0-.486,2.019v.416a3.635,3.635,0,0,0,.48,2.027,1.682,1.682,0,0,0,2.742.026,3.614,3.614,0,0,0,.48-2.024Z" transform="translate(-7089 -10530)" fill="#12263f"/>
    <path id="Trazado_880905" data-name="Trazado 880905" d="M7.858,11.242H4.776L4.19,13H2.321L5.5,4.469H7.126L10.319,13H8.45ZM5.251,9.818H7.384L6.312,6.625Zm7.623.176V13H11.116V4.469h3.328a3.85,3.85,0,0,1,1.69.352,2.591,2.591,0,0,1,1.122,1,2.786,2.786,0,0,1,.393,1.474,2.45,2.45,0,0,1-.858,1.978,3.575,3.575,0,0,1-2.376.724Zm0-1.424h1.57a1.544,1.544,0,0,0,1.063-.328,1.193,1.193,0,0,0,.366-.937A1.407,1.407,0,0,0,15.5,6.291a1.379,1.379,0,0,0-1.02-.4H12.874Zm7.74,1.424V13H18.856V4.469h3.328a3.85,3.85,0,0,1,1.69.352,2.591,2.591,0,0,1,1.122,1,2.786,2.786,0,0,1,.393,1.474,2.45,2.45,0,0,1-.858,1.978,3.575,3.575,0,0,1-2.376.724Zm0-1.424h1.57a1.544,1.544,0,0,0,1.063-.328,1.193,1.193,0,0,0,.366-.937,1.407,1.407,0,0,0-.369-1.014,1.379,1.379,0,0,0-1.02-.4H20.614ZM32.263,13H26.415V11.84L29.175,8.9a6.808,6.808,0,0,0,.841-1.084,1.742,1.742,0,0,0,.272-.879A1.3,1.3,0,0,0,30,6.042a1.036,1.036,0,0,0-.82-.325,1.118,1.118,0,0,0-.905.4,1.567,1.567,0,0,0-.331,1.04h-1.7a2.8,2.8,0,0,1,.372-1.424,2.622,2.622,0,0,1,1.052-1.011,3.2,3.2,0,0,1,1.541-.366,3.027,3.027,0,0,1,2.048.633,2.239,2.239,0,0,1,.729,1.787,2.868,2.868,0,0,1-.328,1.289A7.164,7.164,0,0,1,30.534,9.59l-1.939,2.045h3.668Z" transform="translate(-7065 -10551)" fill="#12263f"/>
    <path id="Trazado_880906" data-name="Trazado 880906" d="M0,0H48V20H0Z" transform="translate(-7019 -10553)" fill="#f2e5fd"/>
    <path id="Trazado_880915" data-name="Trazado 880915" d="M0,0H96V21H0Z" transform="translate(-7019 -10533)" fill="#e3dfeb"/>
    <path id="Trazado_880907" data-name="Trazado 880907" d="M0,0H48V20H0Z" transform="translate(-6971 -10553)" fill="#debefb"/>
    <path id="Trazado_880908" data-name="Trazado 880908" d="M7.858,11.242H4.776L4.19,13H2.321L5.5,4.469H7.126L10.319,13H8.45ZM5.251,9.818H7.384L6.312,6.625Zm7.623.176V13H11.116V4.469h3.328a3.85,3.85,0,0,1,1.69.352,2.591,2.591,0,0,1,1.122,1,2.786,2.786,0,0,1,.393,1.474,2.45,2.45,0,0,1-.858,1.978,3.575,3.575,0,0,1-2.376.724Zm0-1.424h1.57a1.544,1.544,0,0,0,1.063-.328,1.193,1.193,0,0,0,.366-.937A1.407,1.407,0,0,0,15.5,6.291a1.379,1.379,0,0,0-1.02-.4H12.874Zm7.74,1.424V13H18.856V4.469h3.328a3.85,3.85,0,0,1,1.69.352,2.591,2.591,0,0,1,1.122,1,2.786,2.786,0,0,1,.393,1.474,2.45,2.45,0,0,1-.858,1.978,3.575,3.575,0,0,1-2.376.724Zm0-1.424h1.57a1.544,1.544,0,0,0,1.063-.328,1.193,1.193,0,0,0,.366-.937,1.407,1.407,0,0,0-.369-1.014,1.379,1.379,0,0,0-1.02-.4H20.614ZM30.528,13H28.835V6.473L26.813,7.1V5.723l3.533-1.266h.182Z" transform="translate(-7012 -10551)" fill="#12263f"/>
    <path id="Trazado_880918" data-name="Trazado 880918" d="M14.854,10.762A.9.9,0,0,0,14.5,10a4.611,4.611,0,0,0-1.266-.562,8.972,8.972,0,0,1-1.447-.583,2.365,2.365,0,0,1-1.453-2.115,2.06,2.06,0,0,1,.39-1.233,2.542,2.542,0,0,1,1.119-.847,4.212,4.212,0,0,1,1.638-.3,3.834,3.834,0,0,1,1.629.331,2.594,2.594,0,0,1,1.11.935,2.445,2.445,0,0,1,.4,1.371H14.86a1.15,1.15,0,0,0-.369-.911,1.517,1.517,0,0,0-1.037-.325,1.621,1.621,0,0,0-1,.272.859.859,0,0,0-.357.718.823.823,0,0,0,.419.7,4.733,4.733,0,0,0,1.233.527,5.329,5.329,0,0,1,2.186,1.119,2.229,2.229,0,0,1,.686,1.664,2.053,2.053,0,0,1-.838,1.737,3.668,3.668,0,0,1-2.256.63,4.356,4.356,0,0,1-1.793-.36A2.837,2.837,0,0,1,10.5,11.77a2.528,2.528,0,0,1-.425-1.453h1.764q0,1.412,1.688,1.412a1.642,1.642,0,0,0,.979-.255A.829.829,0,0,0,14.854,10.762Zm9.961-1.834a5.15,5.15,0,0,1-.445,2.209A3.354,3.354,0,0,1,23.1,12.6a3.766,3.766,0,0,1-3.794.006,3.387,3.387,0,0,1-1.289-1.456,5,5,0,0,1-.463-2.177V8.553A5.123,5.123,0,0,1,18,6.335a3.381,3.381,0,0,1,1.283-1.471,3.76,3.76,0,0,1,3.791,0,3.381,3.381,0,0,1,1.283,1.471,5.109,5.109,0,0,1,.454,2.212Zm-1.781-.387a3.59,3.59,0,0,0-.48-2.039,1.7,1.7,0,0,0-2.736-.009,3.549,3.549,0,0,0-.486,2.019v.416a3.635,3.635,0,0,0,.48,2.027,1.682,1.682,0,0,0,2.742.026,3.614,3.614,0,0,0,.48-2.024Z" transform="translate(-6988 -10530)" fill="#12263f"/>
    <path id="Trazado_880909" data-name="Trazado 880909" d="M7.858,11.242H4.776L4.19,13H2.321L5.5,4.469H7.126L10.319,13H8.45ZM5.251,9.818H7.384L6.312,6.625Zm7.623.176V13H11.116V4.469h3.328a3.85,3.85,0,0,1,1.69.352,2.591,2.591,0,0,1,1.122,1,2.786,2.786,0,0,1,.393,1.474,2.45,2.45,0,0,1-.858,1.978,3.575,3.575,0,0,1-2.376.724Zm0-1.424h1.57a1.544,1.544,0,0,0,1.063-.328,1.193,1.193,0,0,0,.366-.937A1.407,1.407,0,0,0,15.5,6.291a1.379,1.379,0,0,0-1.02-.4H12.874Zm7.74,1.424V13H18.856V4.469h3.328a3.85,3.85,0,0,1,1.69.352,2.591,2.591,0,0,1,1.122,1,2.786,2.786,0,0,1,.393,1.474,2.45,2.45,0,0,1-.858,1.978,3.575,3.575,0,0,1-2.376.724Zm0-1.424h1.57a1.544,1.544,0,0,0,1.063-.328,1.193,1.193,0,0,0,.366-.937,1.407,1.407,0,0,0-.369-1.014,1.379,1.379,0,0,0-1.02-.4H20.614ZM32.263,13H26.415V11.84L29.175,8.9a6.808,6.808,0,0,0,.841-1.084,1.742,1.742,0,0,0,.272-.879A1.3,1.3,0,0,0,30,6.042a1.036,1.036,0,0,0-.82-.325,1.118,1.118,0,0,0-.905.4,1.567,1.567,0,0,0-.331,1.04h-1.7a2.8,2.8,0,0,1,.372-1.424,2.622,2.622,0,0,1,1.052-1.011,3.2,3.2,0,0,1,1.541-.366,3.027,3.027,0,0,1,2.048.633,2.239,2.239,0,0,1,.729,1.787,2.868,2.868,0,0,1-.328,1.289A7.164,7.164,0,0,1,30.534,9.59l-1.939,2.045h3.668Z" transform="translate(-6964 -10551)" fill="#12263f"/>
    <path id="Trazado_880910" data-name="Trazado 880910" d="M0,0H48V20H0Z" transform="translate(-6919 -10553)" fill="#f2e5fd"/>
    <path id="Trazado_880916" data-name="Trazado 880916" d="M0,0H96V21H0Z" transform="translate(-6919 -10533)" fill="#e3dfeb"/>
    <path id="Trazado_880911" data-name="Trazado 880911" d="M0,0H48V20H0Z" transform="translate(-6871 -10553)" fill="#debefb"/>
    <path id="Trazado_880912" data-name="Trazado 880912" d="M7.858,11.242H4.776L4.19,13H2.321L5.5,4.469H7.126L10.319,13H8.45ZM5.251,9.818H7.384L6.312,6.625Zm7.623.176V13H11.116V4.469h3.328a3.85,3.85,0,0,1,1.69.352,2.591,2.591,0,0,1,1.122,1,2.786,2.786,0,0,1,.393,1.474,2.45,2.45,0,0,1-.858,1.978,3.575,3.575,0,0,1-2.376.724Zm0-1.424h1.57a1.544,1.544,0,0,0,1.063-.328,1.193,1.193,0,0,0,.366-.937A1.407,1.407,0,0,0,15.5,6.291a1.379,1.379,0,0,0-1.02-.4H12.874Zm7.74,1.424V13H18.856V4.469h3.328a3.85,3.85,0,0,1,1.69.352,2.591,2.591,0,0,1,1.122,1,2.786,2.786,0,0,1,.393,1.474,2.45,2.45,0,0,1-.858,1.978,3.575,3.575,0,0,1-2.376.724Zm0-1.424h1.57a1.544,1.544,0,0,0,1.063-.328,1.193,1.193,0,0,0,.366-.937,1.407,1.407,0,0,0-.369-1.014,1.379,1.379,0,0,0-1.02-.4H20.614ZM30.528,13H28.835V6.473L26.813,7.1V5.723l3.533-1.266h.182Z" transform="translate(-6912 -10551)" fill="#12263f"/>
    <path id="Trazado_880919" data-name="Trazado 880919" d="M14.854,10.762A.9.9,0,0,0,14.5,10a4.611,4.611,0,0,0-1.266-.562,8.972,8.972,0,0,1-1.447-.583,2.365,2.365,0,0,1-1.453-2.115,2.06,2.06,0,0,1,.39-1.233,2.542,2.542,0,0,1,1.119-.847,4.212,4.212,0,0,1,1.638-.3,3.834,3.834,0,0,1,1.629.331,2.594,2.594,0,0,1,1.11.935,2.445,2.445,0,0,1,.4,1.371H14.86a1.15,1.15,0,0,0-.369-.911,1.517,1.517,0,0,0-1.037-.325,1.621,1.621,0,0,0-1,.272.859.859,0,0,0-.357.718.823.823,0,0,0,.419.7,4.733,4.733,0,0,0,1.233.527,5.329,5.329,0,0,1,2.186,1.119,2.229,2.229,0,0,1,.686,1.664,2.053,2.053,0,0,1-.838,1.737,3.668,3.668,0,0,1-2.256.63,4.356,4.356,0,0,1-1.793-.36A2.837,2.837,0,0,1,10.5,11.77a2.528,2.528,0,0,1-.425-1.453h1.764q0,1.412,1.688,1.412a1.642,1.642,0,0,0,.979-.255A.829.829,0,0,0,14.854,10.762Zm9.961-1.834a5.15,5.15,0,0,1-.445,2.209A3.354,3.354,0,0,1,23.1,12.6a3.766,3.766,0,0,1-3.794.006,3.387,3.387,0,0,1-1.289-1.456,5,5,0,0,1-.463-2.177V8.553A5.123,5.123,0,0,1,18,6.335a3.381,3.381,0,0,1,1.283-1.471,3.76,3.76,0,0,1,3.791,0,3.381,3.381,0,0,1,1.283,1.471,5.109,5.109,0,0,1,.454,2.212Zm-1.781-.387a3.59,3.59,0,0,0-.48-2.039,1.7,1.7,0,0,0-2.736-.009,3.549,3.549,0,0,0-.486,2.019v.416a3.635,3.635,0,0,0,.48,2.027,1.682,1.682,0,0,0,2.742.026,3.614,3.614,0,0,0,.48-2.024Z" transform="translate(-6888 -10530)" fill="#12263f"/>
    <path id="Trazado_880913" data-name="Trazado 880913" d="M7.858,11.242H4.776L4.19,13H2.321L5.5,4.469H7.126L10.319,13H8.45ZM5.251,9.818H7.384L6.312,6.625Zm7.623.176V13H11.116V4.469h3.328a3.85,3.85,0,0,1,1.69.352,2.591,2.591,0,0,1,1.122,1,2.786,2.786,0,0,1,.393,1.474,2.45,2.45,0,0,1-.858,1.978,3.575,3.575,0,0,1-2.376.724Zm0-1.424h1.57a1.544,1.544,0,0,0,1.063-.328,1.193,1.193,0,0,0,.366-.937A1.407,1.407,0,0,0,15.5,6.291a1.379,1.379,0,0,0-1.02-.4H12.874Zm7.74,1.424V13H18.856V4.469h3.328a3.85,3.85,0,0,1,1.69.352,2.591,2.591,0,0,1,1.122,1,2.786,2.786,0,0,1,.393,1.474,2.45,2.45,0,0,1-.858,1.978,3.575,3.575,0,0,1-2.376.724Zm0-1.424h1.57a1.544,1.544,0,0,0,1.063-.328,1.193,1.193,0,0,0,.366-.937,1.407,1.407,0,0,0-.369-1.014,1.379,1.379,0,0,0-1.02-.4H20.614ZM32.263,13H26.415V11.84L29.175,8.9a6.808,6.808,0,0,0,.841-1.084,1.742,1.742,0,0,0,.272-.879A1.3,1.3,0,0,0,30,6.042a1.036,1.036,0,0,0-.82-.325,1.118,1.118,0,0,0-.905.4,1.567,1.567,0,0,0-.331,1.04h-1.7a2.8,2.8,0,0,1,.372-1.424,2.622,2.622,0,0,1,1.052-1.011,3.2,3.2,0,0,1,1.541-.366,3.027,3.027,0,0,1,2.048.633,2.239,2.239,0,0,1,.729,1.787,2.868,2.868,0,0,1-.328,1.289A7.164,7.164,0,0,1,30.534,9.59l-1.939,2.045h3.668Z" transform="translate(-6864 -10551)" fill="#12263f"/>
    <path id="Trazado_880891" data-name="Trazado 880891" d="M0,0H125V34H0Z" transform="translate(-7034 -10789)" fill="#0b47db"/>
    <path id="Trazado_880893" data-name="Trazado 880893" d="M83,0l83,32H0Z" transform="translate(-6888 -10724) rotate(180)" fill="#0b47db"/>
    <path id="Trazado_880892" data-name="Trazado 880892" d="M10.273,0H7.93V-4.875H3.359V0H1.016V-11.375H3.359v4.609H7.93v-4.609h2.344Zm5.75-6.25,2.367-5.125h2.563l-3.734,7.25V0H14.836V-4.125L11.1-11.375h2.57Zm8.313,2.242V0H21.992V-11.375H26.43a5.134,5.134,0,0,1,2.254.469,3.454,3.454,0,0,1,1.5,1.332A3.714,3.714,0,0,1,30.7-7.609a3.266,3.266,0,0,1-1.145,2.637,4.767,4.767,0,0,1-3.168.965Zm0-1.9H26.43a2.059,2.059,0,0,0,1.418-.437,1.591,1.591,0,0,0,.488-1.25,1.876,1.876,0,0,0-.492-1.352,1.839,1.839,0,0,0-1.359-.531H24.336Zm14.82.977h-4.5v3.047h5.281V0H32.313V-11.375h7.609v1.9H34.656v2.711h4.5Zm6.367.766H43.656V0H41.313V-11.375h4.227a4.778,4.778,0,0,1,3.109.9,3.1,3.1,0,0,1,1.094,2.539A3.5,3.5,0,0,1,49.238-6a3.437,3.437,0,0,1-1.527,1.238L50.172-.109V0H47.656Zm-1.867-1.9h1.891a1.936,1.936,0,0,0,1.367-.449A1.606,1.606,0,0,0,47.4-7.75a1.719,1.719,0,0,0-.457-1.266,1.9,1.9,0,0,0-1.4-.461H43.656ZM55.578-2.82l2.578-8.555h2.609L56.8,0H54.359L50.414-11.375h2.6ZM64.328,0H61.984V-11.375h2.344ZM72.4-2.984A1.2,1.2,0,0,0,71.93-4a6.148,6.148,0,0,0-1.687-.75,11.963,11.963,0,0,1-1.93-.777,3.153,3.153,0,0,1-1.937-2.82A2.747,2.747,0,0,1,66.895-10a3.389,3.389,0,0,1,1.492-1.129,5.616,5.616,0,0,1,2.184-.406,5.112,5.112,0,0,1,2.172.441,3.458,3.458,0,0,1,1.48,1.246,3.261,3.261,0,0,1,.527,1.828H72.406a1.534,1.534,0,0,0-.492-1.215,2.023,2.023,0,0,0-1.383-.434A2.162,2.162,0,0,0,69.2-9.3a1.146,1.146,0,0,0-.477.957,1.1,1.1,0,0,0,.559.93,6.311,6.311,0,0,0,1.645.7,7.106,7.106,0,0,1,2.914,1.492A2.972,2.972,0,0,1,74.75-3,2.737,2.737,0,0,1,73.633-.684a4.891,4.891,0,0,1-3.008.84,5.808,5.808,0,0,1-2.391-.48A3.783,3.783,0,0,1,66.59-1.641a3.371,3.371,0,0,1-.566-1.937h2.352q0,1.883,2.25,1.883a2.189,2.189,0,0,0,1.3-.34A1.106,1.106,0,0,0,72.4-2.984ZM85.68-5.43a6.867,6.867,0,0,1-.594,2.945,4.472,4.472,0,0,1-1.7,1.953,4.7,4.7,0,0,1-2.535.688,4.732,4.732,0,0,1-2.523-.68,4.515,4.515,0,0,1-1.719-1.941,6.67,6.67,0,0,1-.617-2.9V-5.93A6.831,6.831,0,0,1,76.6-8.887a4.508,4.508,0,0,1,1.711-1.961,4.706,4.706,0,0,1,2.527-.684,4.706,4.706,0,0,1,2.527.684,4.508,4.508,0,0,1,1.711,1.961,6.811,6.811,0,0,1,.605,2.949ZM83.3-5.945a4.787,4.787,0,0,0-.641-2.719,2.088,2.088,0,0,0-1.828-.93,2.088,2.088,0,0,0-1.82.918,4.732,4.732,0,0,0-.648,2.691v.555a4.847,4.847,0,0,0,.641,2.7,2.082,2.082,0,0,0,1.844.961,2.064,2.064,0,0,0,1.813-.926,4.819,4.819,0,0,0,.641-2.7Zm8.289,1.781H89.727V0H87.383V-11.375h4.227a4.778,4.778,0,0,1,3.109.9,3.1,3.1,0,0,1,1.094,2.539A3.5,3.5,0,0,1,95.309-6a3.437,3.437,0,0,1-1.527,1.238L96.242-.109V0H93.727Zm-1.867-1.9h1.891a1.936,1.936,0,0,0,1.367-.449,1.606,1.606,0,0,0,.484-1.238,1.719,1.719,0,0,0-.457-1.266,1.9,1.9,0,0,0-1.4-.461H89.727Z" transform="translate(-7020 -10760)" fill="#fff"/>
    <path id="Trazado_880573" data-name="Trazado 880573" d="M18.76,15.379a.63.63,0,0,1-.518.335h-3.8c-.3,0-.536.37-.536.826V85.893c0,.611-.322,1.107-.719,1.107H5.8c-.4,0-.719-.5-.719-1.107V16.54c0-.456-.24-.826-.536-.826H.732c-.4.012-.725-.475-.732-1.086a1.462,1.462,0,0,1,.217-.814L8.972.331a.558.558,0,0,1,1.019,0l8.755,13.483A1.56,1.56,0,0,1,18.76,15.379Z" transform="translate(-7055.036 -10558) rotate(180)" fill="#0b47db"/>
    <path id="Trazado_880591" data-name="Trazado 880591" d="M18.76,15.379a.63.63,0,0,1-.518.335h-3.8c-.3,0-.536.37-.536.826V85.893c0,.611-.322,1.107-.719,1.107H5.8c-.4,0-.719-.5-.719-1.107V16.54c0-.456-.24-.826-.536-.826H.732c-.4.012-.725-.475-.732-1.086a1.462,1.462,0,0,1,.217-.814L8.972.331a.558.558,0,0,1,1.019,0l8.755,13.483A1.56,1.56,0,0,1,18.76,15.379Z" transform="translate(-6961.036 -10558) rotate(180)" fill="#0b47db"/>
    <path id="Trazado_880592" data-name="Trazado 880592" d="M18.76,15.379a.63.63,0,0,1-.518.335h-3.8c-.3,0-.536.37-.536.826V85.893c0,.611-.322,1.107-.719,1.107H5.8c-.4,0-.719-.5-.719-1.107V16.54c0-.456-.24-.826-.536-.826H.732c-.4.012-.725-.475-.732-1.086a1.462,1.462,0,0,1,.217-.814L8.972.331a.558.558,0,0,1,1.019,0l8.755,13.483A1.56,1.56,0,0,1,18.76,15.379Z" transform="translate(-6867.518 -10558) rotate(180)" fill="#0b47db"/>
    <path id="Trazado_880896" data-name="Trazado 880896" d="M48,0,64,24.5,48,49H16L0,24.5,16,0Z" transform="translate(-7097 -10664)" fill="#3a1d71"/>
    <path id="Trazado_880899" data-name="Trazado 880899" d="M4.078-11.375,7-3.125l2.906-8.25h3.078V0H10.633V-3.109l.234-5.367L7.8,0H6.188L3.125-8.469l.234,5.359V0H1.016V-11.375ZM19.234-2.82l2.578-8.555h2.609L20.461,0H18.016L14.07-11.375h2.6Z" transform="translate(-7077 -10634)" fill="#fff"/>
    <path id="Trazado_880897" data-name="Trazado 880897" d="M48,0,64,24.5,48,49H16L0,24.5,16,0Z" transform="translate(-7003 -10664)" fill="#3a1d71"/>
    <path id="Trazado_880900" data-name="Trazado 880900" d="M4.078-11.375,7-3.125l2.906-8.25h3.078V0H10.633V-3.109l.234-5.367L7.8,0H6.188L3.125-8.469l.234,5.359V0H1.016V-11.375ZM19.234-2.82l2.578-8.555h2.609L20.461,0H18.016L14.07-11.375h2.6Z" transform="translate(-6983 -10634)" fill="#fff"/>
    <path id="Trazado_880898" data-name="Trazado 880898" d="M48,0,64,24.5,48,49H16L0,24.5,16,0Z" transform="translate(-6909 -10664)" fill="#3a1d71"/>
    <path id="Trazado_880901" data-name="Trazado 880901" d="M4.078-11.375,7-3.125l2.906-8.25h3.078V0H10.633V-3.109l.234-5.367L7.8,0H6.188L3.125-8.469l.234,5.359V0H1.016V-11.375ZM19.234-2.82l2.578-8.555h2.609L20.461,0H18.016L14.07-11.375h2.6Z" transform="translate(-6889 -10634)" fill="#fff"/>
  </g>
</svg>
