<svg xmlns="http://www.w3.org/2000/svg" width="35" height="35" viewBox="0 0 35 35">
  <g id="Grupo_1104455" data-name="Grupo 1104455" transform="translate(-2 -2)">
    <path id="Trazado_880584" data-name="Trazado 880584" d="M13.98,44.3a1.581,1.581,0,0,0-.857,2.071l.811,1.966A1.593,1.593,0,0,0,16,49.192a.432.432,0,0,1,.5.111,9.8,9.8,0,0,0,1.254,1.26.438.438,0,0,1,.117.484h0a1.593,1.593,0,0,0,.857,2.071l1.966.811a1.587,1.587,0,0,0,2.071-.857h0a.432.432,0,0,1,.426-.262,10,10,0,0,0,1.75,0,.443.443,0,0,1,.432.274,1.563,1.563,0,0,0,.858.857,1.587,1.587,0,0,0,.583.123,1.563,1.563,0,0,0,.583-.123l1.966-.811a1.593,1.593,0,0,0,.858-2.071.432.432,0,0,1,.111-.5,9.438,9.438,0,0,0,1.33-1.254.432.432,0,0,1,.5-.111,1.592,1.592,0,0,0,2.071-.857l.811-1.966a1.581,1.581,0,0,0-.857-2.071.432.432,0,0,1-.274-.432c0-.3.041-.583.041-.887H32.793a5.714,5.714,0,0,1-.035.776,1.593,1.593,0,0,0,.992,1.622.426.426,0,0,1,.228.548l-.817,1.96a.42.42,0,0,1-.548.228,1.6,1.6,0,0,0-1.843.443,8.6,8.6,0,0,1-1.1,1.108,1.587,1.587,0,0,0-.443,1.837A.42.42,0,0,1,29,52.05L27,52.861a.4.4,0,0,1-.315,0,.432.432,0,0,1-.227-.228,1.6,1.6,0,0,0-1.616-.992,8.75,8.75,0,0,1-1.563,0,1.592,1.592,0,0,0-1.616.986h0a.414.414,0,0,1-.543.216l-1.966-.811a.42.42,0,0,1-.233-.537h0a1.593,1.593,0,0,0-.443-1.843,8.6,8.6,0,0,1-1.108-1.1,1.587,1.587,0,0,0-1.838-.443.42.42,0,0,1-.548-.228l-.817-1.96a.432.432,0,0,1,.251-.583,1.575,1.575,0,0,0,.968-1.581c0-.268-.035-.542-.035-.8H14.185a7.008,7.008,0,0,0,.041.91.4.4,0,0,1-.245.437Z" transform="translate(-4.584 -17.063)" fill="#3a1d71"/>
    <path id="Trazado_880585" data-name="Trazado 880585" d="M27.417,49.417A6.417,6.417,0,0,0,33.833,43H32.667a5.25,5.25,0,1,1-10.5,0H21A6.417,6.417,0,0,0,27.417,49.417Z" transform="translate(-7.917 -17.083)" fill="#3a1d71"/>
    <path id="Trazado_880586" data-name="Trazado 880586" d="M32.333,15.583A.583.583,0,0,0,31.75,15H27.083a.583.583,0,0,0-.583.583V29H22.417V19.667a.583.583,0,0,0-.583-.583H17.167a.583.583,0,0,0-.583.583V29H12.5V23.75a.583.583,0,0,0-.583-.583H7.25a.583.583,0,0,0-.583.583V29H2v1.167H37V29H32.333ZM11.333,29h-3.5V24.333h3.5Zm9.917,0h-3.5V20.25h3.5Zm9.917,0h-3.5V16.167h3.5Z" transform="translate(0 -5.417)" fill="#3a1d71"/>
    <path id="Trazado_880587" data-name="Trazado 880587" d="M6.9,15.72l27.137-10.9-1.009,1.8,1.015.583,1.837-3.255a.583.583,0,0,0-.338-.846L31.952,2l-.338,1.167,1.995.583L6.46,14.641Z" transform="translate(-1.858)" fill="#3a1d71"/>
  </g>
</svg>
