<svg xmlns="http://www.w3.org/2000/svg" width="89.609" height="74.735" viewBox="0 0 89.609 74.735">
  <g id="Grupo_1104636" data-name="Grupo 1104636" transform="translate(0 -42.493)">
    <path id="Trazado_880705" data-name="Trazado 880705" d="M92.594,339.306a3.066,3.066,0,0,0,3.063,3.063h15.75a3.066,3.066,0,0,0,3.063-3.063v-4.765a3.066,3.066,0,0,0-3.063-3.063H95.657a3.066,3.066,0,0,0-3.063,3.063Zm2.625-4.765a.438.438,0,0,1,.438-.438h15.75a.438.438,0,0,1,.438.438v4.765a.438.438,0,0,1-.438.438H95.657a.438.438,0,0,1-.438-.438Z" transform="translate(-76.389 -238.409)" fill="#00ffdf"/>
    <path id="Trazado_880706" data-name="Trazado 880706" d="M93.951,191.325h9.211a1.313,1.313,0,0,0,0-2.625H93.951A1.313,1.313,0,0,0,93.951,191.325Z" transform="translate(-76.434 -120.619)" fill="#00ffdf"/>
    <path id="Trazado_880707" data-name="Trazado 880707" d="M93.951,226.325h13.86a1.313,1.313,0,0,0,0-2.625H93.951A1.313,1.313,0,0,0,93.951,226.325Z" transform="translate(-76.434 -149.493)" fill="#00ffdf"/>
    <path id="Trazado_880708" data-name="Trazado 880708" d="M236.35,75.607a1.5,1.5,0,0,0-2.891-.163c0,.015-.009.03-.014.046l-1.191,4.178-1.236-4.191c0-.016-.01-.031-.015-.047a1.5,1.5,0,0,0-2.893.209L226.672,83.6a1.313,1.313,0,0,0,2.584.466l.592-3.281.991,3.357c0,.015.009.03.014.046a1.5,1.5,0,0,0,2.844-.014l.014-.046.956-3.353.631,3.3a1.312,1.312,0,1,0,2.578-.493Z" transform="translate(-186.984 -26.33)" fill="#00ffdf"/>
    <path id="Trazado_880709" data-name="Trazado 880709" d="M168.449,81.72a1.313,1.313,0,0,0-1.849.163,1.944,1.944,0,0,1-.2.206c-1.637,1.336-4.232-.259-4.149-2.3a2.791,2.791,0,0,1,4.329-2.3,1.313,1.313,0,0,0,1.469-2.175,5.425,5.425,0,0,0-8.424,4.479c-.109,4.269,5.235,7.125,8.52,4.258a4.618,4.618,0,0,0,.465-.48A1.313,1.313,0,0,0,168.449,81.72Z" transform="translate(-131.688 -26.31)" fill="#00ffdf"/>
    <path id="Trazado_880710" data-name="Trazado 880710" d="M306.473,78.654c-.953-.351-1.843-.733-2.169-.875a.279.279,0,0,1-.072-.244.564.564,0,0,1,.447-.419,2.428,2.428,0,0,1,1.984.468,1.313,1.313,0,0,0,1.68-2.017,4.984,4.984,0,0,0-4.422-.965,3.164,3.164,0,0,0-2.288,2.559,2.887,2.887,0,0,0,1.288,2.858,1.326,1.326,0,0,0,.182.1c.048.021,1.183.527,2.461,1,.445.164.945.47.887.791-.343,1.123-2.4.7-3.021-.09a1.313,1.313,0,0,0-1.945,1.763c2.083,2.413,6.851,2.252,7.551-1.211C309.26,81.113,308.7,79.477,306.473,78.654Z" transform="translate(-248.435 -26.34)" fill="#00ffdf"/>
    <path id="Trazado_880711" data-name="Trazado 880711" d="M87.771,92.7H85.2a16.224,16.224,0,0,0-1.521-3.663L85.5,87.221a1.841,1.841,0,0,0,0-2.6l-3.588-3.588a1.846,1.846,0,0,0-2.6,0l-.792.792V76.262a1.313,1.313,0,0,0-2.625,0v5.8a16.187,16.187,0,0,0-2.063-.728V78.763A1.84,1.84,0,0,0,72,76.925H66.92a1.84,1.84,0,0,0-1.838,1.838V81.33a16.214,16.214,0,0,0-3.663,1.521L59.6,81.033a1.846,1.846,0,0,0-2.6,0l-3.59,3.589a1.841,1.841,0,0,0,0,2.6l1.817,1.817A16.213,16.213,0,0,0,53.71,92.7H51.144a1.84,1.84,0,0,0-1.838,1.838v5.075a1.84,1.84,0,0,0,1.838,1.838H53.71a16.232,16.232,0,0,0,1.521,3.663l-1.817,1.817a1.824,1.824,0,0,0-.366.527H11.459a6.455,6.455,0,0,0,1.231-3.8V66.307a1.84,1.84,0,0,1,1.838-1.838H74.058A1.84,1.84,0,0,1,75.9,66.307v3.829a1.313,1.313,0,0,0,2.625,0V66.307a4.468,4.468,0,0,0-4.463-4.463h-.152V46.956a4.468,4.468,0,0,0-4.463-4.463h-50.3a4.468,4.468,0,0,0-4.463,4.463v2.183H4.464A4.468,4.468,0,0,0,0,53.6v1.743a1.313,1.313,0,0,0,2.625,0V53.6a1.84,1.84,0,0,1,1.838-1.838H14.68V61.845h-.152a4.468,4.468,0,0,0-4.463,4.463v37.35a3.719,3.719,0,1,1-7.438.077V61.47A1.313,1.313,0,0,0,0,61.47v42.264a6.379,6.379,0,0,0,6.351,6.351H53.968L57,113.12a1.846,1.846,0,0,0,2.6,0l1.817-1.817a16.212,16.212,0,0,0,3.663,1.521v2.566a1.84,1.84,0,0,0,1.838,1.838H72a1.84,1.84,0,0,0,1.838-1.838v-2.566A16.221,16.221,0,0,0,77.5,111.3l1.817,1.817a1.846,1.846,0,0,0,2.6,0l3.59-3.589a1.84,1.84,0,0,0,0-2.6l-1.817-1.817a16.22,16.22,0,0,0,1.521-3.663h2.566a1.84,1.84,0,0,0,1.838-1.838V94.539A1.84,1.84,0,0,0,87.771,92.7ZM17.3,46.956a1.84,1.84,0,0,1,1.838-1.838h50.3a1.84,1.84,0,0,1,1.838,1.838V61.844H17.3ZM86.983,98.827H84.6a1.83,1.83,0,0,0-1.79,1.411,13.609,13.609,0,0,1-1.678,4.04,1.827,1.827,0,0,0,.266,2.261l1.693,1.693-2.475,2.475-1.693-1.693a1.827,1.827,0,0,0-2.261-.267,13.6,13.6,0,0,1-4.04,1.678,1.83,1.83,0,0,0-1.411,1.79V114.6h-3.5v-2.387a1.83,1.83,0,0,0-1.411-1.79,13.6,13.6,0,0,1-4.041-1.678,1.827,1.827,0,0,0-2.26.267L58.3,110.707l-2.475-2.475,1.693-1.693a1.826,1.826,0,0,0,.266-2.261,13.61,13.61,0,0,1-1.678-4.04,1.83,1.83,0,0,0-1.79-1.411H51.931v-3.5h2.387a1.83,1.83,0,0,0,1.79-1.411,13.61,13.61,0,0,1,1.678-4.04,1.827,1.827,0,0,0-.266-2.261l-1.693-1.693L58.3,83.447,60,85.14a1.827,1.827,0,0,0,2.26.266,13.6,13.6,0,0,1,4.04-1.678,1.83,1.83,0,0,0,1.411-1.79V79.551h3.5v2.387a1.83,1.83,0,0,0,1.411,1.79,13.6,13.6,0,0,1,4.041,1.678,1.827,1.827,0,0,0,2.26-.267l1.693-1.693,2.475,2.475-1.693,1.693a1.826,1.826,0,0,0-.266,2.261,13.611,13.611,0,0,1,1.678,4.04,1.83,1.83,0,0,0,1.79,1.411h2.387Z" transform="translate(0)" fill="#00ffdf"/>
    <path id="Trazado_880712" data-name="Trazado 880712" d="M360.2,309.923a7.788,7.788,0,0,0-7.78,7.78c.391,10.307,15.17,10.3,15.559,0A7.788,7.788,0,0,0,360.2,309.923Zm0,12.934a5.154,5.154,0,1,1,5.154-5.154A5.16,5.16,0,0,1,360.2,322.857Z" transform="translate(-290.738 -220.626)" fill="#00ffdf"/>
  </g>
</svg>
