<svg id="Grupo_1099503" data-name="Grupo 1099503" xmlns="http://www.w3.org/2000/svg" width="56.714" height="56.714" viewBox="0 0 56.714 56.714">
  <g id="Page-1" transform="translate(0)">
    <g id="_x30_01---Website-UI">
      <path id="Shape" d="M51.988,0H4.726A4.732,4.732,0,0,0,0,4.726V51.988a4.732,4.732,0,0,0,4.726,4.726H51.988a4.732,4.732,0,0,0,4.726-4.726V4.726A4.732,4.732,0,0,0,51.988,0ZM1.891,5.671H24.576a.945.945,0,0,1,.945.945v1.89a2.836,2.836,0,0,0,2.836,2.836H54.823v1.89H1.891ZM4.726,1.89H51.988a2.836,2.836,0,0,1,2.836,2.836V9.452H28.357a.945.945,0,0,1-.945-.945V6.617a2.836,2.836,0,0,0-2.836-2.836H2.064A2.836,2.836,0,0,1,4.726,1.89ZM51.988,54.823H4.726a2.836,2.836,0,0,1-2.836-2.836V15.124H54.823V51.988A2.836,2.836,0,0,1,51.988,54.823Z" transform="translate(0)" fill="#3a1d71"/>
      <path id="Shape_1_" d="M54.01,76.8h-10.4a.945.945,0,0,0,0,1.89h10.4a.945.945,0,0,0,0-1.89Z" transform="translate(-37.941 -68.293)" fill="#3a1d71"/>
      <path id="Shape_2_" d="M182.611,68.545a.945.945,0,0,0-1.337,0l-.277.277-.277-.277a.945.945,0,0,0-1.337,1.337l.277.277-.277.277a.945.945,0,1,0,1.337,1.337L181,71.5l.277.277a.945.945,0,0,0,1.337-1.337l-.277-.277.277-.277A.945.945,0,0,0,182.611,68.545Z" transform="translate(-159.257 -60.707)" fill="#3a1d71"/>
      <circle id="Oval" cx="0.945" cy="0.945" r="0.945" transform="translate(49.152 4.726)" fill="#3a1d71"/>
      <circle id="Oval_1_" cx="0.945" cy="0.945" r="0.945" transform="translate(45.371 4.726)" fill="#3a1d71"/>
      <circle id="Oval_2_" cx="0.945" cy="0.945" r="0.945" transform="translate(41.59 4.726)" fill="#3a1d71"/>
      <path id="Shape_3_" d="M80.449,153.6H36.969a2.836,2.836,0,0,0-2.836,2.836v13.233a2.836,2.836,0,0,0,2.836,2.836h43.48a2.836,2.836,0,0,0,2.836-2.836V156.436A2.836,2.836,0,0,0,80.449,153.6Zm-17.4,17.014-2.059-3.749,1.5-2.724a.306.306,0,0,1,.517,0l3.556,6.473Zm-2.157,0H56.44l-2.752-5.157,1.681-3.066a.592.592,0,0,1,1.01,0Zm-6.595,0H42.325L47.669,160.6a.73.73,0,0,1,1.286,0Zm27.1-.945a.945.945,0,0,1-.945.945H68.721l-4.064-7.384a2.2,2.2,0,0,0-3.83,0l-.918,1.671L58.03,161.48a2.481,2.481,0,0,0-4.322,0l-1.087,1.985-2-3.753a2.618,2.618,0,0,0-4.62,0l-5.815,10.9H36.969a.945.945,0,0,1-.945-.945V156.436a.945.945,0,0,1,.945-.945h43.48a.945.945,0,0,1,.945.945v13.233Z" transform="translate(-30.352 -136.586)" fill="#3a1d71"/>
      <path id="Shape_4_" d="M362.181,196.267a3.781,3.781,0,1,0,3.781,3.781A3.781,3.781,0,0,0,362.181,196.267Zm0,5.671a1.89,1.89,0,1,1,1.89-1.89A1.89,1.89,0,0,1,362.181,201.938Z" transform="translate(-318.7 -174.527)" fill="#3a1d71"/>
      <path id="Shape_5_" d="M57.791,343.224a.945.945,0,1,0,0-1.89H43.612a.945.945,0,1,0,0,1.89Z" transform="translate(-37.941 -303.525)" fill="#3a1d71"/>
      <path id="Shape_6_" d="M71.969,375.467H45.5a2.836,2.836,0,0,0-2.836,2.836v5.671A2.836,2.836,0,0,0,45.5,386.81H71.969a2.836,2.836,0,0,0,2.836-2.836V378.3A2.836,2.836,0,0,0,71.969,375.467Zm.945,8.507a.945.945,0,0,1-.945.945H45.5a.945.945,0,0,1-.945-.945V378.3a.945.945,0,0,1,.945-.945H71.969a.945.945,0,0,1,.945.945Z" transform="translate(-37.941 -333.877)" fill="#3a1d71"/>
      <path id="Shape_7_" d="M360.264,375.467H352.7a2.836,2.836,0,0,0-2.836,2.836v5.671a2.836,2.836,0,0,0,2.836,2.836h7.562a2.836,2.836,0,0,0,2.836-2.836V378.3A2.836,2.836,0,0,0,360.264,375.467Zm.945,8.507a.945.945,0,0,1-.945.945H352.7a.945.945,0,0,1-.945-.945V378.3a.945.945,0,0,1,.945-.945h7.562a.945.945,0,0,1,.945.945Z" transform="translate(-311.112 -333.877)" fill="#3a1d71"/>
      <path id="Shape_8_" d="M210.471,343.224a.945.945,0,1,0,0-1.89h-4.726a.945.945,0,1,0,0,1.89Z" transform="translate(-182.114 -303.525)" fill="#3a1d71"/>
    </g>
  </g>
</svg>
