<svg xmlns="http://www.w3.org/2000/svg" width="65.65" height="65.65" viewBox="0 0 65.65 65.65">
  <g id="Code_x2C__coding_x2C__mobile_x2C__development" transform="translate(-1 -1)">
    <g id="XMLID_1809_" transform="translate(1 1)">
      <g id="XMLID_1832_" transform="translate(28.448 4.377)">
        <g id="Grupo_1104572" data-name="Grupo 1104572">
          <g id="Grupo_1104571" data-name="Grupo 1104571">
            <path id="Trazado_880674" data-name="Trazado 880674" d="M21.659,5.188H15.094a1.094,1.094,0,1,1,0-2.188h6.565a1.094,1.094,0,1,1,0,2.188Z" transform="translate(-14 -3)" fill="#00ffdf"/>
          </g>
        </g>
      </g>
      <g id="XMLID_1831_" transform="translate(15.318 21.883)">
        <g id="Grupo_1104574" data-name="Grupo 1104574">
          <g id="Grupo_1104573" data-name="Grupo 1104573">
            <path id="Trazado_880675" data-name="Trazado 880675" d="M37.543,54.767H13.471A5.477,5.477,0,0,1,8,49.3v-37.2a1.094,1.094,0,1,1,2.188,0V49.3a3.287,3.287,0,0,0,3.283,3.283H37.543A3.287,3.287,0,0,0,40.825,49.3v-37.2a1.094,1.094,0,1,1,2.188,0V49.3A5.477,5.477,0,0,1,37.543,54.767Z" transform="translate(-8 -11)" fill="#00ffdf"/>
          </g>
        </g>
      </g>
      <g id="XMLID_1830_" transform="translate(15.318)">
        <g id="Grupo_1104576" data-name="Grupo 1104576">
          <g id="Grupo_1104575" data-name="Grupo 1104575">
            <path id="Trazado_880676" data-name="Trazado 880676" d="M41.919,31.637a1.1,1.1,0,0,1-1.094-1.094V6.471a3.287,3.287,0,0,0-3.283-3.283H13.471a3.287,3.287,0,0,0-3.283,3.283V30.543a1.094,1.094,0,0,1-2.188,0V6.471A5.477,5.477,0,0,1,13.471,1H37.543a5.477,5.477,0,0,1,5.471,5.471V30.543A1.1,1.1,0,0,1,41.919,31.637Z" transform="translate(-8 -1)" fill="#00ffdf"/>
          </g>
        </g>
      </g>
      <g id="XMLID_1816_" transform="translate(54.708 8.753)">
        <g id="XMLID_1824_">
          <g id="Grupo_1104578" data-name="Grupo 1104578">
            <g id="Grupo_1104577" data-name="Grupo 1104577">
              <path id="Trazado_880677" data-name="Trazado 880677" d="M27.094,7.3A1.006,1.006,0,0,1,26,6.313V6.094a1.094,1.094,0,1,1,2.188,0,1.193,1.193,0,0,1-1.094,1.2Z" transform="translate(-26 -5)" fill="#00ffdf"/>
            </g>
          </g>
        </g>
        <g id="XMLID_1818_" transform="translate(0 4.377)">
          <g id="Grupo_1104580" data-name="Grupo 1104580">
            <g id="Grupo_1104579" data-name="Grupo 1104579">
              <path id="Trazado_880678" data-name="Trazado 880678" d="M27.094,9.3A1.006,1.006,0,0,1,26,8.313V8.094a1.094,1.094,0,1,1,2.188,0A1.193,1.193,0,0,1,27.094,9.3Z" transform="translate(-26 -7)" fill="#00ffdf"/>
            </g>
          </g>
        </g>
        <g id="XMLID_1817_" transform="translate(0 8.753)">
          <g id="Grupo_1104582" data-name="Grupo 1104582">
            <g id="Grupo_1104581" data-name="Grupo 1104581">
              <path id="Trazado_880679" data-name="Trazado 880679" d="M27.094,11.3A1.006,1.006,0,0,1,26,10.313v-.219a1.094,1.094,0,1,1,2.188,0A1.193,1.193,0,0,1,27.094,11.3Z" transform="translate(-26 -9)" fill="#00ffdf"/>
            </g>
          </g>
        </g>
      </g>
      <g id="XMLID_1820_" transform="translate(8.753 45.736)">
        <g id="XMLID_1823_">
          <g id="Grupo_1104584" data-name="Grupo 1104584">
            <g id="Grupo_1104583" data-name="Grupo 1104583">
              <path id="Trazado_880680" data-name="Trazado 880680" d="M6.094,24.2A1.006,1.006,0,0,1,5,23.213v-.219a1.094,1.094,0,1,1,2.188,0,1.193,1.193,0,0,1-1.094,1.2Z" transform="translate(-5 -21.9)" fill="#00ffdf"/>
            </g>
          </g>
        </g>
        <g id="XMLID_1822_" transform="translate(0 4.377)">
          <g id="Grupo_1104586" data-name="Grupo 1104586">
            <g id="Grupo_1104585" data-name="Grupo 1104585">
              <path id="Trazado_880681" data-name="Trazado 880681" d="M6.094,26.2A1.006,1.006,0,0,1,5,25.213v-.219a1.094,1.094,0,1,1,2.188,0,1.193,1.193,0,0,1-1.094,1.2Z" transform="translate(-5 -23.9)" fill="#00ffdf"/>
            </g>
          </g>
        </g>
        <g id="XMLID_1821_" transform="translate(0 8.753)">
          <g id="Grupo_1104588" data-name="Grupo 1104588">
            <g id="Grupo_1104587" data-name="Grupo 1104587">
              <path id="Trazado_880682" data-name="Trazado 880682" d="M6.094,28.2A1.006,1.006,0,0,1,5,27.213v-.219a1.094,1.094,0,1,1,2.188,0,1.193,1.193,0,0,1-1.094,1.2Z" transform="translate(-5 -25.9)" fill="#00ffdf"/>
            </g>
          </g>
        </g>
      </g>
      <g id="XMLID_1815_" transform="translate(49.238 26.26)">
        <g id="Grupo_1104590" data-name="Grupo 1104590">
          <g id="Grupo_1104589" data-name="Grupo 1104589">
            <path id="Trazado_880683" data-name="Trazado 880683" d="M26.435,43.637a1.044,1.044,0,0,1-.232-.024,1.093,1.093,0,0,1-.838-1.3l.722-3.348a1.091,1.091,0,0,1,.812-.832,10.485,10.485,0,0,0,2.991-1.25,1.094,1.094,0,0,1,1.158.011l2.166,1.385,1.341-1.352L33.17,34.778a1.1,1.1,0,0,1-.015-1.162A10.416,10.416,0,0,0,34.4,30.625a1.1,1.1,0,0,1,.827-.814l2.495-.554V27.382l-2.493-.554a1.1,1.1,0,0,1-.827-.814,10.478,10.478,0,0,0-1.247-2.991,1.088,1.088,0,0,1,.013-1.16l1.387-2.169-1.339-1.339L31.05,19.742a1.089,1.089,0,0,1-1.158.011A10.537,10.537,0,0,0,26.9,18.5a1.09,1.09,0,0,1-.812-.832l-.538-2.484h-.956a1.094,1.094,0,1,1,0-2.188h1.838a1.093,1.093,0,0,1,1.068.864l.584,2.7a12.663,12.663,0,0,1,2.344.98l2.35-1.5a1.1,1.1,0,0,1,1.363.149l2.584,2.582a1.093,1.093,0,0,1,.147,1.363l-1.5,2.35a12.7,12.7,0,0,1,.98,2.348l2.7.6a1.1,1.1,0,0,1,.86,1.07v3.633a1.093,1.093,0,0,1-.858,1.068l-2.7.6a12.62,12.62,0,0,1-.98,2.346l1.5,2.328a1.089,1.089,0,0,1-.142,1.363l-2.584,2.6a1.1,1.1,0,0,1-1.366.151l-2.35-1.5a12.725,12.725,0,0,1-2.344.98l-.584,2.7a1.1,1.1,0,0,1-1.068.867Z" transform="translate(-23.5 -13)" fill="#00ffdf"/>
          </g>
        </g>
      </g>
      <g id="XMLID_1810_" transform="translate(48.141 35.013)">
        <g id="Grupo_1104592" data-name="Grupo 1104592">
          <g id="Grupo_1104591" data-name="Grupo 1104591">
            <path id="Trazado_880684" data-name="Trazado 880684" d="M28.234,29.207a1.093,1.093,0,0,1-.608-2,4.379,4.379,0,0,0-2.436-8.016,4.448,4.448,0,0,0-.875.088,1.095,1.095,0,1,1-.44-2.145A6.753,6.753,0,0,1,25.19,17a6.565,6.565,0,0,1,3.652,12.021,1.091,1.091,0,0,1-.608.186Z" transform="translate(-22.999 -17)" fill="#00ffdf"/>
          </g>
        </g>
      </g>
      <g id="XMLID_1293_" transform="translate(8.753 18.422)">
        <g id="Grupo_1104594" data-name="Grupo 1104594">
          <g id="Grupo_1104593" data-name="Grupo 1104593">
            <path id="Trazado_880685" data-name="Trazado 880685" d="M11.565,21.633A6.566,6.566,0,0,1,7.928,9.6,1.094,1.094,0,1,1,9.14,11.422a4.378,4.378,0,0,0,2.425,8.022,4.256,4.256,0,0,0,.858-.085,1.094,1.094,0,1,1,.431,2.145,6.422,6.422,0,0,1-1.289.129Z" transform="translate(-5 -9.418)" fill="#00ffdf"/>
          </g>
        </g>
      </g>
      <g id="XMLID_1811_" transform="translate(0 8.753)">
        <g id="Grupo_1104596" data-name="Grupo 1104596" transform="translate(0 0)">
          <g id="Grupo_1104595" data-name="Grupo 1104595">
            <path id="Trazado_880686" data-name="Trazado 880686" d="M16.318,35.637H14.48a1.093,1.093,0,0,1-1.068-.864l-.584-2.7a12.662,12.662,0,0,1-2.344-.98l-2.35,1.5a1.093,1.093,0,0,1-1.363-.149L4.186,29.866A1.093,1.093,0,0,1,4.04,28.5l1.5-2.35a12.7,12.7,0,0,1-.98-2.348l-2.7-.6A1.1,1.1,0,0,1,1,22.135V18.5a1.093,1.093,0,0,1,.858-1.068l2.7-.6a12.62,12.62,0,0,1,.98-2.346l-1.5-2.331a1.089,1.089,0,0,1,.142-1.363l2.584-2.6A1.09,1.09,0,0,1,8.134,8.04l2.35,1.5a12.725,12.725,0,0,1,2.344-.98l.584-2.7a1.094,1.094,0,1,1,2.138.462l-.722,3.348a1.091,1.091,0,0,1-.812.832,10.523,10.523,0,0,0-2.994,1.25,1.094,1.094,0,0,1-1.158-.011L7.7,10.359,6.355,11.712,7.74,13.861a1.088,1.088,0,0,1,.015,1.162,10.416,10.416,0,0,0-1.247,2.991,1.1,1.1,0,0,1-.827.814l-2.493.551v1.875l2.493.554a1.1,1.1,0,0,1,.827.814,10.478,10.478,0,0,0,1.247,2.991,1.088,1.088,0,0,1-.013,1.16L6.355,28.94,7.694,30.28l2.169-1.387a1.1,1.1,0,0,1,1.158-.011,10.537,10.537,0,0,0,2.991,1.25,1.09,1.09,0,0,1,.812.832l.538,2.486h.956a1.094,1.094,0,1,1,0,2.188Z" transform="translate(-1 -5)" fill="#00ffdf"/>
          </g>
        </g>
      </g>
      <g id="XMLID_1813_" transform="translate(21.883 27.354)">
        <g id="XMLID_1890_" transform="translate(8.754)">
          <g id="Grupo_1104598" data-name="Grupo 1104598">
            <g id="Grupo_1104597" data-name="Grupo 1104597">
              <path id="Trazado_880687" data-name="Trazado 880687" d="M16.094,24.442a1.11,1.11,0,0,1-.265-.033,1.092,1.092,0,0,1-.8-1.326l2.188-8.753a1.094,1.094,0,1,1,2.123.53l-2.188,8.753a1.09,1.09,0,0,1-1.061.829Z" transform="translate(-15 -13.5)" fill="#00ffdf"/>
            </g>
          </g>
        </g>
        <g id="XMLID_1888_" transform="translate(15.318 0.002)">
          <g id="Grupo_1104600" data-name="Grupo 1104600">
            <g id="Grupo_1104599" data-name="Grupo 1104599">
              <path id="Trazado_880688" data-name="Trazado 880688" d="M19.094,24.441a1.093,1.093,0,0,1-.775-1.867l3.6-3.6-3.6-3.6a1.094,1.094,0,1,1,1.547-1.547L24.246,18.2a1.1,1.1,0,0,1,0,1.547l-4.377,4.377A1.1,1.1,0,0,1,19.094,24.441Z" transform="translate(-18 -13.501)" fill="#00ffdf"/>
            </g>
          </g>
        </g>
        <g id="XMLID_1887_" transform="translate(0 0.002)">
          <g id="Grupo_1104602" data-name="Grupo 1104602">
            <g id="Grupo_1104601" data-name="Grupo 1104601">
              <path id="Trazado_880689" data-name="Trazado 880689" d="M16.471,24.441a1.1,1.1,0,0,1-.775-.319L11.32,19.745a1.1,1.1,0,0,1,0-1.547L15.7,13.821a1.094,1.094,0,1,1,1.547,1.547l-3.6,3.6,3.6,3.6a1.1,1.1,0,0,1,0,1.547A1.083,1.083,0,0,1,16.471,24.441Z" transform="translate(-11 -13.501)" fill="#00ffdf"/>
            </g>
          </g>
        </g>
      </g>
    </g>
  </g>
</svg>
