<svg xmlns="http://www.w3.org/2000/svg" width="35.5" height="34.21" viewBox="0 0 35.5 34.21">
  <g id="Grupo_1104511" data-name="Grupo 1104511" transform="translate(0.25 -9.183)">
    <g id="Grupo_1104510" data-name="Grupo 1104510" transform="translate(0 9.433)">
      <path id="Trazado_880622" data-name="Trazado 880622" d="M33.119,29.792a1.8,1.8,0,0,0,.59-1.336V24.121A1.812,1.812,0,0,0,31.9,22.31H30.8a14.452,14.452,0,0,0-1.271-3.067l.78-.78a1.812,1.812,0,0,0,0-2.56l-3.065-3.065a1.812,1.812,0,0,0-2.561,0l-.78.78a14.457,14.457,0,0,0-3.067-1.272v-1.1a1.812,1.812,0,0,0-1.811-1.809H14.687a1.812,1.812,0,0,0-1.811,1.809v1.1A14.452,14.452,0,0,0,9.81,13.617l-.78-.78a1.813,1.813,0,0,0-1.283-.53,1.793,1.793,0,0,0-1.278.53L3.4,15.9a1.812,1.812,0,0,0,0,2.561l.78.78A14.451,14.451,0,0,0,2.913,22.31h-1.1A1.812,1.812,0,0,0,0,24.121v4.335a1.812,1.812,0,0,0,1.809,1.811h1.1a14.451,14.451,0,0,0,1.271,3.067l-.78.78a1.812,1.812,0,0,0,0,2.561l3.065,3.065a1.812,1.812,0,0,0,2.561,0l.78-.78a14.457,14.457,0,0,0,3.067,1.272v1.1a1.812,1.812,0,0,0,1.811,1.809h4.335a1.812,1.812,0,0,0,1.811-1.809v-1.1a14.578,14.578,0,0,0,2.016-.742,7.062,7.062,0,0,0,8.409,1.335.513.513,0,1,0-.483-.9,6.053,6.053,0,1,1,1.67-1.317.513.513,0,1,0,.766.681,7.057,7.057,0,0,0-.092-9.492Zm-6.031-2.221a10.442,10.442,0,0,0,.08-1.284A10.316,10.316,0,0,0,12.013,17.18a.513.513,0,1,0,.482.905,9.291,9.291,0,0,1,13.527,9.7,7.079,7.079,0,0,0-5.154,6.8c0,.026,0,.052,0,.078a9.162,9.162,0,0,1-1.47.559V29.983a5.87,5.87,0,0,0,.937-10.234c-.233-.159-.941-.643-1.525-.307s-.513,1.12-.485,1.5c0,.037.006.068.006.088v3.223a1.63,1.63,0,0,1-1.479,1.619,1.63,1.63,0,0,1-1.479-1.619V21.031c0-.022,0-.052.006-.09.028-.38.087-1.171-.483-1.5s-1.292.148-1.524.306a5.87,5.87,0,0,0,.937,10.235v5.239a9.289,9.289,0,0,1-3.524-15.964.513.513,0,1,0-.67-.776A10.313,10.313,0,0,0,16.854,36.6a10.187,10.187,0,0,0,4.11-.852,7.029,7.029,0,0,0,1.2,2.919,13.55,13.55,0,0,1-1.976.673.513.513,0,0,0-.385.5v1.5a.786.786,0,0,1-.786.784H14.687a.786.786,0,0,1-.786-.784v-1.5a.513.513,0,0,0-.386-.5,13.426,13.426,0,0,1-3.53-1.463.513.513,0,0,0-.624.078L8.3,39.015a.78.78,0,0,1-.556.229h0a.776.776,0,0,1-.554-.229L4.128,35.948a.787.787,0,0,1,0-1.109l1.058-1.058a.513.513,0,0,0,.078-.624A13.43,13.43,0,0,1,3.8,29.627a.513.513,0,0,0-.5-.386h-1.5a.786.786,0,0,1-.784-.786V24.121a.786.786,0,0,1,.784-.786H3.3a.513.513,0,0,0,.5-.386,13.428,13.428,0,0,1,1.463-3.53.513.513,0,0,0-.078-.624L4.129,17.737a.787.787,0,0,1,0-1.11l3.066-3.066a.776.776,0,0,1,.553-.228h0a.78.78,0,0,1,.556.229L9.362,14.62a.513.513,0,0,0,.624.078,13.43,13.43,0,0,1,3.53-1.463.513.513,0,0,0,.386-.5v-1.5a.786.786,0,0,1,.786-.784h4.335a.786.786,0,0,1,.786.784v1.5a.513.513,0,0,0,.386.5,13.426,13.426,0,0,1,3.53,1.463.513.513,0,0,0,.624-.078l1.059-1.059a.787.787,0,0,1,1.109,0l3.066,3.066a.787.787,0,0,1,0,1.109L28.523,18.8a.513.513,0,0,0-.078.624,13.428,13.428,0,0,1,1.463,3.53.513.513,0,0,0,.5.386h1.5a.786.786,0,0,1,.784.786v4.335a.792.792,0,0,1-.32.63,7.054,7.054,0,0,0-5.276-1.515ZM15,29.157a4.845,4.845,0,0,1-1.049-8.562,1.812,1.812,0,0,1,.408-.224,2.416,2.416,0,0,1,0,.494c0,.066-.009.117-.009.165v3.223a2.658,2.658,0,0,0,2.47,2.645.517.517,0,0,0,.07,0,2.658,2.658,0,0,0,2.47-2.645V21.03c0-.048,0-.1-.009-.164a2.4,2.4,0,0,1,0-.5,1.806,1.806,0,0,1,.41.224,4.846,4.846,0,0,1-1.05,8.562.513.513,0,0,0-.335.481v5.815a9.419,9.419,0,0,1-1.52.123,9.3,9.3,0,0,1-1.518-.125V29.638A.513.513,0,0,0,15,29.157Z" transform="translate(0 -9.433)" fill="#3a1d71" stroke="#3a1d71" stroke-width="0.5"/>
      <path id="Trazado_880623" data-name="Trazado 880623" d="M357.66,325.881a1.761,1.761,0,0,0-2.475.219l-1.785,2.128-.295-.25a1.757,1.757,0,0,0-2.272,2.681l1.642,1.394a1.72,1.72,0,0,0,1.128.417q.078,0,.158-.007a1.716,1.716,0,0,0,1.2-.623l2.918-3.482a1.759,1.759,0,0,0-.217-2.477Zm-.568,1.818-2.919,3.484a.685.685,0,0,1-.5.259.693.693,0,0,1-.536-.171l-1.641-1.393a.732.732,0,0,1,.945-1.117l.688.583a.513.513,0,0,0,.724-.062l2.116-2.523a.734.734,0,0,1,1.031-.091.733.733,0,0,1,.089,1.031Z" transform="translate(-326.274 -303.868)" fill="#3a1d71" stroke="#3a1d71" stroke-width="0.5"/>
    </g>
  </g>
</svg>
