<svg xmlns="http://www.w3.org/2000/svg" xmlns:xlink="http://www.w3.org/1999/xlink" width="118.61" height="233.213" viewBox="0 0 118.61 233.213">
  <defs>
    <clipPath id="clip-path">
      <rect id="Rectángulo_403718" data-name="Rectángulo 403718" width="118.61" height="233.213" transform="translate(0 0)" fill="#12263f"/>
    </clipPath>
    <filter id="Elipse_11723" x="-51.708" y="-22.123" width="336.629" height="335.888" filterUnits="userSpaceOnUse">
      <feOffset dx="9.39" dy="9.39" input="SourceAlpha"/>
      <feGaussianBlur stdDeviation="25.04" result="blur"/>
      <feFlood flood-opacity="0.078"/>
      <feComposite operator="in" in2="blur"/>
      <feComposite in="SourceGraphic"/>
    </filter>
  </defs>
  <g id="Enmascarar_grupo_1098826" data-name="Enmascarar grupo 1098826" clip-path="url(#clip-path)">
    <g transform="matrix(1, 0, 0, 1, 0, 0)" filter="url(#Elipse_11723)">
      <ellipse id="Elipse_11723-2" data-name="Elipse 11723" cx="93.195" cy="92.824" rx="93.195" ry="92.824" transform="translate(14.02 43.61)" fill="#fff" opacity="0.3"/>
    </g>
    <circle id="Elipse_11724" data-name="Elipse 11724" cx="33" cy="33" r="33" transform="translate(74.61 19.358)" fill="none" stroke="#fff" stroke-width="10" opacity="0.4"/>
    <path id="Trazado_879448" data-name="Trazado 879448" d="M163.312,435.524l1.325-1.695-5.158-4.062,5.158-4.062-1.325-1.694L156,429.767Zm14.936-1.695-5.158-4.062,5.158-4.062-1.325-1.694-7.309,5.757,7.309,5.757Zm14.3,0-1.327-1.045-3.83-3.016,5.158-4.062-1.325-1.694-7.309,5.757,7.309,5.757Z" transform="translate(-152.943 -282.314)" fill="#3a1d71" fill-rule="evenodd"/>
  </g>
</svg>
