<svg xmlns="http://www.w3.org/2000/svg" width="35" height="31.603" viewBox="0 0 35 31.603">
  <path id="Trazado_880590" data-name="Trazado 880590" d="M34.521,32.574H31.941V29.648a1.574,1.574,0,0,0-1.572-1.572H27.429v-3.5h2.581a.478.478,0,0,0,.479-.479V19.815a.479.479,0,0,0-.479-.479H27.429V16.253a1.574,1.574,0,0,0-1.572-1.572H17.878V11.454h2.58a.478.478,0,0,0,.479-.479V6.693a.479.479,0,0,0-.479-.479H14.34a.479.479,0,0,0-.479.479v4.284a.479.479,0,0,0,.479.479h2.581v3.227H8.941a1.574,1.574,0,0,0-1.572,1.572v3.081H4.788a.479.479,0,0,0-.479.479V24.1a.478.478,0,0,0,.479.479h2.58v3.5H4.43A1.574,1.574,0,0,0,2.857,29.65v2.926H.479A.478.478,0,0,0,0,33.053v4.284a.479.479,0,0,0,.479.479H6.6a.479.479,0,0,0,.479-.479V33.053a.478.478,0,0,0-.479-.479H3.814V29.648a.616.616,0,0,1,.615-.615h6.836a.616.616,0,0,1,.615.615v2.926H9.5a.478.478,0,0,0-.479.479v4.284a.479.479,0,0,0,.479.479h6.119a.479.479,0,0,0,.479-.479V33.053a.478.478,0,0,0-.479-.479H12.838V29.648a1.574,1.574,0,0,0-1.572-1.572H8.326v-3.5h2.581a.479.479,0,0,0,.479-.479V19.815a.479.479,0,0,0-.479-.479H8.326V16.253a.616.616,0,0,1,.615-.615H25.857a.616.616,0,0,1,.615.615v3.082H23.891a.479.479,0,0,0-.479.479V24.1a.478.478,0,0,0,.479.479h2.581v3.5h-2.94A1.574,1.574,0,0,0,21.96,29.65v2.926H19.379a.478.478,0,0,0-.479.479v4.284a.479.479,0,0,0,.479.479H25.5a.479.479,0,0,0,.479-.479V33.053a.478.478,0,0,0-.479-.479H22.917V29.648a.616.616,0,0,1,.615-.615h6.836a.616.616,0,0,1,.615.615v2.926H28.4a.478.478,0,0,0-.479.479v4.284a.479.479,0,0,0,.479.479h6.119A.479.479,0,0,0,35,37.337V33.053a.478.478,0,0,0-.479-.479Zm-19.7-25.4H19.98V10.5H14.818Zm-8.7,29.688H.957V33.531H6.118Zm9.023,0H9.98V33.531h5.162ZM10.428,23.621H5.267V20.292h5.161ZM24.37,20.292h5.162v3.329H24.37Zm.65,16.566H19.858V33.531H25.02Zm9.023,0H28.882V33.531h5.161Z" transform="translate(0 -6.214)" fill="#3a1d71"/>
</svg>
