<svg xmlns="http://www.w3.org/2000/svg" width="35" height="35" viewBox="0 0 35 35">
  <g id="view-configuration-seting-web_bdesign-adjustment" data-name="view-configuration-seting-web bdesign-adjustment" transform="translate(-2 -2)">
    <path id="Trazado_880237" data-name="Trazado 880237" d="M35.25,2H3.75A1.755,1.755,0,0,0,2,3.75V29.417a1.755,1.755,0,0,0,1.75,1.75h7V35.25A1.755,1.755,0,0,0,12.5,37h14a1.755,1.755,0,0,0,1.75-1.75V31.167h7A1.755,1.755,0,0,0,37,29.417V3.75A1.755,1.755,0,0,0,35.25,2ZM27.083,35.25a.583.583,0,0,1-.583.583h-14a.583.583,0,0,1-.583-.583v-7a.583.583,0,0,1,.583-.583h14a.583.583,0,0,1,.583.583Zm8.75-5.833A.583.583,0,0,1,35.25,30h-7V28.25A1.755,1.755,0,0,0,26.5,26.5h-14a1.755,1.755,0,0,0-1.75,1.75V30h-7a.583.583,0,0,1-.583-.583V7.833H35.833Zm0-22.75H3.167V3.75a.583.583,0,0,1,.583-.583h31.5a.583.583,0,0,1,.583.583Z" fill="#3a1d71"/>
    <path id="Trazado_880238" data-name="Trazado 880238" d="M7.167,6H6.583a.583.583,0,0,0,0,1.167h.583A.583.583,0,1,0,7.167,6Z" transform="translate(-1.667 -1.667)" fill="#3a1d71"/>
    <path id="Trazado_880239" data-name="Trazado 880239" d="M11.167,6h-.583a.583.583,0,0,0,0,1.167h.583a.583.583,0,1,0,0-1.167Z" transform="translate(-3.333 -1.667)" fill="#3a1d71"/>
    <path id="Trazado_880240" data-name="Trazado 880240" d="M15.167,6h-.583a.583.583,0,1,0,0,1.167h.583a.583.583,0,1,0,0-1.167Z" transform="translate(-5 -1.667)" fill="#3a1d71"/>
    <path id="Trazado_880241" data-name="Trazado 880241" d="M42,6H21.583a.583.583,0,1,0,0,1.167H42A.583.583,0,1,0,42,6Z" transform="translate(-7.917 -1.667)" fill="#3a1d71"/>
    <path id="Trazado_880242" data-name="Trazado 880242" d="M34.583,15.167H33.4a2.882,2.882,0,0,0-4.632,0H7.75a1.75,1.75,0,0,0,0,3.5H28.768a2.882,2.882,0,0,0,4.632,0h1.184a1.75,1.75,0,0,0,0-3.5ZM28.225,17.5H7.75a.583.583,0,0,1-.583-.583.554.554,0,0,1,.181-.414.541.541,0,0,1,.4-.169H28.225a2.946,2.946,0,0,0,0,1.167Zm2.858,1.167a1.75,1.75,0,1,1,1.75-1.75A1.75,1.75,0,0,1,31.083,18.667Zm3.9-1.336a.541.541,0,0,1-.4.169h-.642a2.946,2.946,0,0,0,0-1.167h.642a.583.583,0,0,1,.583.583.554.554,0,0,1-.181.414Z" transform="translate(-1.667 -5)" fill="#3a1d71"/>
    <path id="Trazado_880243" data-name="Trazado 880243" d="M34.583,25.167h-11.1a2.882,2.882,0,0,0-4.632,0H7.75a1.75,1.75,0,1,0,0,3.5h11.1a2.882,2.882,0,0,0,4.632,0h11.1a1.75,1.75,0,0,0,0-3.5ZM18.308,27.5H7.75a.583.583,0,0,1-.583-.583.554.554,0,0,1,.181-.414.541.541,0,0,1,.4-.169H18.308A2.946,2.946,0,0,0,18.308,27.5Zm2.858,1.167a1.75,1.75,0,1,1,1.75-1.75A1.75,1.75,0,0,1,21.167,28.667Zm13.819-1.336a.541.541,0,0,1-.4.169H24.025a2.946,2.946,0,0,0,0-1.167H34.583a.583.583,0,0,1,.583.583A.554.554,0,0,1,34.986,27.331Z" transform="translate(-1.667 -9.167)" fill="#3a1d71"/>
    <path id="Trazado_880244" data-name="Trazado 880244" d="M34.583,35.167H13.566a2.882,2.882,0,0,0-4.632,0H7.75a1.75,1.75,0,0,0,0,3.5H8.934a2.882,2.882,0,0,0,4.632,0H34.583a1.75,1.75,0,0,0,0-3.5ZM8.392,37.5H7.75a.583.583,0,0,1-.583-.583.554.554,0,0,1,.181-.414.541.541,0,0,1,.4-.169h.642A2.946,2.946,0,0,0,8.392,37.5Zm2.858,1.167A1.75,1.75,0,1,1,13,36.917a1.75,1.75,0,0,1-1.75,1.75Zm23.736-1.336a.541.541,0,0,1-.4.169H14.108a2.946,2.946,0,0,0,0-1.167H34.583a.583.583,0,0,1,.583.583A.554.554,0,0,1,34.986,37.331Z" transform="translate(-1.667 -13.333)" fill="#3a1d71"/>
    <path id="Trazado_880245" data-name="Trazado 880245" d="M33.532,50.406c-.445-.248-4.4-2.406-6.115-2.406s-5.67,2.158-6.115,2.406a.583.583,0,0,0,0,1.021c.445.248,4.4,2.406,6.115,2.406s5.67-2.158,6.115-2.406a.583.583,0,0,0,0-1.021Zm-6.115,1.677a1.167,1.167,0,1,1,1.167-1.167A1.167,1.167,0,0,1,27.417,52.083Zm-1.994-2.361a2.27,2.27,0,0,0,0,2.388c-.879-.35-1.836-.809-2.591-1.194C23.587,50.532,24.544,50.074,25.423,49.723Zm3.988,2.388a2.27,2.27,0,0,0,0-2.388c.879.35,1.836.809,2.591,1.194C31.247,51.3,30.29,51.759,29.411,52.111Z" transform="translate(-7.917 -19.167)" fill="#3a1d71"/>
  </g>
</svg>
