<svg xmlns="http://www.w3.org/2000/svg" width="35" height="35" viewBox="0 0 35 35">
  <path id="Trazado_880589" data-name="Trazado 880589" d="M24.871,17.435h-5.16a.547.547,0,0,0-.547.547V34.453a.547.547,0,0,0,.547.547h5.16a.547.547,0,0,0,.547-.547V17.982a.547.547,0,0,0-.547-.547Zm-.547,16.471H20.258V18.529h4.067Zm-9.035-14.32h-5.16a.547.547,0,0,0-.547.547v14.32a.547.547,0,0,0,.547.547h5.16a.547.547,0,0,0,.547-.547V20.133A.547.547,0,0,0,15.289,19.586Zm-.547,14.32H10.676V20.68h4.067ZM5.707,10.666H.547A.547.547,0,0,0,0,11.213v23.24A.547.547,0,0,0,.547,35h5.16a.547.547,0,0,0,.547-.547V11.213A.547.547,0,0,0,5.707,10.666ZM5.16,33.906H1.094V11.76H5.16ZM34.453,23.824h-5.16a.547.547,0,0,0-.547.547V34.453a.547.547,0,0,0,.547.547h5.16A.547.547,0,0,0,35,34.453V24.371A.547.547,0,0,0,34.453,23.824Zm-.547,10.082H29.84V24.918h4.067Zm-4.982-14.6a.547.547,0,1,1,.1-1.089l1.045.095-7.884-6.139-9.306,3.016a.547.547,0,0,1-.557-.135L2.739,5.391a.547.547,0,0,1,.777-.77l9.345,9.425,9.262-3a.547.547,0,0,1,.5.089l8.218,6.4-.435-1.424a.547.547,0,1,1,1.046-.32l.94,3.077a.547.547,0,0,1-.523.707l-.049,0ZM16.041,7.158a.415.415,0,0,0,.095-.348c-.031-.253-.188-.563-1.143-.72-1.52-.25-1.875-1.049-1.906-1.676a1.768,1.768,0,0,1,1.443-1.79V2.391a.547.547,0,0,1,1.094,0v.226a2.021,2.021,0,0,1,1.436,1.214.547.547,0,0,1-1.008.423,1.04,1.04,0,0,0-1.234-.577c-.111.025-.662.176-.637.683.006.134.024.491.99.65,1.252.205,1.942.766,2.052,1.667a1.5,1.5,0,0,1-.353,1.2,2.173,2.173,0,0,1-1.245.659v.213a.547.547,0,1,1-1.094,0V8.523a2.027,2.027,0,0,1-1.595-1.472A.547.547,0,1,1,14,6.787a1.065,1.065,0,0,0,1.133.7,1.319,1.319,0,0,0,.912-.331Zm-.965,3.979A5.568,5.568,0,1,0,9.508,5.568,5.575,5.575,0,0,0,15.076,11.137Zm0-10.043A4.475,4.475,0,1,1,10.6,5.568,4.48,4.48,0,0,1,15.076,1.094Z" fill="#3a1d71"/>
</svg>
