<svg xmlns="http://www.w3.org/2000/svg" width="35" height="30.156" viewBox="0 0 35 30.156">
  <path id="Trazado_880588" data-name="Trazado 880588" d="M32.765,61.1h-.216V44.7a1.19,1.19,0,0,0-1.189-1.189H30.6a37.4,37.4,0,0,0,2.542-3.1l.338.251a.886.886,0,0,0,1.412-.686L35,36.313a.885.885,0,0,0-1.168-.865l-3.475,1.169a.885.885,0,0,0-.245,1.551l.556.412c-.5.686-1.034,1.359-1.586,2.006a.513.513,0,1,0,.781.666c.68-.8,1.332-1.635,1.936-2.486a.513.513,0,0,0-.113-.709L30.94,37.5l3.028-1.019-.093,3.194-.539-.4a.513.513,0,0,0-.724.115A36.745,36.745,0,0,1,19.58,50.7,36.743,36.743,0,0,1,2.8,54.768H1.539a.513.513,0,0,1,0-1.026H2.8A35.357,35.357,0,0,0,16.74,50.9a35.378,35.378,0,0,0,11.629-8,.513.513,0,1,0-.738-.713A34.579,34.579,0,0,1,23.5,45.828H19.4a1.19,1.19,0,0,0-1.189,1.189v2.071q-.687.342-1.391.655v-.728a1.19,1.19,0,0,0-1.189-1.189H11.541a1.19,1.19,0,0,0-1.189,1.189v2.871q-.693.155-1.391.282V50.641a1.19,1.19,0,0,0-1.189-1.189H3.678a1.19,1.19,0,0,0-1.189,1.189v2.075h-.95a1.539,1.539,0,1,0,0,3.079h.95V61.1H2.213A2.169,2.169,0,0,0,.047,63.271v1.406a.882.882,0,0,0,.881.881H34.05a.882.882,0,0,0,.881-.881V63.271A2.169,2.169,0,0,0,32.765,61.1ZM19.24,47.016a.163.163,0,0,1,.163-.163h2.656q-1.365.916-2.818,1.7Zm-7.863,2a.163.163,0,0,1,.163-.163h4.093a.163.163,0,0,1,.163.163v1.164a34.545,34.545,0,0,1-4.419,1.46V49.013Zm-7.7,1.465H7.772a.163.163,0,0,1,.163.163v1.695a34.565,34.565,0,0,1-4.419.372V50.641A.163.163,0,0,1,3.678,50.478Zm25.951-5.937h1.73a.163.163,0,0,1,.163.163V61.1H27.1V46.884Q28.418,45.77,29.629,44.541ZM20.05,51.607a37.339,37.339,0,0,0,3.609-2.128v5.464a.513.513,0,1,0,1.026,0V48.77q.708-.507,1.391-1.047V61.1H24.686V57.131a.513.513,0,1,0-1.026,0V61.1H19.24V52.011Q19.648,51.814,20.05,51.607ZM11.378,54.8A37.887,37.887,0,0,0,15.8,53.475V61.1H11.378Zm5.445-1.717q.7-.281,1.391-.59V61.1H16.823ZM3.515,55.787a37.48,37.48,0,0,0,4.419-.348v1.7a.513.513,0,1,0,1.026,0V55.283q.7-.116,1.391-.259V61.1H8.96V59.328a.513.513,0,0,0-1.026,0V61.1H3.515ZM33.9,64.532H1.073V63.271a1.142,1.142,0,0,1,1.14-1.14H32.765a1.142,1.142,0,0,1,1.14,1.14Z" transform="translate(0 -35.402)" fill="#3a1d71"/>
</svg>
