<svg xmlns="http://www.w3.org/2000/svg" width="94" height="94" viewBox="0 0 94 94">
  <g id="Grupo_1104637" data-name="Grupo 1104637" transform="translate(0.333 0.333)">
    <circle id="Elipse_11858" data-name="Elipse 11858" cx="47" cy="47" r="47" transform="translate(-0.333 -0.333)" fill="#6e64c3"/>
    <path id="Trazado_880713" data-name="Trazado 880713" d="M160.852,106.058l-12.869-5.2-22.669,21.966-13.7-10.39-5.195,2.6.067,27.448L139.412,175.4a46.641,46.641,0,0,0,40.893-46.282q0-1.9-.151-3.759Z" transform="translate(-86.972 -82.453)" fill="#5046af"/>
    <path id="Trazado_880714" data-name="Trazado 880714" d="M160.852,106.058l-12.869-5.2-22.669,21.966-13.7-10.39-5.195,2.6.067,27.448,5.195,2.6,13.7-10.39,22.669,21.966,12.869-5.2Zm-47.868,28.51V122.942l6.427,5.813h.067Zm33.708,3.867-12.921-9.68H133.7l12.987-9.68v19.36Z" transform="translate(-86.972 -82.453)" fill="#fff"/>
  </g>
</svg>
