<svg xmlns="http://www.w3.org/2000/svg" width="69.76" height="69.76" viewBox="0 0 69.76 69.76">
  <g id="OUTLINE" transform="translate(-16 -16)">
    <path id="Trazado_880638" data-name="Trazado 880638" d="M82.272,16H19.488A3.492,3.492,0,0,0,16,19.488V69.482a3.492,3.492,0,0,0,3.488,3.488H42.382L39.528,83.434h-2.6V85.76h27.9V83.434h-2.6L59.378,72.97H82.272a3.492,3.492,0,0,0,3.488-3.488V19.488A3.492,3.492,0,0,0,82.272,16ZM59.822,83.434H41.938L44.792,72.97H56.968ZM83.434,69.482a1.164,1.164,0,0,1-1.163,1.163H19.488a1.164,1.164,0,0,1-1.163-1.163V64.832H83.434Zm-44.1-15.649,1.71-1.71,3.5,1.392,3.641-1.509,1.486-3.453h2.418l1.486,3.453,3.641,1.509,3.5-1.392,1.71,1.71-1.392,3.5,1.509,3.641,3.452,1.486v.046H60.106a9.3,9.3,0,0,0-18.452,0H35.765V62.46l3.452-1.486,1.509-3.641Zm18.422,8.673H44a6.975,6.975,0,0,1,13.754,0Zm25.677,0H68.32V60.929l-3.991-1.718-.786-1.9,1.608-4.043L61.277,49.4l-4.043,1.608-1.9-.786-1.718-3.991H48.14L46.422,50.22l-1.9.786L40.482,49.4l-3.874,3.874,1.608,4.043-.786,1.9L33.44,60.929v1.577H18.325V19.488a1.164,1.164,0,0,1,1.163-1.163H82.272a1.164,1.164,0,0,1,1.163,1.163Z" fill="#3a1d71"/>
    <path id="Trazado_880639" data-name="Trazado 880639" d="M289.579,60.789a12.789,12.789,0,1,0-12.789,12.789h1.163V61.952h11.627Zm-13.952,10.4a10.456,10.456,0,0,1-7.008-16.926l7.008,7.008Zm1.644-11.562-7.008-7.008a10.456,10.456,0,0,1,16.926,7.008Z" transform="translate(-211.958 -27.349)" fill="#3a1d71"/>
    <path id="Trazado_880640" data-name="Trazado 880640" d="M376,171.627h1.308a10.33,10.33,0,0,0,10.319-10.319V160H376Zm2.325-9.3h6.911a8.01,8.01,0,0,1-6.911,6.912Z" transform="translate(-307.68 -123.072)" fill="#3a1d71"/>
    <path id="Trazado_880641" data-name="Trazado 880641" d="M80.416,48H59.488A3.492,3.492,0,0,0,56,51.488V67.765a3.492,3.492,0,0,0,3.488,3.488H80.416A3.492,3.492,0,0,0,83.9,67.765V51.488A3.492,3.492,0,0,0,80.416,48Zm1.163,19.765a1.164,1.164,0,0,1-1.163,1.163H59.488a1.164,1.164,0,0,1-1.163-1.163V54.976H81.579Zm0-15.115H58.325V51.488a1.164,1.164,0,0,1,1.163-1.163H80.416a1.164,1.164,0,0,1,1.163,1.163Z" transform="translate(-34.187 -27.349)" fill="#3a1d71"/>
    <path id="Trazado_880642" data-name="Trazado 880642" d="M56,232H69.952v2.325H56Z" transform="translate(-34.187 -184.608)" fill="#3a1d71"/>
    <path id="Trazado_880643" data-name="Trazado 880643" d="M56,264H66.464v2.325H56Z" transform="translate(-34.187 -211.958)" fill="#3a1d71"/>
    <path id="Trazado_880644" data-name="Trazado 880644" d="M56,296H66.464v2.325H56Z" transform="translate(-34.187 -239.307)" fill="#3a1d71"/>
    <path id="Trazado_880645" data-name="Trazado 880645" d="M376,264h11.627v2.325H376Z" transform="translate(-307.68 -211.958)" fill="#3a1d71"/>
    <path id="Trazado_880646" data-name="Trazado 880646" d="M376,296h11.627v2.325H376Z" transform="translate(-307.68 -239.307)" fill="#3a1d71"/>
    <path id="Trazado_880647" data-name="Trazado 880647" d="M90.641,121.319l-2.666-2.666,2.666-2.666L89,114.343l-4.31,4.31,4.31,4.31Z" transform="translate(-58.705 -84.051)" fill="#3a1d71"/>
    <path id="Trazado_880648" data-name="Trazado 880648" d="M0,0H6.261V2.325H0Z" transform="translate(33.507 37.661) rotate(-68.209)" fill="#3a1d71"/>
    <path id="Trazado_880649" data-name="Trazado 880649" d="M179.987,122.963l4.31-4.31-4.31-4.31-1.644,1.644,2.666,2.666-2.666,2.666Z" transform="translate(-138.749 -84.051)" fill="#3a1d71"/>
  </g>
</svg>
