<svg xmlns="http://www.w3.org/2000/svg" width="54.794" height="57.68" viewBox="0 0 54.794 57.68">
  <g id="Account_x2C__mobile_x2C__profile_x2C__setting_x2C__ui_development_x2C__UX_x2C__UI_1_" transform="translate(-2 -1)">
    <g id="XMLID_1282_" transform="translate(2 1)">
      <g id="XMLID_1678_" transform="translate(21.149 3.845)">
        <g id="Grupo_1104605" data-name="Grupo 1104605">
          <g id="Grupo_1104604" data-name="Grupo 1104604">
            <path id="Trazado_880690" data-name="Trazado 880690" d="M19.729,4.923H13.961a.961.961,0,1,1,0-1.923h5.768a.961.961,0,1,1,0,1.923Z" transform="translate(-13 -3)" fill="#3a1d71"/>
          </g>
        </g>
      </g>
      <g id="XMLID_1677_" transform="translate(9.613 19.227)">
        <g id="Grupo_1104607" data-name="Grupo 1104607">
          <g id="Grupo_1104606" data-name="Grupo 1104606">
            <path id="Trazado_880691" data-name="Trazado 880691" d="M32.956,49.453H11.807A4.812,4.812,0,0,1,7,44.646V31.188a.961.961,0,0,1,1.923,0V44.646a2.888,2.888,0,0,0,2.884,2.884H32.956a2.888,2.888,0,0,0,2.884-2.884V11.961a.961.961,0,1,1,1.923,0V44.646A4.812,4.812,0,0,1,32.956,49.453Z" transform="translate(-7 -11)" fill="#3a1d71"/>
          </g>
        </g>
      </g>
      <g id="XMLID_1676_" transform="translate(9.613)">
        <g id="Grupo_1104609" data-name="Grupo 1104609">
          <g id="Grupo_1104608" data-name="Grupo 1104608">
            <path id="Trazado_880692" data-name="Trazado 880692" d="M36.8,8.691a.962.962,0,0,1-.961-.961V5.807a2.888,2.888,0,0,0-2.884-2.884H11.807A2.888,2.888,0,0,0,8.923,5.807V7.729A.961.961,0,0,1,7,7.729V5.807A4.812,4.812,0,0,1,11.807,1H32.956a4.812,4.812,0,0,1,4.807,4.807V7.729A.962.962,0,0,1,36.8,8.691Z" transform="translate(-7 -1)" fill="#3a1d71"/>
          </g>
        </g>
      </g>
      <g id="XMLID_1669_" transform="translate(15.381 44.221)">
        <g id="Grupo_1104611" data-name="Grupo 1104611">
          <g id="Grupo_1104610" data-name="Grupo 1104610">
            <path id="Trazado_880693" data-name="Trazado 880693" d="M18.652,25.923H10.961a.961.961,0,1,1,0-1.923h7.691a.961.961,0,0,1,0,1.923Z" transform="translate(-10 -24)" fill="#3a1d71"/>
          </g>
        </g>
      </g>
      <g id="XMLID_1294_" transform="translate(15.381 48.066)">
        <g id="Grupo_1104613" data-name="Grupo 1104613">
          <g id="Grupo_1104612" data-name="Grupo 1104612">
            <path id="Trazado_880694" data-name="Trazado 880694" d="M24.42,27.923H10.961a.961.961,0,1,1,0-1.923H24.42a.961.961,0,1,1,0,1.923Z" transform="translate(-10 -26)" fill="#3a1d71"/>
          </g>
        </g>
      </g>
      <g id="XMLID_1663_" transform="translate(15.381 40.376)">
        <g id="Grupo_1104615" data-name="Grupo 1104615">
          <g id="Grupo_1104614" data-name="Grupo 1104614">
            <path id="Trazado_880695" data-name="Trazado 880695" d="M28.265,23.923h-17.3a.961.961,0,1,1,0-1.923h17.3a.961.961,0,0,1,0,1.923Z" transform="translate(-10 -22)" fill="#3a1d71"/>
          </g>
        </g>
      </g>
      <g id="XMLID_1647_" transform="translate(8.652 15.381)">
        <g id="Grupo_1104617" data-name="Grupo 1104617">
          <g id="Grupo_1104616" data-name="Grupo 1104616">
            <path id="Trazado_880696" data-name="Trazado 880696" d="M11.307,18.613a4.807,4.807,0,1,1,4.807-4.807A4.812,4.812,0,0,1,11.307,18.613Zm0-7.691a2.884,2.884,0,1,0,2.884,2.884A2.888,2.888,0,0,0,11.307,10.923Z" transform="translate(-6.5 -9)" fill="#3a1d71"/>
          </g>
        </g>
      </g>
      <g id="XMLID_1646_" transform="translate(4.038 26.917)">
        <g id="Grupo_1104619" data-name="Grupo 1104619">
          <g id="Grupo_1104618" data-name="Grupo 1104618">
            <path id="Trazado_880697" data-name="Trazado 880697" d="M13.521,24.613a13.421,13.421,0,0,1-9.111-3.58.96.96,0,0,1-.281-.936A6.686,6.686,0,0,1,10.637,15H16.4a6.69,6.69,0,0,1,6.51,5.1.962.962,0,0,1-.281.936,13.422,13.422,0,0,1-9.113,3.582Zm-7.358-4.6a11.722,11.722,0,0,0,14.716,0,4.769,4.769,0,0,0-4.474-3.09H10.637A4.769,4.769,0,0,0,6.163,20.012Z" transform="translate(-4.1 -15)" fill="#3a1d71"/>
          </g>
        </g>
      </g>
      <g id="XMLID_1645_" transform="translate(0 9.613)">
        <g id="Grupo_1104621" data-name="Grupo 1104621">
          <g id="Grupo_1104620" data-name="Grupo 1104620">
            <path id="Trazado_880698" data-name="Trazado 880698" d="M15.459,32.917A13.459,13.459,0,1,1,28.917,19.459,13.475,13.475,0,0,1,15.459,32.917Zm0-24.995A11.536,11.536,0,1,0,26.995,19.459,11.548,11.548,0,0,0,15.459,7.923Z" transform="translate(-2 -6)" fill="#3a1d71"/>
          </g>
        </g>
      </g>
      <g id="XMLID_1575_" transform="translate(3.845 40.184)">
        <g id="XMLID_1641_">
          <g id="Grupo_1104623" data-name="Grupo 1104623">
            <g id="Grupo_1104622" data-name="Grupo 1104622">
              <path id="Trazado_880699" data-name="Trazado 880699" d="M4.961,23.919A.884.884,0,0,1,4,23.054v-.192a.961.961,0,1,1,1.923,0,1.049,1.049,0,0,1-.961,1.057Z" transform="translate(-4 -21.9)" fill="#3a1d71"/>
            </g>
          </g>
        </g>
        <g id="XMLID_1597_" transform="translate(0 3.845)">
          <g id="Grupo_1104625" data-name="Grupo 1104625">
            <g id="Grupo_1104624" data-name="Grupo 1104624">
              <path id="Trazado_880700" data-name="Trazado 880700" d="M4.961,25.919A.884.884,0,0,1,4,25.054v-.192a.961.961,0,0,1,1.923,0,1.049,1.049,0,0,1-.961,1.057Z" transform="translate(-4 -23.9)" fill="#3a1d71"/>
            </g>
          </g>
        </g>
        <g id="XMLID_1578_" transform="translate(0 7.691)">
          <g id="Grupo_1104627" data-name="Grupo 1104627">
            <g id="Grupo_1104626" data-name="Grupo 1104626">
              <path id="Trazado_880701" data-name="Trazado 880701" d="M4.961,27.919A.884.884,0,0,1,4,27.054v-.192a.961.961,0,0,1,1.923,0,1.049,1.049,0,0,1-.961,1.057Z" transform="translate(-4 -25.9)" fill="#3a1d71"/>
            </g>
          </g>
        </g>
      </g>
      <g id="XMLID_1295_" transform="translate(40.376 23.072)">
        <g id="Grupo_1104629" data-name="Grupo 1104629">
          <g id="Grupo_1104628" data-name="Grupo 1104628">
            <path id="Trazado_880702" data-name="Trazado 880702" d="M25.576,39.917H23.961a.961.961,0,0,1,0-1.923h.84l.471-2.182a.958.958,0,0,1,.713-.731,9.212,9.212,0,0,0,2.628-1.1.961.961,0,0,1,1.017.01l1.9,1.217,1.179-1.188L31.5,32.134a.963.963,0,0,1-.013-1.021,9.152,9.152,0,0,0,1.1-2.628.964.964,0,0,1,.727-.715l2.19-.486V25.636l-2.19-.486a.964.964,0,0,1-.727-.715,9.206,9.206,0,0,0-1.1-2.628.956.956,0,0,1,.012-1.019l1.219-1.905L31.537,17.7l-1.905,1.219a.957.957,0,0,1-1.017.01,9.257,9.257,0,0,0-2.628-1.1.958.958,0,0,1-.713-.731L24.8,14.923h-.84a.961.961,0,0,1,0-1.923h1.615a.961.961,0,0,1,.938.759l.513,2.371a11.125,11.125,0,0,1,2.059.861l2.065-1.321a.963.963,0,0,1,1.2.131l2.271,2.269a.96.96,0,0,1,.129,1.2l-1.321,2.065A11.159,11.159,0,0,1,34.29,23.4l2.374.527a.962.962,0,0,1,.754.938v3.192a.961.961,0,0,1-.754.938l-2.374.527a11.088,11.088,0,0,1-.861,2.061l1.319,2.046a.957.957,0,0,1-.125,1.2L32.352,37.11a.96.96,0,0,1-1.2.133l-2.065-1.321a11.181,11.181,0,0,1-2.059.861l-.513,2.371a.96.96,0,0,1-.938.763Z" transform="translate(-23 -13)" fill="#3a1d71"/>
          </g>
        </g>
      </g>
      <g id="XMLID_1874_" transform="translate(38.507 30.763)">
        <g id="Grupo_1104631" data-name="Grupo 1104631">
          <g id="Grupo_1104630" data-name="Grupo 1104630">
            <path id="Trazado_880703" data-name="Trazado 880703" d="M26.883,28.09a.961.961,0,0,1-.406-1.832,3.846,3.846,0,0,0-1.619-7.335,3.8,3.8,0,0,0-1.494.3.961.961,0,1,1-.75-1.769A5.7,5.7,0,0,1,24.858,17a5.768,5.768,0,0,1,2.43,11,.957.957,0,0,1-.406.09Z" transform="translate(-22.028 -17)" fill="#3a1d71"/>
          </g>
        </g>
      </g>
      <g id="XMLID_1894_" transform="translate(30.763 9.613)">
        <g id="Grupo_1104633" data-name="Grupo 1104633">
          <g id="Grupo_1104632" data-name="Grupo 1104632">
            <path id="Trazado_880704" data-name="Trazado 880704" d="M33.381,13.691H21.845a3.845,3.845,0,0,1,0-7.691H33.381a3.845,3.845,0,1,1,0,7.691ZM21.845,7.923a1.923,1.923,0,1,0,0,3.845H33.381a1.923,1.923,0,1,0,0-3.845Z" transform="translate(-18 -6)" fill="#3a1d71"/>
          </g>
        </g>
      </g>
    </g>
  </g>
</svg>
