<svg xmlns="http://www.w3.org/2000/svg" width="52.661" height="43.402" viewBox="0 0 52.661 43.402">
  <g id="Grupo_1099505" data-name="Grupo 1099505" transform="translate(-1.25 -5.25)">
    <path id="Trazado_874288" data-name="Trazado 874288" d="M50.729,5.25H4.433A3.186,3.186,0,0,0,1.25,8.433V45.47a3.186,3.186,0,0,0,3.183,3.183h46.3a3.186,3.186,0,0,0,3.183-3.183V8.433A3.186,3.186,0,0,0,50.729,5.25ZM4.433,6.986h46.3a1.448,1.448,0,0,1,1.447,1.447v6.076H2.986V8.433A1.448,1.448,0,0,1,4.433,6.986Zm46.3,39.93H4.433A1.448,1.448,0,0,1,2.986,45.47V16.245H52.175V45.47A1.448,1.448,0,0,1,50.729,46.916Z" fill="#3a1d71"/>
    <path id="Trazado_874289" data-name="Trazado 874289" d="M43.1,28.369a2.028,2.028,0,0,0,.741-2.767l-1.489-2.577a2.074,2.074,0,0,0-2.767-.742,1.177,1.177,0,0,1-1.745-1.008,2.028,2.028,0,0,0-2.025-2.025H32.842a2.028,2.028,0,0,0-2.025,2.025,1.175,1.175,0,0,1-1.745,1.008,2.049,2.049,0,0,0-2.767.741L24.816,25.6a2.028,2.028,0,0,0,.741,2.767,1.174,1.174,0,0,1,0,2.016,2.028,2.028,0,0,0-.741,2.767L26.3,35.729a2.05,2.05,0,0,0,2.767.742,1.175,1.175,0,0,1,1.745,1.008A2.028,2.028,0,0,0,32.842,39.5h2.977a2.028,2.028,0,0,0,2.025-2.025,1.173,1.173,0,0,1,1.745-1.008,2.045,2.045,0,0,0,2.767-.741l1.489-2.577a2.028,2.028,0,0,0-.741-2.767,1.173,1.173,0,0,1,0-2.016Zm-.868,3.52a.29.29,0,0,1,.106.4l-1.489,2.577a.292.292,0,0,1-.4.106,2.929,2.929,0,0,0-4.349,2.511.29.29,0,0,1-.289.289H32.842a.29.29,0,0,1-.289-.289A2.927,2.927,0,0,0,28.2,34.968a.291.291,0,0,1-.4-.106l-1.489-2.577a.29.29,0,0,1,.106-.4,2.929,2.929,0,0,0,0-5.023.29.29,0,0,1-.106-.4l1.489-2.577a.29.29,0,0,1,.4-.106,2.925,2.925,0,0,0,4.349-2.511.29.29,0,0,1,.289-.289h2.977a.29.29,0,0,1,.289.289,2.925,2.925,0,0,0,4.349,2.512.291.291,0,0,1,.4.106l1.489,2.577a.29.29,0,0,1-.106.4,2.938,2.938,0,0,0,0,5.023Z" transform="translate(3.667 2.204)" fill="#3a1d71"/>
    <path id="Trazado_874290" data-name="Trazado 874290" d="M33.59,24.25a4.34,4.34,0,1,0,4.34,4.34A4.345,4.345,0,0,0,33.59,24.25Zm0,6.944a2.6,2.6,0,1,1,2.6-2.6A2.607,2.607,0,0,1,33.59,31.194Z" transform="translate(4.407 2.991)" fill="#3a1d71"/>
    <path id="Trazado_874291" data-name="Trazado 874291" d="M32.114,10.986H43.688a.868.868,0,0,0,0-1.736H32.114A.869.869,0,0,0,32.114,10.986Z" transform="translate(4.726 0.63)" fill="#3a1d71"/>
    <circle id="Elipse_11465" data-name="Elipse 11465" cx="0.868" cy="0.868" r="0.868" transform="translate(5.88 9.88)" fill="#3a1d71"/>
    <circle id="Elipse_11466" data-name="Elipse 11466" cx="0.868" cy="0.868" r="0.868" transform="translate(9.352 9.88)" fill="#3a1d71"/>
    <circle id="Elipse_11467" data-name="Elipse 11467" cx="0.868" cy="0.868" r="0.868" transform="translate(12.824 9.88)" fill="#3a1d71"/>
    <path id="Trazado_874292" data-name="Trazado 874292" d="M11.2,36.448,8.346,33.59,11.2,30.731c.764-.764-.443-2.012-1.228-1.227L6.5,32.976a.868.868,0,0,0,0,1.227l3.472,3.472C10.745,38.444,12.023,37.267,11.2,36.448Z" transform="translate(0.787 3.778)" fill="#3a1d71"/>
    <path id="Trazado_874293" data-name="Trazado 874293" d="M18.732,29.5c-.769-.769-2.021.434-1.227,1.227l2.858,2.858L17.5,36.448c-.772.773.445,2.01,1.228,1.227L22.2,34.2a.868.868,0,0,0,0-1.227Z" transform="translate(2.518 3.779)" fill="#3a1d71"/>
    <path id="Trazado_874294" data-name="Trazado 874294" d="M15.689,29.343a.793.793,0,0,0-1.079.495L12.3,36.782a.868.868,0,0,0,1.647.55l2.315-6.944a.827.827,0,0,0-.568-1.045Z" transform="translate(1.731 3.783)" fill="#3a1d71"/>
  </g>
</svg>
