<svg id="Grupo_1104544" data-name="Grupo 1104544" xmlns="http://www.w3.org/2000/svg" width="71.073" height="70.24" viewBox="0 0 71.073 70.24">
  <g id="Grupo_1104533" data-name="Grupo 1104533" transform="translate(41.638 35.148)">
    <g id="Grupo_1104532" data-name="Grupo 1104532">
      <path id="Trazado_880650" data-name="Trazado 880650" d="M305.784,266.217a2.671,2.671,0,1,1,3.054-2.643,1.388,1.388,0,0,0,2.776,0,5.523,5.523,0,0,0-4.442-5.263v-.722a1.388,1.388,0,1,0-2.776,0v.722a5.523,5.523,0,0,0-4.442,5.263,5.643,5.643,0,0,0,5.83,5.419,2.671,2.671,0,1,1-3.054,2.643,1.388,1.388,0,0,0-2.776,0A5.523,5.523,0,0,0,304.4,276.9v.6a1.388,1.388,0,1,0,2.776,0v-.6a5.523,5.523,0,0,0,4.442-5.263A5.643,5.643,0,0,0,305.784,266.217Z" transform="translate(-299.954 -256.201)" fill="#00ffdf"/>
    </g>
  </g>
  <g id="Grupo_1104535" data-name="Grupo 1104535" transform="translate(53.294 30.232)">
    <g id="Grupo_1104534" data-name="Grupo 1104534">
      <path id="Trazado_880651" data-name="Trazado 880651" d="M393.3,227.461a18.087,18.087,0,0,0-7.388-6.538,1.388,1.388,0,1,0-1.2,2.5,15.283,15.283,0,0,1,6.883,20.932,1.388,1.388,0,1,0,2.451,1.3,18.066,18.066,0,0,0-.743-18.2Z" transform="translate(-383.924 -220.785)" fill="#00ffdf"/>
    </g>
  </g>
  <g id="Grupo_1104537" data-name="Grupo 1104537" transform="translate(48.169 28.596)">
    <g id="Grupo_1104536" data-name="Grupo 1104536">
      <path id="Trazado_880652" data-name="Trazado 880652" d="M348.482,209h-.093a1.388,1.388,0,1,0,0,2.776h.087a1.388,1.388,0,0,0,.006-2.776Z" transform="translate(-347 -209.001)" fill="#00ffdf"/>
    </g>
  </g>
  <g id="Grupo_1104539" data-name="Grupo 1104539" transform="translate(29.429 37.44)">
    <g id="Grupo_1104538" data-name="Grupo 1104538">
      <path id="Trazado_880653" data-name="Trazado 880653" d="M223.441,295.684a15.283,15.283,0,0,1-6.883-20.932,1.388,1.388,0,1,0-2.451-1.3,18.054,18.054,0,0,0,8.131,24.738,1.388,1.388,0,1,0,1.2-2.5Z" transform="translate(-212.002 -272.711)" fill="#00ffdf"/>
    </g>
  </g>
  <g id="Grupo_1104541" data-name="Grupo 1104541" transform="translate(43.918 61.911)">
    <g id="Grupo_1104540" data-name="Grupo 1104540">
      <path id="Trazado_880654" data-name="Trazado 880654" d="M317.853,449h-.08a1.388,1.388,0,0,0-.013,2.776h.093a1.388,1.388,0,1,0,0-2.776Z" transform="translate(-316.378 -448.999)" fill="#00ffdf"/>
    </g>
  </g>
  <g id="Grupo_1104543" data-name="Grupo 1104543" transform="translate(0 0)">
    <g id="Grupo_1104542" data-name="Grupo 1104542">
      <path id="Trazado_880655" data-name="Trazado 880655" d="M53.778,26.9a6.372,6.372,0,0,0-.617-1.134h3.614a6.385,6.385,0,1,0,0-12.771H45.659A6.381,6.381,0,0,0,40.4,3H6.385a6.385,6.385,0,1,0,0,12.771H17.5a6.368,6.368,0,0,0,0,7.218h-3.62A6.382,6.382,0,0,0,9.913,34.372a6.374,6.374,0,0,0,0,9.995,6.374,6.374,0,0,0,0,9.995,6.382,6.382,0,0,0,3.968,11.383H30.241A23.593,23.593,0,1,0,53.778,26.9Zm3-11.129a3.609,3.609,0,1,1,0,7.218H22.766a3.609,3.609,0,1,1,0-7.218ZM6.385,12.995a3.609,3.609,0,0,1,0-7.218H40.4a3.609,3.609,0,1,1,0,7.218Zm7.5,12.771h34.01a3.607,3.607,0,0,1,1.575.363c-.657-.055-1.32-.085-1.991-.085a23.525,23.525,0,0,0-16.7,6.941H13.881a3.609,3.609,0,1,1,0-7.218Zm0,9.995H28.4a23.531,23.531,0,0,0-3.568,7.218H13.881a3.609,3.609,0,1,1,0-7.218Zm0,9.995H24.2a23.617,23.617,0,0,0-.086,7.218H13.881a3.609,3.609,0,1,1,0-7.218Zm0,17.213a3.609,3.609,0,0,1,0-7.218h10.8a23.506,23.506,0,0,0,3.331,7.218Zm33.593,7.5A20.822,20.822,0,1,1,68.3,49.642,20.846,20.846,0,0,1,47.475,70.464Z" transform="translate(0 -3)" fill="#00ffdf"/>
    </g>
  </g>
</svg>
