<svg xmlns="http://www.w3.org/2000/svg" width="58.541" height="58.54" viewBox="0 0 58.541 58.54">
  <g id="Grupo_1104568" data-name="Grupo 1104568" transform="translate(-8.27 -8.272)">
    <g id="Grupo_1104567" data-name="Grupo 1104567" transform="translate(8.27 8.272)">
      <g id="Grupo_1104559" data-name="Grupo 1104559" transform="translate(0.829)">
        <path id="Trazado_880665" data-name="Trazado 880665" d="M34.713,36.388a3.24,3.24,0,0,1-2.3-.953l-.18-.18a1.743,1.743,0,0,0-1.988-.346,13.874,13.874,0,0,1-6.28,1.478,14.07,14.07,0,0,1-14.11-13.92A14.085,14.085,0,0,1,23.931,8.275c.047,0,.138,0,.228,0A14.157,14.157,0,0,1,37.966,22.478V33.132a3.257,3.257,0,0,1-3.254,3.256Zm-3.722-3.755a3.84,3.84,0,0,1,2.726,1.136l.18.18a1.168,1.168,0,0,0,1.257.251,1.152,1.152,0,0,0,.713-1.066V22.447A12.059,12.059,0,0,0,24.16,10.373l-.227,0-.268,0a11.994,11.994,0,0,0-11.71,12.054A12,12,0,0,0,29.3,33.031a3.793,3.793,0,0,1,1.688-.4Zm-7.027-.654-.007-1.05v1.05h0a9.7,9.7,0,0,1-9.692-9.552,9.493,9.493,0,0,1,2.727-6.834,9.889,9.889,0,0,1,6.982-2.911,9.678,9.678,0,0,1,9.586,9.746v8.31l-1.273-.276a6.143,6.143,0,0,0-4.014.507,9.5,9.5,0,0,1-4.306,1.011Zm.007-17.2a7.773,7.773,0,0,0-5.489,2.288,7.3,7.3,0,0,0-2.119,5.335,7.593,7.593,0,0,0,7.591,7.472h0v1.05l.007-1.05a7.429,7.429,0,0,0,3.365-.788,8.222,8.222,0,0,1,4.127-.855v-5.8a7.507,7.507,0,0,0-2.192-5.409,7.323,7.323,0,0,0-5.293-2.246Z" transform="translate(-9.849 -8.272)" fill="#00ffdf"/>
      </g>
      <g id="Grupo_1104560" data-name="Grupo 1104560" transform="translate(9.443 10.804)">
        <path id="Trazado_880666" data-name="Trazado 880666" d="M33.9,35.351H29.492a3.254,3.254,0,0,1-.042-6.508H33.9a3.254,3.254,0,1,1,0,6.509Zm-4.409-4.408A1.106,1.106,0,0,0,28.35,32.1a1.119,1.119,0,0,0,1.183,1.154H33.9a1.153,1.153,0,1,0,0-2.307Z" transform="translate(-26.249 -28.842)" fill="#00ffdf"/>
      </g>
      <g id="Grupo_1104561" data-name="Grupo 1104561" transform="translate(0 29.588)">
        <path id="Trazado_880667" data-name="Trazado 880667" d="M22.1,92.729h0A14.1,14.1,0,0,1,8.273,78.646a13.765,13.765,0,0,1,4.033-9.779A13.871,13.871,0,0,1,22.1,64.606c.126,0,.253,0,.38.006H33.132a3.255,3.255,0,0,1,2.3,5.557l-.179.179a1.722,1.722,0,0,0-.345,1.986,13.9,13.9,0,0,1,1.477,6.282,14.067,14.067,0,0,1-13.92,14.11c-.108,0-.235,0-.363,0ZM22.1,66.706a11.76,11.76,0,0,0-8.291,3.63,11.867,11.867,0,0,0-.016,16.68A11.775,11.775,0,0,0,22.1,90.627h0c.107,0,.214,0,.321,0a12.006,12.006,0,0,0,10.6-17.35,3.819,3.819,0,0,1,.738-4.412l.179-.179a1.149,1.149,0,0,0,.339-.818,1.134,1.134,0,0,0-.088-.438,1.149,1.149,0,0,0-1.067-.715H22.446C22.309,66.708,22.2,66.706,22.1,66.706Zm.221,21.61a9.646,9.646,0,0,1-6.771-16.494,9.593,9.593,0,0,1,6.785-2.8h8.407L30.463,70.3a6.1,6.1,0,0,0,.5,4.013A9.522,9.522,0,0,1,31.98,78.62a9.7,9.7,0,0,1-9.554,9.7Zm.015-17.195a7.55,7.55,0,0,0-6.966,10.428,7.406,7.406,0,0,0,6.95,4.667H22.4a7.594,7.594,0,0,0,7.475-7.6,7.446,7.446,0,0,0-.789-3.37,8.208,8.208,0,0,1-.852-4.127Z" transform="translate(-8.27 -64.606)" fill="#00ffdf"/>
      </g>
      <g id="Grupo_1104562" data-name="Grupo 1104562" transform="translate(10.807 38.19)">
        <path id="Trazado_880668" data-name="Trazado 880668" d="M32.1,91.891a3.21,3.21,0,0,1-3.253-3.2V84.238a3.254,3.254,0,0,1,6.509,0v4.41A3.221,3.221,0,0,1,32.1,91.891Zm0-8.807a1.154,1.154,0,0,0-1.153,1.153v4.41A1.106,1.106,0,0,0,32.1,89.79a1.119,1.119,0,0,0,1.155-1.183V84.238A1.155,1.155,0,0,0,32.1,83.085Z" transform="translate(-28.846 -80.984)" fill="#00ffdf"/>
      </g>
      <g id="Grupo_1104563" data-name="Grupo 1104563" transform="translate(29.592 30.423)">
        <path id="Trazado_880669" data-name="Trazado 880669" d="M78.425,94.312A14.156,14.156,0,0,1,64.617,80.105l0-10.654a3.255,3.255,0,0,1,5.556-2.3l.179.178a1.736,1.736,0,0,0,1.988.347,13.9,13.9,0,0,1,6.281-1.477,14.065,14.065,0,0,1,14.11,13.92,14.094,14.094,0,0,1-13.81,14.2h0l-.267,0c-.046,0-.135,0-.225,0ZM67.87,68.3a1.157,1.157,0,0,0-1.155,1.154l0,10.686A12.058,12.058,0,0,0,78.425,92.211l.224,0,.268,0h0A11.994,11.994,0,0,0,90.627,80.156a12.006,12.006,0,0,0-17.35-10.6,3.809,3.809,0,0,1-4.412-.738l-.178-.177a1.148,1.148,0,0,0-.817-.34ZM78.611,89.9a9.681,9.681,0,0,1-9.586-9.746V71.844l1.273.276a6.133,6.133,0,0,0,4.013-.506A9.526,9.526,0,0,1,78.625,70.6a9.7,9.7,0,0,1,9.7,9.555,9.489,9.489,0,0,1-2.726,6.832A9.887,9.887,0,0,1,78.611,89.9ZM71.126,74.347v5.8a7.5,7.5,0,0,0,2.193,5.408A7.321,7.321,0,0,0,78.611,87.8,7.774,7.774,0,0,0,84.1,85.513a7.3,7.3,0,0,0,2.119-5.333,7.59,7.59,0,0,0-7.589-7.475,7.453,7.453,0,0,0-3.377.788A8.181,8.181,0,0,1,71.126,74.347Z" transform="translate(-64.611 -66.195)" fill="#00ffdf"/>
      </g>
      <g id="Grupo_1104564" data-name="Grupo 1104564" transform="translate(38.193 41.226)">
        <path id="Trazado_880670" data-name="Trazado 880670" d="M88.671,93.273h-4.43a3.254,3.254,0,1,1,0-6.509H88.65a3.254,3.254,0,0,1,.041,6.508Zm-.062-4.409H84.241a1.153,1.153,0,1,0,0,2.307h4.386a1.154,1.154,0,1,0-.018-2.308Z" transform="translate(-80.986 -86.764)" fill="#00ffdf"/>
      </g>
      <g id="Grupo_1104565" data-name="Grupo 1104565" transform="translate(30.424 0.827)">
        <path id="Trazado_880671" data-name="Trazado 880671" d="M80.486,37.97c-.126,0-.253,0-.38-.006l-10.653,0a3.255,3.255,0,0,1-2.3-5.556l.178-.179a1.722,1.722,0,0,0,.348-1.988,13.89,13.89,0,0,1-1.478-6.28A14.07,14.07,0,0,1,80.115,9.852c.107,0,.235-.005.363-.005A14.1,14.1,0,0,1,94.31,23.929,14.163,14.163,0,0,1,80.486,37.97Zm-.348-2.106c.137,0,.243.005.348.005A12.061,12.061,0,0,0,92.21,23.931,11.984,11.984,0,0,0,80.157,11.953,12,12,0,0,0,69.554,29.3a3.818,3.818,0,0,1-.74,4.412l-.177.178a1.153,1.153,0,0,0-.251,1.261,1.151,1.151,0,0,0,1.066.711Zm.113-2.307h-8.4l.275-1.273a6.114,6.114,0,0,0-.506-4.015,9.5,9.5,0,0,1-1.011-4.315,9.692,9.692,0,0,1,9.552-9.692h.108a9.644,9.644,0,0,1,6.769,16.491,9.579,9.579,0,0,1-6.784,2.8Zm-5.9-2.1h5.9a7.552,7.552,0,0,0,6.965-10.428,7.4,7.4,0,0,0-6.949-4.665H80.18a7.586,7.586,0,0,0-7.472,7.592,7.415,7.415,0,0,0,.788,3.373,8.228,8.228,0,0,1,.852,4.128Z" transform="translate(-66.196 -9.847)" fill="#00ffdf"/>
      </g>
      <g id="Grupo_1104566" data-name="Grupo 1104566" transform="translate(41.227 9.442)">
        <path id="Trazado_880672" data-name="Trazado 880672" d="M90.019,37.156A3.259,3.259,0,0,1,86.764,33.9V29.491a3.254,3.254,0,0,1,6.508-.041V33.9A3.259,3.259,0,0,1,90.019,37.156Zm0-8.807a1.12,1.12,0,0,0-1.156,1.183V33.9a1.153,1.153,0,1,0,2.307,0V29.49A1.1,1.1,0,0,0,90.019,28.349Z" transform="translate(-86.764 -26.248)" fill="#00ffdf"/>
      </g>
    </g>
  </g>
</svg>
