<svg xmlns="http://www.w3.org/2000/svg" width="64.044" height="60.745" viewBox="0 0 64.044 60.745">
  <path id="Trazado_880673" data-name="Trazado 880673" d="M46.781,73.1,42.24,75.721a3.317,3.317,0,1,0,1.035,1.788l4.54-2.621A1.033,1.033,0,0,0,46.781,73.1Zm-6.76,6.353a1.258,1.258,0,1,1,1.258-1.258A1.259,1.259,0,0,1,40.022,79.452Zm31.36-6.416-4.632-1.783a27.422,27.422,0,0,0-2.922-7.048l2.016-4.539a1.033,1.033,0,0,0-.214-1.15l-1.3-1.3a2.12,2.12,0,0,0,.114-.686V32.76H66.9a1.577,1.577,0,0,0,1.2-2.6L60.6,21.33a1.575,1.575,0,0,0-1.2-.557h0a1.574,1.574,0,0,0-1.2.557l-7.5,8.832a1.577,1.577,0,0,0,1.2,2.6h2.46V54.232l-.354.157a27.428,27.428,0,0,0-7.045-2.921L45.18,46.834a1.034,1.034,0,0,0-.119-.218V39.36H47.52a1.577,1.577,0,0,0,1.2-2.6l-7.5-8.832a1.577,1.577,0,0,0-2.405,0l-7.5,8.832a1.577,1.577,0,0,0,1.2,2.6h2.46v7.256a1.031,1.031,0,0,0-.119.217L33.08,51.468a27.427,27.427,0,0,0-7.045,2.921l-.354-.157V45.961h2.46a1.577,1.577,0,0,0,1.2-2.6l-7.5-8.832a1.578,1.578,0,0,0-2.405,0l-7.5,8.832a1.577,1.577,0,0,0,1.2,2.6H15.6V56.527a2.117,2.117,0,0,0,.114.686l-1.3,1.3a1.033,1.033,0,0,0-.214,1.15l2.017,4.54A27.424,27.424,0,0,0,13.3,71.253L8.662,73.037A1.033,1.033,0,0,0,8,74v4.194a1.033,1.033,0,0,0,1.033,1.033H27.656a1.033,1.033,0,1,0,0-2.066h-1.19a13.493,13.493,0,0,1,1.3-4.85l1.03.595a1.033,1.033,0,1,0,1.033-1.789L28.8,70.525a13.707,13.707,0,0,1,3.549-3.549L32.944,68a1.033,1.033,0,0,0,1.789-1.033l-.595-1.03a13.491,13.491,0,0,1,4.85-1.3v1.191a1.033,1.033,0,1,0,2.066,0V64.638a13.492,13.492,0,0,1,4.85,1.3l-.595,1.03A1.033,1.033,0,1,0,47.1,68l.593-1.026a13.707,13.707,0,0,1,3.549,3.549l-1.026.593a1.033,1.033,0,1,0,1.033,1.789l1.03-.595a13.491,13.491,0,0,1,1.3,4.85h-1.19a1.033,1.033,0,0,0,0,2.066H71.011a1.033,1.033,0,0,0,1.033-1.033V74a1.033,1.033,0,0,0-.662-.964ZM55.4,30.694H52.958L59.4,23.105l6.444,7.589H63.408a1.033,1.033,0,0,0-1.033,1.033V55.261L59.7,52.586a1.033,1.033,0,0,0-1.15-.214l-2.121.942V31.727A1.033,1.033,0,0,0,55.4,30.694Zm-21.817,6.6,6.443-7.589,6.443,7.589H44.028A1.033,1.033,0,0,0,43,38.327v7.845H37.049V38.327a1.033,1.033,0,0,0-1.033-1.033Zm-16.943,6.6H14.2l6.443-7.589,6.443,7.589H24.648a1.033,1.033,0,0,0-1.033,1.033v8.386l-2.121-.942a1.033,1.033,0,0,0-1.15.214l-2.676,2.675V44.928a1.033,1.033,0,0,0-1.033-1.033ZM69.978,77.161H55.648a15.66,15.66,0,0,0-31.252,0H10.066V74.71l4.473-1.722a1.033,1.033,0,0,0,.634-.725,25.371,25.371,0,0,1,3.085-7.442,1.033,1.033,0,0,0,.064-.961l-1.947-4.384L21.3,54.548,25.688,56.5a1.033,1.033,0,0,0,.961-.065,25.374,25.374,0,0,1,7.442-3.085,1.033,1.033,0,0,0,.725-.634l1.722-4.473h6.969l1.722,4.473a1.033,1.033,0,0,0,.725.634,25.374,25.374,0,0,1,7.442,3.085,1.033,1.033,0,0,0,.961.065l4.384-1.947,4.928,4.928-1.946,4.382a1.033,1.033,0,0,0,.065.961,25.371,25.371,0,0,1,3.086,7.444,1.033,1.033,0,0,0,.634.725l4.472,1.722Z" transform="translate(-8 -20.773)" fill="#00ffdf"/>
</svg>
