<svg xmlns="http://www.w3.org/2000/svg" width="57.308" height="57.31" viewBox="0 0 57.308 57.31">
  <g id="Outline" transform="translate(-16 -15.981)">
    <g id="Hosting-server-cloud" transform="translate(16 15.981)">
      <path id="Trazado_880595" data-name="Trazado 880595" d="M176,160h11.462v1.91H176Z" transform="translate(-156.897 -142.805)" fill="#00ffdf"/>
      <path id="Trazado_880596" data-name="Trazado 880596" d="M288,160h1.91v1.91H288Z" transform="translate(-255.525 -142.805)" fill="#00ffdf"/>
      <path id="Trazado_880597" data-name="Trazado 880597" d="M320,160h1.91v1.91H320Z" transform="translate(-283.705 -142.805)" fill="#00ffdf"/>
      <path id="Trazado_880598" data-name="Trazado 880598" d="M176,224h11.462v1.91H176Z" transform="translate(-156.897 -199.164)" fill="#00ffdf"/>
      <path id="Trazado_880599" data-name="Trazado 880599" d="M288,224h1.91v1.91H288Z" transform="translate(-255.525 -199.164)" fill="#00ffdf"/>
      <path id="Trazado_880600" data-name="Trazado 880600" d="M320,224h1.91v1.91H320Z" transform="translate(-283.705 -199.164)" fill="#00ffdf"/>
      <path id="Trazado_880601" data-name="Trazado 880601" d="M176,288h11.462v1.91H176Z" transform="translate(-156.897 -255.523)" fill="#00ffdf"/>
      <path id="Trazado_880602" data-name="Trazado 880602" d="M288,288h1.91v1.91H288Z" transform="translate(-255.525 -255.523)" fill="#00ffdf"/>
      <path id="Trazado_880603" data-name="Trazado 880603" d="M320,288h1.91v1.91H320Z" transform="translate(-283.705 -255.523)" fill="#00ffdf"/>
      <path id="Trazado_880604" data-name="Trazado 880604" d="M69.488,55.144a3.827,3.827,0,0,0-3.7,2.865H55.16V54.189a2.869,2.869,0,0,0,2.865-2.865V48.458h5.731A9.551,9.551,0,1,0,62.2,29.482a18.151,18.151,0,0,0-33.563-3.888,11.614,11.614,0,0,0-1.175-.06,11.462,11.462,0,0,0,0,22.923h3.821v2.865a2.869,2.869,0,0,0,2.865,2.865v3.821H23.52a3.821,3.821,0,1,0,0,1.91H35.1a.955.955,0,0,0,.955-.955V54.189h1.91V61.83H30.327a.955.955,0,0,0-.955.955v2.986a3.821,3.821,0,1,0,1.91,0V63.74h7.641a.955.955,0,0,0,.955-.955v-8.6H43.7v9.672a3.821,3.821,0,1,0,1.91,0V54.189H49.43v8.6a.955.955,0,0,0,.955.955h7.641v2.031a3.821,3.821,0,1,0,1.91,0V62.785a.955.955,0,0,0-.955-.955H51.34V54.189h1.91v4.776a.955.955,0,0,0,.955.955H65.788a3.821,3.821,0,1,0,3.7-4.776ZM19.821,60.875a1.91,1.91,0,1,1,1.91-1.91A1.91,1.91,0,0,1,19.821,60.875Zm12.417,8.6a1.91,1.91,0,1,1-1.91-1.91A1.91,1.91,0,0,1,32.237,69.471Zm14.327-1.91a1.91,1.91,0,1,1-1.91-1.91A1.91,1.91,0,0,1,46.564,67.561Zm14.327,1.91a1.91,1.91,0,1,1-1.91-1.91A1.91,1.91,0,0,1,60.891,69.471Zm-27.7-33.43V32.221a.956.956,0,0,1,.955-.955H55.16a.956.956,0,0,1,.955.955v3.821A.956.956,0,0,1,55.16,37H34.148A.956.956,0,0,1,33.192,36.041Zm0,7.641V39.862a.956.956,0,0,1,.955-.955H55.16a.956.956,0,0,1,.955.955v3.821a.956.956,0,0,1-.955.955H34.148A.956.956,0,0,1,33.192,43.682ZM17.91,37a9.562,9.562,0,0,1,9.551-9.551,9.67,9.67,0,0,1,1.566.127.954.954,0,0,0,1.013-.526,16.242,16.242,0,0,1,30.511,3.763.955.955,0,0,0,1.189.727,7.641,7.641,0,1,1,2.017,15.012h-5.9a2.867,2.867,0,0,0-.568-.955,2.853,2.853,0,0,0,.732-1.91V39.862a2.853,2.853,0,0,0-.732-1.91,2.853,2.853,0,0,0,.732-1.91V32.221a2.869,2.869,0,0,0-2.865-2.865H34.148a2.869,2.869,0,0,0-2.865,2.865v3.821a2.853,2.853,0,0,0,.732,1.91,2.853,2.853,0,0,0-.732,1.91v3.821a2.853,2.853,0,0,0,.732,1.91,2.867,2.867,0,0,0-.568.955H27.462A9.562,9.562,0,0,1,17.91,37ZM33.192,51.324V47.5a.956.956,0,0,1,.955-.955H55.16a.956.956,0,0,1,.955.955v3.821a.956.956,0,0,1-.955.955H34.148a.956.956,0,0,1-.955-.955Zm36.3,9.551a1.91,1.91,0,1,1,1.91-1.91A1.91,1.91,0,0,1,69.488,60.875Z" transform="translate(-16 -15.981)" fill="#00ffdf"/>
    </g>
  </g>
</svg>
