<svg xmlns="http://www.w3.org/2000/svg" width="85" height="80" viewBox="0 0 85 80">
  <g id="Grupo_1104248" data-name="Grupo 1104248" transform="translate(-179.666 -601)">
    <rect id="Rectángulo_403436" data-name="Rectángulo 403436" width="60" height="60" rx="5" transform="translate(179.666 621)" fill="#debefb"/>
    <g id="Grupo_1104208" data-name="Grupo 1104208" transform="translate(198.666 601)">
      <g id="Grupo_1104207" data-name="Grupo 1104207">
        <g id="Grupo_1104206" data-name="Grupo 1104206">
          <path id="Trazado_880512" data-name="Trazado 880512" d="M257.375,280.083h22a1.375,1.375,0,0,0,0-2.75h-22a1.375,1.375,0,0,0,0,2.75Z" transform="translate(-223 -241.583)" fill="#a854f3"/>
          <path id="Trazado_880513" data-name="Trazado 880513" d="M66,26.125v-5.5a6.815,6.815,0,0,0-1.05-3.611,1.081,1.081,0,0,0-.039-.1l-8.5-13.668A6.837,6.837,0,0,0,50.57,0H15.433A6.834,6.834,0,0,0,9.595,3.245l-8.5,13.668c-.016.027-.016.058-.033.088A6.8,6.8,0,0,0,0,20.625v5.5a6.85,6.85,0,0,0,2.794,5.5A6.845,6.845,0,0,0,0,37.125v5.5a6.85,6.85,0,0,0,2.794,5.5A6.845,6.845,0,0,0,0,53.625v5.5A6.885,6.885,0,0,0,6.875,66H24.9a1.375,1.375,0,1,0,0-2.75H6.875A4.13,4.13,0,0,1,2.75,59.125v-5.5A4.128,4.128,0,0,1,6.875,49.5h23a1.375,1.375,0,0,0,0-2.75h-23A4.13,4.13,0,0,1,2.75,42.625v-5.5A4.128,4.128,0,0,1,6.875,33h52.25a4.13,4.13,0,0,1,4.125,4.125v5.5a4.09,4.09,0,0,1-.435,1.8,1.375,1.375,0,1,0,2.469,1.21A6.764,6.764,0,0,0,66,42.625v-5.5a6.85,6.85,0,0,0-2.794-5.5A6.853,6.853,0,0,0,66,26.125ZM11.929,4.7a4.1,4.1,0,0,1,3.5-1.947H50.567A4.1,4.1,0,0,1,54.07,4.7l5.673,9.116a5.737,5.737,0,0,0-.619-.063H6.875c-.212,0-.412.041-.619.06ZM63.25,26.125a4.13,4.13,0,0,1-4.125,4.125H6.875A4.13,4.13,0,0,1,2.75,26.125v-5.5A4.128,4.128,0,0,1,6.875,16.5h52.25a4.128,4.128,0,0,1,4.125,4.125v5.5Z" fill="#a854f3"/>
          <path id="Trazado_880514" data-name="Trazado 880514" d="M42.667,409.458a4.125,4.125,0,1,0,4.125-4.125A4.13,4.13,0,0,0,42.667,409.458Zm5.5,0a1.375,1.375,0,1,1-1.375-1.375A1.376,1.376,0,0,1,48.167,409.458Z" transform="translate(-37.167 -353.083)" fill="#a854f3"/>
          <path id="Trazado_880515" data-name="Trazado 880515" d="M242.209,325.5c-.25,0-.5.014-.745.036a12.334,12.334,0,0,0-22.566,5.591,6.875,6.875,0,0,0,1.312,13.623h22a9.625,9.625,0,0,0,0-19.25Zm0,16.5h-22a4.125,4.125,0,1,1,0-8.25,1.376,1.376,0,0,0,1.375-1.375,9.59,9.59,0,0,1,17.98-4.681,1.374,1.374,0,0,0,1.441.679,6.965,6.965,0,0,1,1.2-.124,6.875,6.875,0,1,1,0,13.75Z" transform="translate(-185.834 -278.75)" fill="#a854f3"/>
          <path id="Trazado_880516" data-name="Trazado 880516" d="M279.375,149.333h-22a1.375,1.375,0,0,0,0,2.75h22a1.375,1.375,0,1,0,0-2.75Z" transform="translate(-223 -130.083)" fill="#a854f3"/>
          <path id="Trazado_880517" data-name="Trazado 880517" d="M279.375,192h-22a1.375,1.375,0,0,0,0,2.75h22a1.375,1.375,0,1,0,0-2.75Z" transform="translate(-223 -167.25)" fill="#a854f3"/>
          <path id="Trazado_880518" data-name="Trazado 880518" d="M46.792,149.333a4.125,4.125,0,1,0,4.125,4.125A4.128,4.128,0,0,0,46.792,149.333Zm0,5.5a1.375,1.375,0,1,1,1.375-1.375A1.376,1.376,0,0,1,46.792,154.833Z" transform="translate(-37.167 -130.083)" fill="#a854f3"/>
          <path id="Trazado_880519" data-name="Trazado 880519" d="M42.667,281.458a4.125,4.125,0,1,0,4.125-4.125A4.13,4.13,0,0,0,42.667,281.458Zm5.5,0a1.375,1.375,0,1,1-1.375-1.375A1.376,1.376,0,0,1,48.167,281.458Z" transform="translate(-37.167 -241.583)" fill="#a854f3"/>
        </g>
      </g>
    </g>
  </g>
</svg>
