<svg xmlns="http://www.w3.org/2000/svg" width="35" height="31.402" viewBox="0 0 35 31.402">
  <g id="Grupo_1104499" data-name="Grupo 1104499" transform="translate(0 -26.315)">
    <g id="Grupo_1104501" data-name="Grupo 1104501" transform="translate(0 26.315)">
      <g id="Grupo_1104500" data-name="Grupo 1104500" transform="translate(0 0)">
        <path id="Trazado_880616" data-name="Trazado 880616" d="M34.442,51.544,21.064,28.373a4.116,4.116,0,0,0-7.128,0L.558,51.544a4.116,4.116,0,0,0,3.564,6.173H30.878a4.115,4.115,0,0,0,3.564-6.173Zm-1.776,3.09a2.044,2.044,0,0,1-1.788,1.033H4.122a2.065,2.065,0,0,1-1.788-3.1L15.711,29.4a2.065,2.065,0,0,1,3.577,0L32.666,52.569A2.044,2.044,0,0,1,32.666,54.634Z" transform="translate(0 -26.315)" fill="#3a1d71"/>
      </g>
    </g>
    <g id="Grupo_1104503" data-name="Grupo 1104503" transform="translate(16.474 36.548)">
      <g id="Grupo_1104502" data-name="Grupo 1104502" transform="translate(0 0)">
        <rect id="Rectángulo_404383" data-name="Rectángulo 404383" width="2.051" height="10.253" fill="#3a1d71"/>
      </g>
    </g>
    <g id="Grupo_1104505" data-name="Grupo 1104505" transform="translate(16.133 48.851)">
      <g id="Grupo_1104504" data-name="Grupo 1104504">
        <path id="Trazado_880617" data-name="Trazado 880617" d="M237.369,355.99a1.367,1.367,0,1,0,1.367,1.367A1.369,1.369,0,0,0,237.369,355.99Z" transform="translate(-236.002 -355.99)" fill="#3a1d71"/>
      </g>
    </g>
  </g>
</svg>
