<svg xmlns="http://www.w3.org/2000/svg" width="35.2" height="35.189" viewBox="0 0 35.2 35.189">
  <g id="Grupo_1104513" data-name="Grupo 1104513" transform="translate(0.1 0.022)">
    <g id="Grupo_1104512" data-name="Grupo 1104512" transform="translate(0 0.078)">
      <path id="Trazado_880624" data-name="Trazado 880624" d="M234.156,387.68a.513.513,0,0,0,0-1.027h-2.337a.513.513,0,0,0,0,1.027Z" transform="translate(-215.488 -360.216)" fill="#3a1d71" stroke="#3a1d71" stroke-width="0.2"/>
      <path id="Trazado_880625" data-name="Trazado 880625" d="M32.754,4.958h-4.3l.719-.719a.864.864,0,0,0,0-1.221L27.995,1.845a.864.864,0,0,0-1.221,0l-.728.728a6.336,6.336,0,0,0-1.454-.6V.941A.864.864,0,0,0,23.73.078H22.07a.864.864,0,0,0-.863.863V1.969a6.337,6.337,0,0,0-1.454.6l-.728-.728a.864.864,0,0,0-1.221,0L16.631,3.018a.864.864,0,0,0,0,1.221l.719.719H2.246A2.249,2.249,0,0,0,0,7.2V27.5a2.249,2.249,0,0,0,2.246,2.246h4.76a.513.513,0,0,0,0-1.027H2.246a1.221,1.221,0,0,1-1.22-1.22V25.339H33.973V27.5a1.221,1.221,0,0,1-1.22,1.22H9.447a.513.513,0,0,0,0,1.027H13.66a26.925,26.925,0,0,1-.418,4.3H11.463a.513.513,0,0,0,0,1.027H23.537a.513.513,0,0,0,0-1.027H21.758a26.943,26.943,0,0,1-.418-4.3H32.754A2.249,2.249,0,0,0,35,27.5V7.2a2.249,2.249,0,0,0-2.246-2.246ZM14.292,34.041a30.154,30.154,0,0,0,.395-4.3h5.627a30.154,30.154,0,0,0,.395,4.3ZM18.174,4.33l-.7-.7.943-.943.7.7a.864.864,0,0,0,1.054.13,5.306,5.306,0,0,1,1.409-.585.865.865,0,0,0,.654-.837V1.1h1.333V2.1a.865.865,0,0,0,.654.837,5.313,5.313,0,0,1,1.409.584.864.864,0,0,0,1.054-.13l.7-.7.943.943-.7.7a.864.864,0,0,0-.13,1.054,5.306,5.306,0,0,1,.584,1.409.865.865,0,0,0,.837.654h.991V8.78h-.991a.865.865,0,0,0-.837.654,5.307,5.307,0,0,1-.585,1.409.864.864,0,0,0,.13,1.054l.7.7-.943.943-.7-.7a.864.864,0,0,0-1.054-.13,5.306,5.306,0,0,1-1.409.585.865.865,0,0,0-.654.837v.991H22.233v-.991a.865.865,0,0,0-.654-.837,5.308,5.308,0,0,1-1.409-.585.864.864,0,0,0-1.054.13l-.7.7-.943-.943.7-.7a.864.864,0,0,0,.13-1.054,5.308,5.308,0,0,1-.585-1.409.865.865,0,0,0-.837-.654h-.991V7.447h.991a.865.865,0,0,0,.837-.654A5.308,5.308,0,0,1,18.3,5.384a.864.864,0,0,0-.13-1.054ZM2.14,8.583V24.312H1.027V7.2a1.221,1.221,0,0,1,1.22-1.22H16.894c-.051.144-.1.289-.138.436H15.728a.864.864,0,0,0-.863.863v.028H3.411A1.273,1.273,0,0,0,2.14,8.583ZM31.834,24.312H3.166V8.583a.245.245,0,0,1,.245-.245H14.865v.6a.864.864,0,0,0,.863.863h1.028a6.337,6.337,0,0,0,.6,1.454l-.728.728a.864.864,0,0,0,0,1.221L17.8,14.382a.864.864,0,0,0,1.221,0l.728-.728a6.336,6.336,0,0,0,1.454.6v1.028a.864.864,0,0,0,.863.863h1.66a.864.864,0,0,0,.863-.863V14.257a6.336,6.336,0,0,0,1.454-.6l.728.728a.864.864,0,0,0,1.221,0l1.174-1.174a.864.864,0,0,0,0-1.221l-.728-.728a6.332,6.332,0,0,0,.6-1.454h1.028a.864.864,0,0,0,.863-.863v-.6h.654a.245.245,0,0,1,.245.245V24.312Zm2.14,0H32.86V8.583a1.273,1.273,0,0,0-1.271-1.271h-.654V7.284a.864.864,0,0,0-.863-.863H29.044c-.04-.147-.087-.292-.138-.436h3.848a1.221,1.221,0,0,1,1.22,1.22Z" transform="translate(0 -0.078)" fill="#3a1d71" stroke="#3a1d71" stroke-width="0.2"/>
      <path id="Trazado_880626" data-name="Trazado 880626" d="M280.653,67.353a3.979,3.979,0,1,0-1.093-7.806.513.513,0,0,0,.281.987,2.953,2.953,0,1,1-1.637,1.189.513.513,0,1,0-.851-.575,3.979,3.979,0,0,0,3.3,6.2Z" transform="translate(-257.753 -55.338)" fill="#3a1d71" stroke="#3a1d71" stroke-width="0.2"/>
      <path id="Trazado_880627" data-name="Trazado 880627" d="M308.732,89.383a2.07,2.07,0,1,0-2.07,2.07A2.072,2.072,0,0,0,308.732,89.383Zm-3.113,0a1.043,1.043,0,1,1,1.043,1.043A1.044,1.044,0,0,1,305.62,89.383Z" transform="translate(-283.763 -81.347)" fill="#3a1d71" stroke="#3a1d71" stroke-width="0.2"/>
      <path id="Trazado_880628" data-name="Trazado 880628" d="M73.215,157.971h-.7a4.972,4.972,0,0,0-.4-.972l.493-.493a.781.781,0,0,0,0-1.105l-.9-.9a.782.782,0,0,0-1.1,0l-.493.493a4.973,4.973,0,0,0-.972-.4v-.7a.782.782,0,0,0-.781-.781H67.087a.782.782,0,0,0-.781.781v.7a4.97,4.97,0,0,0-.972.4l-.493-.493a.782.782,0,0,0-1.1,0l-.9.9a.782.782,0,0,0,0,1.1l.493.493a4.974,4.974,0,0,0-.4.972h-.7a.782.782,0,0,0-.781.781v1.271a.782.782,0,0,0,.781.781h.7a4.971,4.971,0,0,0,.4.972l-.493.493a.782.782,0,0,0,0,1.1l.9.9a.781.781,0,0,0,1.105,0l.493-.493a4.969,4.969,0,0,0,.972.4v.7a.782.782,0,0,0,.781.781h1.271a.782.782,0,0,0,.781-.781v-.7a4.967,4.967,0,0,0,.972-.4l.493.493a.781.781,0,0,0,1.105,0l.9-.9a.781.781,0,0,0,0-1.1l-.493-.493a4.966,4.966,0,0,0,.4-.972h.7a.782.782,0,0,0,.781-.781v-1.271A.782.782,0,0,0,73.215,157.971Zm-.245,1.807h-.638a.783.783,0,0,0-.758.592,3.945,3.945,0,0,1-.434,1.047.782.782,0,0,0,.118.954l.452.452-.552.552-.452-.452a.782.782,0,0,0-.954-.118,3.943,3.943,0,0,1-1.047.434.783.783,0,0,0-.592.758v.638h-.781V164a.782.782,0,0,0-.592-.758,3.944,3.944,0,0,1-1.047-.434.781.781,0,0,0-.954.118l-.452.452-.552-.552.452-.452a.782.782,0,0,0,.118-.954,3.942,3.942,0,0,1-.434-1.047.783.783,0,0,0-.758-.592h-.639V159h.638a.782.782,0,0,0,.758-.592,3.947,3.947,0,0,1,.435-1.047.782.782,0,0,0-.118-.953l-.452-.452.552-.552.452.452a.781.781,0,0,0,.954.118,3.945,3.945,0,0,1,1.047-.434.782.782,0,0,0,.592-.758v-.638h.781v.638a.782.782,0,0,0,.592.758,3.945,3.945,0,0,1,1.047.434.781.781,0,0,0,.954-.118l.452-.452.552.552-.452.452a.782.782,0,0,0-.118.953,3.946,3.946,0,0,1,.434,1.047.783.783,0,0,0,.758.592h.638v.781Z" transform="translate(-57.247 -142.648)" fill="#3a1d71" stroke="#3a1d71" stroke-width="0.2"/>
      <path id="Trazado_880629" data-name="Trazado 880629" d="M116.194,205.141a2.716,2.716,0,1,0,2.716,2.716A2.719,2.719,0,0,0,116.194,205.141Zm0,4.4a1.689,1.689,0,1,1,1.689-1.689A1.691,1.691,0,0,1,116.194,209.546Z" transform="translate(-105.718 -191.117)" fill="#3a1d71" stroke="#3a1d71" stroke-width="0.2"/>
    </g>
  </g>
</svg>
