<svg id="surface1" xmlns="http://www.w3.org/2000/svg" width="35" height="35" viewBox="0 0 35 35">
  <path id="Trazado_880630" data-name="Trazado 880630" d="M33.421,5.742H26.25a.513.513,0,0,0,0,1.025h7.171a.554.554,0,0,1,.553.553V27.064a.554.554,0,0,1-.553.553H1.579a.554.554,0,0,1-.553-.553V7.321a.554.554,0,0,1,.553-.553H12.843V7.793H2.563a.512.512,0,0,0-.513.513V21.852a.513.513,0,0,0,1.025,0V8.818h9.767v2.75l-2.195,1.049a.516.516,0,0,0-.292.463v8.361a.513.513,0,0,0,.292.463l6.631,3.168a.52.52,0,0,0,.442,0l3.728-1.781a.513.513,0,1,0-.442-.925L18.013,23.8V16.571l5.605-2.678v7.225l-.762.364a.513.513,0,0,0,.442.925l1.053-.5a.513.513,0,0,0,.292-.463V13.08a.516.516,0,0,0-.292-.463l-2.195-1.049V8.818h9.767V25.566H3.076V24.04a.513.513,0,0,0-1.025,0v2.039a.512.512,0,0,0,.513.513H32.437a.512.512,0,0,0,.513-.513V8.306a.512.512,0,0,0-.513-.513H22.157V6.768h1.906a.513.513,0,0,0,0-1.025H22.157V4.717h4.6a.512.512,0,0,0,.513-.513V2.988a1.538,1.538,0,1,0-1.025,0v.7h-4.6a.512.512,0,0,0-.513.513V5.742H18.013V2.988a1.538,1.538,0,1,0-1.025,0V5.742H13.868V4.2a.512.512,0,0,0-.513-.513h-4.6v-.7a1.538,1.538,0,1,0-1.025,0V4.2a.512.512,0,0,0,.513.513h4.6V5.742H1.579A1.58,1.58,0,0,0,0,7.321V27.064a1.58,1.58,0,0,0,1.579,1.579H12.694a4.886,4.886,0,0,1-1.834,3.281H8.682a1.538,1.538,0,0,0,0,3.076H26.318a1.538,1.538,0,0,0,0-3.076H24.141a4.934,4.934,0,0,1-1.835-3.281H33.421A1.58,1.58,0,0,0,35,27.064V7.321A1.58,1.58,0,0,0,33.421,5.742ZM26.754,1.025a.513.513,0,1,1-.513.513A.513.513,0,0,1,26.754,1.025Zm-9.254,0a.513.513,0,1,1-.513.513A.513.513,0,0,1,17.5,1.025Zm-9.254,0a.513.513,0,1,1-.513.513A.513.513,0,0,1,8.246,1.025Zm5.623,7.793h3.119v.77l-3.119,1.49Zm9.073,4.262L17.5,15.68l-5.442-2.6,5.442-2.6Zm-11.56.813,5.605,2.678V23.8l-5.605-2.678Zm9.75-2.814-3.119-1.49v-.77h3.119Zm0-4.311V7.793H18.013V6.768Zm-4.144,0V7.793H13.868V6.768Zm9.844,26.694a.513.513,0,0,1-.513.513H8.682a.513.513,0,0,1,0-1.025H26.318A.513.513,0,0,1,26.831,33.462Zm-4.16-1.538H12.329a5.782,5.782,0,0,0,1.4-3.281h7.55A5.782,5.782,0,0,0,22.671,31.924Zm0,0" fill="#3a1d71"/>
</svg>
