<svg xmlns="http://www.w3.org/2000/svg" width="434" height="430" viewBox="0 0 434 430">
  <g id="Grupo_1104719" data-name="Grupo 1104719" transform="translate(-2911 6496)">
    <path id="Trazado_880809" data-name="Trazado 880809" d="M10,0H424a10,10,0,0,1,10,10V210a10,10,0,0,1-10,10H10A10,10,0,0,1,0,210V10A10,10,0,0,1,10,0Z" transform="translate(2911 -6496)" fill="#e3dfeb"/>
    <g id="Outline_Color" data-name="Outline Color" transform="translate(3027 -6498.265)">
      <g id="Color" transform="translate(6.54 80.807)">
        <path id="Trazado_880782" data-name="Trazado 880782" d="M16.285,92.655H31.818a1.076,1.076,0,0,0,1.071-1.08V90.349a4.017,4.017,0,0,1,6.153-3.43l13.672,8.652a6.928,6.928,0,0,1,.026,11.669l-14.094,9.006a3.749,3.749,0,0,1-5.757-3.193V110.66h-16.6A4.3,4.3,0,0,1,12,106.34V96.975A4.3,4.3,0,0,1,16.285,92.655Z" transform="translate(-12 -86.292)" fill="#ffc107"/>
        <path id="Trazado_880783" data-name="Trazado 880783" d="M52.715,189.386a4.892,4.892,0,0,1,2.091,4.257,5.239,5.239,0,0,1-2.389,4.575c-3.377,2.295-13.771,8.694-13.771,8.694a3.749,3.749,0,0,1-5.757-3.193v-.959a1.076,1.076,0,0,0-1.071-1.08H16.285A4.3,4.3,0,0,1,12,197.36v2.8a4.3,4.3,0,0,0,4.285,4.32h16.6v2.393a3.749,3.749,0,0,0,5.757,3.193l14.094-9.006a6.928,6.928,0,0,0-.026-11.669Z" transform="translate(-12 -180.108)" fill="#ffa000"/>
      </g>
      <g id="Outline" transform="translate(6 80.265)">
        <path id="Trazado_880784" data-name="Trazado 880784" d="M47.544,89.629,33.871,80.977a4.474,4.474,0,0,0-4.61-.141,4.535,4.535,0,0,0-2.372,4.028V86.09a.536.536,0,0,1-.531.54H10.825A4.848,4.848,0,0,0,6,91.49v9.366a4.848,4.848,0,0,0,4.825,4.86H26.89v1.853a4.267,4.267,0,0,0,2.24,3.8,4.211,4.211,0,0,0,4.347-.148l14.094-9.006a7.468,7.468,0,0,0-.027-12.58ZM26.89,104.636H10.825a3.764,3.764,0,0,1-3.734-3.5,4.8,4.8,0,0,0,3.734,1.785H26.358a.537.537,0,0,1,.532.54Zm-.532-2.8H10.825A3.767,3.767,0,0,1,7.08,98.06V91.49a3.767,3.767,0,0,1,3.745-3.78H26.358a1.617,1.617,0,0,0,1.611-1.62V84.864a3.469,3.469,0,0,1,1.813-3.082,3.409,3.409,0,0,1,3.512.108c.159.1,13.647,8.631,13.795,8.732a4.512,4.512,0,0,1,1.717,3.727,4.714,4.714,0,0,1-2.152,4.122c-3.329,2.262-13.646,8.616-13.75,8.68l-.008,0a3.144,3.144,0,0,1-3.246.111,3.2,3.2,0,0,1-1.679-2.848v-.958A1.618,1.618,0,0,0,26.358,101.84ZM49.92,95.914a6.338,6.338,0,0,1-2.93,5.385L32.9,110.306a3.145,3.145,0,0,1-3.247.11,3.2,3.2,0,0,1-1.679-2.848v-.274a4.358,4.358,0,0,0,1.161.92,4.21,4.21,0,0,0,4.343-.146c.248-.152,10.462-6.445,13.788-8.7a5.715,5.715,0,0,0,2.6-4.326,6.509,6.509,0,0,1,.061.876Z" transform="translate(-6 -80.265)"/>
      </g>
    </g>
    <g id="Outline_Color-2" data-name="Outline Color" transform="translate(3172 -6498.265)">
      <g id="Color-2" data-name="Color" transform="translate(6.54 80.807)">
        <path id="Trazado_880782-2" data-name="Trazado 880782" d="M16.285,92.655H31.818a1.076,1.076,0,0,0,1.071-1.08V90.349a4.017,4.017,0,0,1,6.153-3.43l13.672,8.652a6.928,6.928,0,0,1,.026,11.669l-14.094,9.006a3.749,3.749,0,0,1-5.757-3.193V110.66h-16.6A4.3,4.3,0,0,1,12,106.34V96.975A4.3,4.3,0,0,1,16.285,92.655Z" transform="translate(-12 -86.292)" fill="#ffc107"/>
        <path id="Trazado_880783-2" data-name="Trazado 880783" d="M52.715,189.386a4.892,4.892,0,0,1,2.091,4.257,5.239,5.239,0,0,1-2.389,4.575c-3.377,2.295-13.771,8.694-13.771,8.694a3.749,3.749,0,0,1-5.757-3.193v-.959a1.076,1.076,0,0,0-1.071-1.08H16.285A4.3,4.3,0,0,1,12,197.36v2.8a4.3,4.3,0,0,0,4.285,4.32h16.6v2.393a3.749,3.749,0,0,0,5.757,3.193l14.094-9.006a6.928,6.928,0,0,0-.026-11.669Z" transform="translate(-12 -180.108)" fill="#ffa000"/>
      </g>
      <g id="Outline-2" data-name="Outline" transform="translate(6 80.265)">
        <path id="Trazado_880784-2" data-name="Trazado 880784" d="M47.544,89.629,33.871,80.977a4.474,4.474,0,0,0-4.61-.141,4.535,4.535,0,0,0-2.372,4.028V86.09a.536.536,0,0,1-.531.54H10.825A4.848,4.848,0,0,0,6,91.49v9.366a4.848,4.848,0,0,0,4.825,4.86H26.89v1.853a4.267,4.267,0,0,0,2.24,3.8,4.211,4.211,0,0,0,4.347-.148l14.094-9.006a7.468,7.468,0,0,0-.027-12.58ZM26.89,104.636H10.825a3.764,3.764,0,0,1-3.734-3.5,4.8,4.8,0,0,0,3.734,1.785H26.358a.537.537,0,0,1,.532.54Zm-.532-2.8H10.825A3.767,3.767,0,0,1,7.08,98.06V91.49a3.767,3.767,0,0,1,3.745-3.78H26.358a1.617,1.617,0,0,0,1.611-1.62V84.864a3.469,3.469,0,0,1,1.813-3.082,3.409,3.409,0,0,1,3.512.108c.159.1,13.647,8.631,13.795,8.732a4.512,4.512,0,0,1,1.717,3.727,4.714,4.714,0,0,1-2.152,4.122c-3.329,2.262-13.646,8.616-13.75,8.68l-.008,0a3.144,3.144,0,0,1-3.246.111,3.2,3.2,0,0,1-1.679-2.848v-.958A1.618,1.618,0,0,0,26.358,101.84ZM49.92,95.914a6.338,6.338,0,0,1-2.93,5.385L32.9,110.306a3.145,3.145,0,0,1-3.247.11,3.2,3.2,0,0,1-1.679-2.848v-.274a4.358,4.358,0,0,0,1.161.92,4.21,4.21,0,0,0,4.343-.146c.248-.152,10.462-6.445,13.788-8.7a5.715,5.715,0,0,0,2.6-4.326,6.509,6.509,0,0,1,.061.876Z" transform="translate(-6 -80.265)"/>
      </g>
    </g>
    <g id="Grupo_1104698" data-name="Grupo 1104698" transform="translate(2412 -11542)">
      <rect id="Rectángulo_404456" data-name="Rectángulo 404456" width="100" height="100" rx="10" transform="translate(521 5090)" fill="#f7eefe"/>
      <g id="Grupo_1104697" data-name="Grupo 1104697" transform="translate(0 4)">
        <g id="Grupo_1104671" data-name="Grupo 1104671" transform="translate(539 5108)">
          <g id="Grupo_1104671-2" data-name="Grupo 1104671">
            <path id="Trazado_880723" data-name="Trazado 880723" d="M58,14V26H6V14Z" fill="#e6e9ed"/>
            <path id="Trazado_880724" data-name="Trazado 880724" d="M58,5.36v16.8H6V5.36C6,3.512,6.9,2,8,2H56C57.1,2,58,3.512,58,5.36Z" transform="translate(0 -8.161)" fill="#aab2bd"/>
            <path id="Trazado_880725" data-name="Trazado 880725" d="M58,26l-3,4H9L6,26Z" fill="#fcd770"/>
            <rect id="Rectángulo_404453" data-name="Rectángulo 404453" width="6" height="4" transform="translate(18 18)" fill="#fcd770"/>
            <rect id="Rectángulo_404454" data-name="Rectángulo 404454" width="8" height="4" transform="translate(10 18)" fill="#ffeaa7"/>
            <circle id="Elipse_11860" data-name="Elipse 11860" cx="2" cy="2" r="2" transform="translate(50 18)" fill="#ff826e"/>
            <circle id="Elipse_11861" data-name="Elipse 11861" cx="2" cy="2" r="2" transform="translate(42 18)" fill="#ff826e"/>
            <path id="Trazado_880726" data-name="Trazado 880726" d="M57,58v4H9V58H57Z" fill="#fcd770"/>
            <path id="Trazado_880727" data-name="Trazado 880727" d="M53,51V30H11V58H57V57Z" fill="#ccd1d9"/>
            <path id="Trazado_880728" data-name="Trazado 880728" d="M47.5,30a17,17,0,1,1-31,0H32a7,7,0,1,0,7,7,6.995,6.995,0,0,0-7-7Z" fill="#69d6f4"/>
            <path id="Trazado_880729" data-name="Trazado 880729" d="M32,30a7,7,0,1,1-7,7A6.995,6.995,0,0,1,32,30Zm3,7a3,3,0,1,0-3,3A3,3,0,0,0,35,37Z" fill="#969faa"/>
          </g>
          <g id="Grupo_1104672" data-name="Grupo 1104672">
            <path id="Trazado_880730" data-name="Trazado 880730" d="M55.5,31,59,26.333V-4a3,3,0,0,0-3-3H8A3,3,0,0,0,5-4V26.333L8.5,31H10V57H8v6H58V56.7l-4-6V31ZM7,25V15H57V25ZM8-5H56a1,1,0,0,1,1,1V13H7V-4A1,1,0,0,1,8-5ZM8,27H56l-1.5,2H9.5ZM48,37a16,16,0,1,1-30.815-6h9.541a8,8,0,1,0,10.548,0h9.541A15.878,15.878,0,0,1,48,37ZM38,37a6,6,0,1,1-6-6A6.006,6.006,0,0,1,38,37ZM56,61H10V59H56Zm-.2-4H12V31h3.042a18,18,0,1,0,33.916,0H52V51.3Z"/>
            <path id="Trazado_880731" data-name="Trazado 880731" d="M32,41a4,4,0,1,0-4-4A4,4,0,0,0,32,41Zm0-6a2,2,0,1,1-2,2A2,2,0,0,1,32,35Z"/>
            <path id="Trazado_880732" data-name="Trazado 880732" d="M20,37H18A14.015,14.015,0,0,0,32,51V49A12.013,12.013,0,0,1,20,37Z"/>
            <path id="Trazado_880733" data-name="Trazado 880733" d="M9,23H25V17H9Zm6-2V19h2v2Zm8,0H19V19h4ZM11,19h2v2H11Z"/>
            <path id="Trazado_880734" data-name="Trazado 880734" d="M52,17a3,3,0,1,0,3,3A3,3,0,0,0,52,17Zm0,4a1,1,0,1,1,1-1A1,1,0,0,1,52,21Z"/>
            <path id="Trazado_880735" data-name="Trazado 880735" d="M44,17a3,3,0,1,0,3,3A3,3,0,0,0,44,17Zm0,4a1,1,0,1,1,1-1A1,1,0,0,1,44,21Z"/>
          </g>
        </g>
        <path id="Trazado_880807" data-name="Trazado 880807" d="M3.508,15H1.164V3.625H3.508Zm8.07-2.984A1.2,1.2,0,0,0,11.109,11a6.148,6.148,0,0,0-1.687-.75,11.963,11.963,0,0,1-1.93-.777,3.153,3.153,0,0,1-1.937-2.82A2.747,2.747,0,0,1,6.074,5,3.389,3.389,0,0,1,7.566,3.875,5.616,5.616,0,0,1,9.75,3.469a5.112,5.112,0,0,1,2.172.441A3.458,3.458,0,0,1,13.4,5.156a3.261,3.261,0,0,1,.527,1.828H11.586a1.534,1.534,0,0,0-.492-1.215,2.023,2.023,0,0,0-1.383-.434A2.162,2.162,0,0,0,8.375,5.7a1.146,1.146,0,0,0-.477.957,1.1,1.1,0,0,0,.559.93,6.311,6.311,0,0,0,1.645.7,7.106,7.106,0,0,1,2.914,1.492A2.972,2.972,0,0,1,13.93,12a2.737,2.737,0,0,1-1.117,2.316,4.891,4.891,0,0,1-3.008.84,5.808,5.808,0,0,1-2.391-.48A3.783,3.783,0,0,1,5.77,13.359,3.371,3.371,0,0,1,5.2,11.422H7.555q0,1.883,2.25,1.883a2.189,2.189,0,0,0,1.3-.34A1.106,1.106,0,0,0,11.578,12.016ZM24.859,9.57a6.867,6.867,0,0,1-.594,2.945,4.472,4.472,0,0,1-1.7,1.953,5.021,5.021,0,0,1-5.059.008,4.515,4.515,0,0,1-1.719-1.941,6.67,6.67,0,0,1-.617-2.9V9.07a6.831,6.831,0,0,1,.605-2.957,4.508,4.508,0,0,1,1.711-1.961,5.014,5.014,0,0,1,5.055,0,4.508,4.508,0,0,1,1.711,1.961,6.811,6.811,0,0,1,.605,2.949Zm-2.375-.516a4.787,4.787,0,0,0-.641-2.719A2.263,2.263,0,0,0,18.2,6.324a4.732,4.732,0,0,0-.648,2.691V9.57a4.847,4.847,0,0,0,.641,2.7,2.243,2.243,0,0,0,3.656.035,4.819,4.819,0,0,0,.641-2.7Z" transform="translate(557.836 5103)" fill="#12263f"/>
      </g>
    </g>
    <g id="Grupo_1104701" data-name="Grupo 1104701" transform="translate(2702 -11542)">
      <rect id="Rectángulo_404456-2" data-name="Rectángulo 404456" width="100" height="100" rx="10" transform="translate(521 5090)" fill="#f7eefe"/>
      <g id="Grupo_1104702" data-name="Grupo 1104702" transform="translate(539.323 5099.473)">
        <g id="Grupo_1104678" data-name="Grupo 1104678" transform="translate(19.677 56.026)">
          <path id="Trazado_880757" data-name="Trazado 880757" d="M183.023,391.26a14.487,14.487,0,0,1-4.5-10h-15a14.487,14.487,0,0,1-4.5,10Z" transform="translate(-159.024 -381.26)" fill="#2b4d66"/>
        </g>
        <g id="Grupo_1104679" data-name="Grupo 1104679" transform="translate(0.928 11.028)">
          <path id="Trazado_880758" data-name="Trazado 880758" d="M66.5,62.6H10a2.5,2.5,0,0,1-2.5-2.5v-40A2.5,2.5,0,0,1,10,17.6H66.5A2.5,2.5,0,0,1,69,20.1v40A2.5,2.5,0,0,1,66.5,62.6Z" transform="translate(-7.5 -17.602)" fill="#90d8f9"/>
        </g>
        <g id="Grupo_1104680" data-name="Grupo 1104680" transform="translate(57.551 11.028)">
          <path id="Trazado_880759" data-name="Trazado 880759" d="M467.479,17.6H465.1a2.5,2.5,0,0,1,2.5,2.5v40a2.5,2.5,0,0,1-2.5,2.5h2.375a2.5,2.5,0,0,0,2.5-2.5v-40A2.5,2.5,0,0,0,467.479,17.6Z" transform="translate(-465.104 -17.602)" fill="#75cef9"/>
        </g>
        <g id="Grupo_1104681" data-name="Grupo 1104681" transform="translate(4.928 15.028)">
          <path id="Trazado_880760" data-name="Trazado 880760" d="M0,0H33.249V53.5H0Z" transform="translate(53.498) rotate(90)" fill="#ecf4ff"/>
        </g>
        <g id="Grupo_1104682" data-name="Grupo 1104682" transform="translate(15.427 66.026)">
          <path id="Trazado_880761" data-name="Trazado 880761" d="M124.679,465.323v-2.5a.75.75,0,0,1,.75-.75h31a.75.75,0,0,1,.75.75v2.5a.75.75,0,0,1-.75.75h-31A.75.75,0,0,1,124.679,465.323Z" transform="translate(-124.679 -462.073)" fill="#4a80aa"/>
        </g>
        <g id="Grupo_1104683" data-name="Grupo 1104683" transform="translate(43.426 66.026)">
          <path id="Trazado_880762" data-name="Trazado 880762" d="M354.7,462.073h-3.75a.75.75,0,0,1,.75.75v2.5a.75.75,0,0,1-.75.75h3.75a.75.75,0,0,0,.75-.75v-2.5A.75.75,0,0,0,354.7,462.073Z" transform="translate(-350.955 -462.073)" fill="#407093"/>
        </g>
        <g id="Grupo_1104690" data-name="Grupo 1104690" transform="translate(8.928 20.153)">
          <g id="Grupo_1104685" data-name="Grupo 1104685" transform="translate(0 0)">
            <g id="Grupo_1104684" data-name="Grupo 1104684">
              <path id="Trazado_880763" data-name="Trazado 880763" d="M72.15,91.344H77.9v5H72.15Z" transform="translate(-72.15 -91.344)" fill="#78d090"/>
            </g>
          </g>
          <g id="Grupo_1104687" data-name="Grupo 1104687" transform="translate(0 9)">
            <g id="Grupo_1104686" data-name="Grupo 1104686">
              <path id="Trazado_880764" data-name="Trazado 880764" d="M72.15,164.075H77.9v5H72.15Z" transform="translate(-72.15 -164.075)" fill="#78d090"/>
            </g>
          </g>
          <g id="Grupo_1104689" data-name="Grupo 1104689" transform="translate(0 17.999)">
            <g id="Grupo_1104688" data-name="Grupo 1104688">
              <path id="Trazado_880765" data-name="Trazado 880765" d="M72.15,236.807H77.9v5H72.15Z" transform="translate(-72.15 -236.807)" fill="#78d090"/>
            </g>
          </g>
        </g>
        <g id="Grupo_1104691" data-name="Grupo 1104691" transform="translate(43.676 32.402)">
          <path id="Trazado_880766" data-name="Trazado 880766" d="M352.976,190.339l3.225,10.75,2.15-5.375,5.375-2.15Z" transform="translate(-352.976 -190.339)" fill="#e490b7"/>
        </g>
        <g id="Grupo_1104692" data-name="Grupo 1104692" transform="translate(0 10.1)">
          <path id="Trazado_880767" data-name="Trazado 880767" d="M59.926,10.1H3.428A3.431,3.431,0,0,0,0,13.528v40a3.431,3.431,0,0,0,3.428,3.428H8.909a.928.928,0,1,0,0-1.856H3.428a1.573,1.573,0,0,1-1.571-1.571v-40a1.573,1.573,0,0,1,1.571-1.571h56.5A1.573,1.573,0,0,1,61.5,13.528v40A1.573,1.573,0,0,1,59.926,55.1H13.24a.928.928,0,1,0,0,1.856h9.953A13.737,13.737,0,0,1,19.3,65.1H16.177A1.68,1.68,0,0,0,14.5,66.776v2.5a1.68,1.68,0,0,0,1.678,1.678H39.261a.928.928,0,1,0,0-1.856H16.356V66.954H47V69.1H43.591a.928.928,0,1,0,0,1.856h3.585a1.68,1.68,0,0,0,1.678-1.678v-2.5A1.68,1.68,0,0,0,47.176,65.1H44.053a13.818,13.818,0,0,1-3.89-8.143H59.926a3.431,3.431,0,0,0,3.428-3.428v-40A3.431,3.431,0,0,0,59.926,10.1Zm-18.358,55H21.786a15.569,15.569,0,0,0,3.275-8.143H38.293A15.57,15.57,0,0,0,41.568,65.1Z" transform="translate(0 -10.1)"/>
          <path id="Trazado_880768" data-name="Trazado 880768" d="M80.583,77.534h6.172a.928.928,0,0,0,.928-.928V43.358a.928.928,0,0,0-.928-.928h-53.5a.928.928,0,0,0-.928.928V76.606a.928.928,0,0,0,.928.928H76.252a.928.928,0,1,0,0-1.856H34.186V44.286H85.827V75.678H80.583a.928.928,0,1,0,0,1.856Z" transform="translate(-28.33 -38.43)"/>
          <path id="Trazado_880769" data-name="Trazado 880769" d="M72.256,84.772a.928.928,0,0,0-.928-.928h-5.75a.928.928,0,0,0-.928.928v5a.928.928,0,0,0,.928.928h5.75a.928.928,0,0,0,.928-.928ZM70.4,88.844H66.506V85.7H70.4Z" transform="translate(-56.65 -74.719)"/>
          <path id="Trazado_880770" data-name="Trazado 880770" d="M152.452,126.106h15.5a.928.928,0,1,0,0-1.856h-15.5a.928.928,0,1,0,0,1.856Z" transform="translate(-132.775 -110.125)"/>
          <path id="Trazado_880771" data-name="Trazado 880771" d="M223.791,83.844H211.042a.928.928,0,0,0,0,1.856h12.749a.928.928,0,1,0,0-1.856Z" transform="translate(-184.115 -74.719)"/>
          <path id="Trazado_880772" data-name="Trazado 880772" d="M152.452,85.7h2.875a.928.928,0,1,0,0-1.856h-2.875a.928.928,0,1,0,0,1.856Z" transform="translate(-132.775 -74.719)"/>
          <path id="Trazado_880773" data-name="Trazado 880773" d="M72.256,157.5a.928.928,0,0,0-.928-.928h-5.75a.928.928,0,0,0-.928.928v5a.928.928,0,0,0,.928.928h5.75a.928.928,0,0,0,.928-.928ZM70.4,161.575H66.506v-3.144H70.4Z" transform="translate(-56.65 -138.451)"/>
          <path id="Trazado_880774" data-name="Trazado 880774" d="M152.452,198.837h15.5a.928.928,0,1,0,0-1.856h-15.5a.928.928,0,1,0,0,1.856Z" transform="translate(-132.775 -173.857)"/>
          <path id="Trazado_880775" data-name="Trazado 880775" d="M223.791,156.575H211.042a.928.928,0,0,0,0,1.856h12.749a.928.928,0,1,0,0-1.856Z" transform="translate(-184.115 -138.451)"/>
          <path id="Trazado_880776" data-name="Trazado 880776" d="M152.452,158.431h2.875a.928.928,0,1,0,0-1.856h-2.875a.928.928,0,1,0,0,1.856Z" transform="translate(-132.775 -138.451)"/>
          <path id="Trazado_880777" data-name="Trazado 880777" d="M71.328,229.307h-5.75a.928.928,0,0,0-.928.928v5a.928.928,0,0,0,.928.928h5.75a.928.928,0,0,0,.928-.928v-5A.928.928,0,0,0,71.328,229.307Zm-.928,5H66.506v-3.144H70.4Z" transform="translate(-56.65 -202.183)"/>
          <path id="Trazado_880778" data-name="Trazado 880778" d="M152.452,271.57h15.5a.928.928,0,1,0,0-1.856h-15.5a.928.928,0,1,0,0,1.856Z" transform="translate(-132.775 -237.59)"/>
          <path id="Trazado_880779" data-name="Trazado 880779" d="M224.719,230.235a.928.928,0,0,0-.928-.928H211.042a.928.928,0,1,0,0,1.856h12.749A.928.928,0,0,0,224.719,230.235Z" transform="translate(-184.115 -202.183)"/>
          <path id="Trazado_880780" data-name="Trazado 880780" d="M152.452,231.163h2.875a.928.928,0,1,0,0-1.856h-2.875a.928.928,0,1,0,0,1.856Z" transform="translate(-132.775 -202.183)"/>
          <path id="Trazado_880781" data-name="Trazado 880781" d="M358.08,186.95a.928.928,0,0,0-.66-.848l-10.75-3.225a.928.928,0,0,0-1.156,1.156l3.225,10.75a.928.928,0,0,0,.848.66h.042a.928.928,0,0,0,.861-.583l2-5.006,5.006-2A.928.928,0,0,0,358.08,186.95Zm-6.647,1.33a.928.928,0,0,0-.517.517l-1.163,2.907-1.966-6.553,6.553,1.966Z" transform="translate(-302.727 -161.464)"/>
        </g>
      </g>
    </g>
    <path id="Trazado_880811" data-name="Trazado 880811" d="M11.531,5.047l2.557,7.219L16.63,5.047h2.693V15H17.266V12.279l.205-4.7L14.785,15H13.376L10.7,7.59l.205,4.689V15H8.851V5.047ZM25.271,15a2.194,2.194,0,0,1-.2-.663,2.39,2.39,0,0,1-1.866.8,2.626,2.626,0,0,1-1.8-.629,2.023,2.023,0,0,1-.714-1.586,2.09,2.09,0,0,1,.872-1.8,4.3,4.3,0,0,1,2.519-.636h.909v-.424a1.219,1.219,0,0,0-.263-.82A1.035,1.035,0,0,0,23.9,8.93a1.177,1.177,0,0,0-.783.239.813.813,0,0,0-.284.656H20.855a1.984,1.984,0,0,1,.4-1.189,2.621,2.621,0,0,1,1.121-.858A4.086,4.086,0,0,1,24,7.467a3.228,3.228,0,0,1,2.17.687,2.4,2.4,0,0,1,.8,1.931v3.206a3.536,3.536,0,0,0,.294,1.593V15Zm-1.634-1.374a1.7,1.7,0,0,0,.807-.195,1.28,1.28,0,0,0,.547-.523V11.637h-.738q-1.483,0-1.579,1.025l-.007.116a.791.791,0,0,0,.26.608A1.009,1.009,0,0,0,23.637,13.626ZM24.389,4.5h2.153L24.649,6.619H23.042Zm3.794,6.733a4.421,4.421,0,0,1,.776-2.755,2.537,2.537,0,0,1,2.129-1.012,2.271,2.271,0,0,1,1.894.909l.13-.772h1.736v10.24H32.866V14.364a2.277,2.277,0,0,1-1.791.772,2.518,2.518,0,0,1-2.105-1.025A4.638,4.638,0,0,1,28.183,11.233Zm1.976.14a2.9,2.9,0,0,0,.373,1.616,1.193,1.193,0,0,0,1.049.555,1.329,1.329,0,0,0,1.285-.726V9.758a1.318,1.318,0,0,0-1.271-.7,1.207,1.207,0,0,0-1.06.555A3.2,3.2,0,0,0,30.159,11.374ZM40.83,14.248a2.477,2.477,0,0,1-2.023.889,2.337,2.337,0,0,1-1.815-.684,2.918,2.918,0,0,1-.639-2V7.6h1.976v4.784q0,1.157,1.053,1.157a1.426,1.426,0,0,0,1.381-.7V7.6h1.982V15H40.884ZM46.319,15H44.336V7.6h1.982Zm-2.1-9.311a.973.973,0,0,1,.3-.731,1.281,1.281,0,0,1,1.617,0,.967.967,0,0,1,.3.731.97.97,0,0,1-.3.738,1.267,1.267,0,0,1-1.606,0A.97.97,0,0,1,44.22,5.689ZM49.764,7.6l.062.854a2.582,2.582,0,0,1,2.126-.991,2.146,2.146,0,0,1,1.75.69,3.221,3.221,0,0,1,.588,2.064V15H52.314V10.27a1.282,1.282,0,0,0-.273-.913,1.224,1.224,0,0,0-.909-.284,1.359,1.359,0,0,0-1.251.711V15H47.9V7.6ZM60.073,15a2.194,2.194,0,0,1-.2-.663,2.39,2.39,0,0,1-1.866.8,2.626,2.626,0,0,1-1.8-.629,2.023,2.023,0,0,1-.714-1.586,2.09,2.09,0,0,1,.872-1.8,4.3,4.3,0,0,1,2.519-.636h.909v-.424a1.219,1.219,0,0,0-.263-.82A1.035,1.035,0,0,0,58.7,8.93a1.177,1.177,0,0,0-.783.239.813.813,0,0,0-.284.656H55.657a1.984,1.984,0,0,1,.4-1.189,2.621,2.621,0,0,1,1.121-.858A4.086,4.086,0,0,1,58.8,7.467a3.228,3.228,0,0,1,2.17.687,2.4,2.4,0,0,1,.8,1.931v3.206a3.536,3.536,0,0,0,.294,1.593V15Zm-1.634-1.374a1.7,1.7,0,0,0,.807-.195,1.28,1.28,0,0,0,.547-.523V11.637h-.738q-1.483,0-1.579,1.025l-.007.116a.791.791,0,0,0,.26.608A1.009,1.009,0,0,0,58.439,13.626Zm11.108-1.039L70.921,7.6h2.064l-2.5,7.4H68.6l-2.5-7.4h2.064ZM75.939,15H73.957V7.6h1.982Zm-2.1-9.311a.973.973,0,0,1,.3-.731,1.281,1.281,0,0,1,1.617,0,.967.967,0,0,1,.3.731.97.97,0,0,1-.3.738,1.267,1.267,0,0,1-1.606,0A.97.97,0,0,1,73.84,5.689Zm7.882,3.767a5.367,5.367,0,0,0-.711-.055,1.447,1.447,0,0,0-1.47.759V15H77.566V7.6h1.866l.055.882a1.831,1.831,0,0,1,1.647-1.019,2.07,2.07,0,0,1,.615.089Zm3.657-3.671V7.6h1.265V9.053H85.379v3.691a.881.881,0,0,0,.157.588.79.79,0,0,0,.6.178,3.15,3.15,0,0,0,.581-.048v1.5a4.067,4.067,0,0,1-1.2.178,1.886,1.886,0,0,1-2.119-2.1V9.053h-1.08V7.6H83.4V5.785Zm6.795,8.463a2.477,2.477,0,0,1-2.023.889,2.337,2.337,0,0,1-1.815-.684,2.918,2.918,0,0,1-.639-2V7.6h1.976v4.784q0,1.157,1.053,1.157a1.426,1.426,0,0,0,1.381-.7V7.6h1.982V15H92.229Zm7.69.752a2.194,2.194,0,0,1-.2-.663,2.39,2.39,0,0,1-1.866.8,2.626,2.626,0,0,1-1.8-.629,2.023,2.023,0,0,1-.714-1.586,2.09,2.09,0,0,1,.872-1.8,4.3,4.3,0,0,1,2.519-.636h.909v-.424a1.219,1.219,0,0,0-.263-.82,1.035,1.035,0,0,0-.831-.308,1.177,1.177,0,0,0-.783.239.813.813,0,0,0-.284.656H95.449a1.985,1.985,0,0,1,.4-1.189,2.621,2.621,0,0,1,1.121-.858,4.086,4.086,0,0,1,1.627-.311,3.228,3.228,0,0,1,2.17.687,2.4,2.4,0,0,1,.8,1.931v3.206a3.536,3.536,0,0,0,.294,1.593V15Zm-1.634-1.374a1.7,1.7,0,0,0,.807-.195,1.28,1.28,0,0,0,.547-.523V11.637h-.738q-1.483,0-1.579,1.025l-.007.116a.791.791,0,0,0,.26.608A1.009,1.009,0,0,0,98.231,13.626ZM105.169,15h-1.982V4.5h1.982Z" transform="translate(3216 -6342)" fill="#12263f"/>
    <g id="Grupo_1104709" data-name="Grupo 1104709" transform="translate(2557 -11542)">
      <rect id="Rectángulo_404456-3" data-name="Rectángulo 404456" width="100" height="100" rx="10" transform="translate(521 5090)" fill="#f7eefe"/>
      <g id="Grupo_1104700" data-name="Grupo 1104700" transform="translate(525.968 5109)">
        <path id="Trazado_880749" data-name="Trazado 880749" d="M50.838,9.464,24.081,22.381a.971.971,0,0,0-.549.874V55.04a.971.971,0,0,0,.549.874L50.838,68.832a1.941,1.941,0,0,0,1.688,0L79.284,55.915a.971.971,0,0,0,.549-.874V23.255a.971.971,0,0,0-.549-.874L52.527,9.464A1.941,1.941,0,0,0,50.838,9.464Z" transform="translate(-6.592 -8.147)" fill="#ffe17d"/>
        <path id="Trazado_880750" data-name="Trazado 880750" d="M23.693,120.368a.966.966,0,0,0-.161.531v31.785a.971.971,0,0,0,.549.874l26.758,12.918a1.941,1.941,0,0,0,.844.193V133.88Z" transform="translate(-6.592 -105.792)" fill="#ffc350"/>
        <path id="Trazado_880751" data-name="Trazado 880751" d="M283.989,120.368a.966.966,0,0,1,.161.531v31.785a.971.971,0,0,1-.549.874l-26.758,12.918a1.941,1.941,0,0,1-.844.193V133.88Z" transform="translate(-210.909 -105.792)" fill="#ffd164"/>
        <path id="Trazado_880752" data-name="Trazado 880752" d="M151.209,59.569,123.122,46l-7.4,3.589,28.15,13.59Z" transform="translate(-87.615 -40.429)" fill="#ff8087"/>
        <path id="Trazado_880753" data-name="Trazado 880753" d="M348.185,161.662V172.19a.485.485,0,0,0,.7.437l6.1-2.943a.971.971,0,0,0,.549-.874V158.052Z" transform="translate(-291.931 -138.912)" fill="#e6646e"/>
        <path id="Trazado_880754" data-name="Trazado 880754" d="M73.636,13.68,45.486.091a.909.909,0,0,0-.79,0L16.545,13.68a.908.908,0,0,0-.513.818v33a.908.908,0,0,0,.513.818L44.7,61.91a.908.908,0,0,0,.79,0L73.636,48.32a.908.908,0,0,0,.513-.818v-33A.909.909,0,0,0,73.636,13.68ZM45.091,1.917,71.152,14.5,63.6,18.146a.9.9,0,0,0-.154-.1L37.559,5.553ZM35.508,6.58,61.532,19.143,56.2,21.716,30.189,9.158Zm21.654,16.69,4.979-2.4v9.511l-4.979,2.4ZM46,59.645V28.658l6.282-3.032a.908.908,0,0,0-.79-1.636l-6.4,3.09-2.518-1.216a.908.908,0,0,0-.79,1.636l2.4,1.159V59.645L17.848,46.932V15.945L37.9,25.626a.908.908,0,0,0,.79-1.636L19.029,14.5l9.022-4.356L55.333,23.313l.013.016v10.9a.908.908,0,0,0,1.3.818l6.795-3.28a.908.908,0,0,0,.513-.818V19.989l8.376-4.044V46.933Z" transform="translate(0 0)"/>
        <path id="Trazado_880755" data-name="Trazado 880755" d="M53.483,343.347l-4.131-1.994a.908.908,0,0,0-.79,1.636l4.131,1.994a.908.908,0,0,0,.79-1.636Z" transform="translate(-28.139 -299.937)"/>
        <path id="Trazado_880756" data-name="Trazado 880756" d="M57.327,309.608,49.4,305.781a.908.908,0,1,0-.79,1.636l7.927,3.827a.908.908,0,0,0,.79-1.636Z" transform="translate(-28.181 -268.673)"/>
      </g>
    </g>
    <path id="Trazado_880810" data-name="Trazado 880810" d="M8.832,12.07h-4.5v3.047H9.613V17H1.988V5.625H9.6v1.9H4.332v2.711h4.5Zm6.586,2.594a.727.727,0,0,0-.41-.652,4.659,4.659,0,0,0-1.316-.426q-3.016-.633-3.016-2.562a2.323,2.323,0,0,1,.934-1.879,3.766,3.766,0,0,1,2.441-.754,4.053,4.053,0,0,1,2.574.758,2.388,2.388,0,0,1,.965,1.969H15.332a1.092,1.092,0,0,0-.312-.8A1.322,1.322,0,0,0,14.043,10a1.351,1.351,0,0,0-.883.258.814.814,0,0,0-.312.656.7.7,0,0,0,.355.605,3.657,3.657,0,0,0,1.2.4,9.8,9.8,0,0,1,1.422.379,2.336,2.336,0,0,1,1.789,2.273,2.2,2.2,0,0,1-.992,1.871,4.28,4.28,0,0,1-2.562.715,4.47,4.47,0,0,1-1.887-.379,3.166,3.166,0,0,1-1.293-1.039,2.414,2.414,0,0,1-.469-1.426h2.141a1.179,1.179,0,0,0,.445.922,1.766,1.766,0,0,0,1.109.32,1.635,1.635,0,0,0,.98-.246A.766.766,0,0,0,15.418,14.664Zm3.3-1.969A5.053,5.053,0,0,1,19.6,9.547a2.9,2.9,0,0,1,2.434-1.156A2.6,2.6,0,0,1,24.2,9.43l.148-.883h1.984v11.7H24.066V16.273a2.6,2.6,0,0,1-2.047.883,2.878,2.878,0,0,1-2.406-1.172A5.3,5.3,0,0,1,18.715,12.7Zm2.258.16A3.315,3.315,0,0,0,21.4,14.7a1.363,1.363,0,0,0,1.2.634,1.518,1.518,0,0,0,1.469-.829v-3.5a1.506,1.506,0,0,0-1.453-.8,1.38,1.38,0,0,0-1.211.634A3.661,3.661,0,0,0,20.973,12.856Zm12.2,3.285a2.831,2.831,0,0,1-2.312,1.016,2.67,2.67,0,0,1-2.074-.781,3.335,3.335,0,0,1-.73-2.289V8.547h2.258v5.467q0,1.322,1.2,1.322a1.63,1.63,0,0,0,1.578-.8V8.547h2.266V17H33.23Zm7.781,1.016a4.15,4.15,0,0,1-3.027-1.141,4.054,4.054,0,0,1-1.168-3.039v-.219a5.106,5.106,0,0,1,.492-2.277,3.612,3.612,0,0,1,1.395-1.547A3.914,3.914,0,0,1,40.7,8.391a3.508,3.508,0,0,1,2.73,1.094,4.444,4.444,0,0,1,1,3.1v.922H39.043a2.1,2.1,0,0,0,.66,1.328,2,2,0,0,0,1.395.5,2.437,2.437,0,0,0,2.039-.945l1.109,1.242a3.389,3.389,0,0,1-1.375,1.121A4.511,4.511,0,0,1,40.949,17.156Zm-.258-6.945a1.411,1.411,0,0,0-1.09.455,2.357,2.357,0,0,0-.535,1.3h3.141v-.181a1.681,1.681,0,0,0-.406-1.165A1.456,1.456,0,0,0,40.691,10.211Zm7.133-1.664.07.945a2.971,2.971,0,0,1,2.43-1.1A2.255,2.255,0,0,1,52.566,9.68a2.9,2.9,0,0,1,2.539-1.289,2.521,2.521,0,0,1,2.047.8,3.681,3.681,0,0,1,.672,2.41V17H55.559V11.609a1.61,1.61,0,0,0-.281-1.051,1.246,1.246,0,0,0-.992-.332,1.409,1.409,0,0,0-1.406.969l.008,5.8H50.629V11.617a1.59,1.59,0,0,0-.289-1.062,1.259,1.259,0,0,0-.984-.328,1.463,1.463,0,0,0-1.391.8V17H45.707V8.547ZM64.457,17a2.507,2.507,0,0,1-.227-.758,2.732,2.732,0,0,1-2.133.914,3,3,0,0,1-2.059-.719,2.312,2.312,0,0,1-.816-1.812,2.389,2.389,0,0,1,1-2.062,4.915,4.915,0,0,1,2.879-.727h1.039v-.484a1.393,1.393,0,0,0-.3-.937,1.183,1.183,0,0,0-.949-.352,1.345,1.345,0,0,0-.895.273.929.929,0,0,0-.324.75H59.41a2.268,2.268,0,0,1,.453-1.359,3,3,0,0,1,1.281-.98A4.669,4.669,0,0,1,63,8.391a3.689,3.689,0,0,1,2.48.785,2.747,2.747,0,0,1,.918,2.207v3.664a4.041,4.041,0,0,0,.336,1.82V17ZM62.59,15.43a1.945,1.945,0,0,0,.922-.223,1.462,1.462,0,0,0,.625-.6V13.156h-.844q-1.7,0-1.8,1.172l-.008.133a.9.9,0,0,0,.3.7A1.153,1.153,0,0,0,62.59,15.43ZM80.363,7.523H76.879V17H74.535V7.523H71.1v-1.9h9.266Zm5.43,3.141a6.134,6.134,0,0,0-.812-.062,1.654,1.654,0,0,0-1.68.867V17H81.043V8.547h2.133l.063,1.008a2.092,2.092,0,0,1,1.883-1.164,2.366,2.366,0,0,1,.7.1ZM91.543,17a2.507,2.507,0,0,1-.227-.758,2.732,2.732,0,0,1-2.133.914,3,3,0,0,1-2.059-.719,2.312,2.312,0,0,1-.816-1.812,2.389,2.389,0,0,1,1-2.062,4.915,4.915,0,0,1,2.879-.727h1.039v-.484a1.393,1.393,0,0,0-.3-.937,1.183,1.183,0,0,0-.949-.352,1.345,1.345,0,0,0-.895.273.929.929,0,0,0-.324.75H86.5a2.268,2.268,0,0,1,.453-1.359,3,3,0,0,1,1.281-.98,4.669,4.669,0,0,1,1.859-.355,3.689,3.689,0,0,1,2.48.785,2.747,2.747,0,0,1,.918,2.207v3.664a4.041,4.041,0,0,0,.336,1.82V17Zm-1.867-1.57a1.945,1.945,0,0,0,.922-.223,1.462,1.462,0,0,0,.625-.6V13.156h-.844q-1.7,0-1.8,1.172l-.008.133a.9.9,0,0,0,.3.7A1.153,1.153,0,0,0,89.676,15.43Zm5.2-2.719a5.094,5.094,0,0,1,.887-3.148,2.877,2.877,0,0,1,2.426-1.172,2.589,2.589,0,0,1,2.039.922V5h2.266V17h-2.039l-.109-.9a2.657,2.657,0,0,1-2.172,1.055,2.869,2.869,0,0,1-2.395-1.176A5.258,5.258,0,0,1,94.871,12.711Zm2.258.168a3.337,3.337,0,0,0,.414,1.823,1.349,1.349,0,0,0,1.2.634,1.511,1.511,0,0,0,1.477-.884V11.111a1.489,1.489,0,0,0-1.461-.884Q97.129,10.227,97.129,12.879ZM106.621,17h-2.266V8.547h2.266Zm-2.4-10.641a1.112,1.112,0,0,1,.34-.836,1.465,1.465,0,0,1,1.848,0,1.105,1.105,0,0,1,.344.836,1.108,1.108,0,0,1-.348.844,1.448,1.448,0,0,1-1.836,0A1.108,1.108,0,0,1,104.223,6.359ZM112,15.336a1.481,1.481,0,0,0,1.016-.344,1.2,1.2,0,0,0,.406-.914h2.117a2.9,2.9,0,0,1-.469,1.574,3.093,3.093,0,0,1-1.262,1.109,3.949,3.949,0,0,1-1.77.395A3.67,3.67,0,0,1,109.176,16a4.56,4.56,0,0,1-1.047-3.184v-.148a4.508,4.508,0,0,1,1.039-3.117,3.627,3.627,0,0,1,2.852-1.164,3.555,3.555,0,0,1,2.543.9,3.2,3.2,0,0,1,.973,2.4h-2.117a1.551,1.551,0,0,0-.406-1.072,1.51,1.51,0,0,0-2.223.163,3.333,3.333,0,0,0-.4,1.866v.235a3.375,3.375,0,0,0,.4,1.878A1.377,1.377,0,0,0,112,15.336ZM119.207,17h-2.266V8.547h2.266Zm-2.4-10.641a1.112,1.112,0,0,1,.34-.836,1.465,1.465,0,0,1,1.848,0,1.105,1.105,0,0,1,.344.836,1.108,1.108,0,0,1-.348.844,1.448,1.448,0,0,1-1.836,0A1.108,1.108,0,0,1,116.809,6.359Zm3.906,6.336a5.013,5.013,0,0,1,.484-2.242,3.546,3.546,0,0,1,1.395-1.523,4.069,4.069,0,0,1,2.113-.539A3.849,3.849,0,0,1,127.5,9.438a4.2,4.2,0,0,1,1.207,2.844l.016.578a4.418,4.418,0,0,1-1.086,3.121,4.209,4.209,0,0,1-5.832,0,4.5,4.5,0,0,1-1.09-3.187Zm2.258.16a3.16,3.16,0,0,0,.453,1.843,1.628,1.628,0,0,0,2.578.008,3.457,3.457,0,0,0,.461-2.015A3.128,3.128,0,0,0,126,10.86a1.5,1.5,0,0,0-1.3-.649,1.474,1.474,0,0,0-1.281.646A3.516,3.516,0,0,0,122.973,12.856Zm9.219-4.309.07.977a2.951,2.951,0,0,1,2.43-1.133,2.453,2.453,0,0,1,2,.789,3.682,3.682,0,0,1,.672,2.359V17h-2.258V11.594a1.465,1.465,0,0,0-.312-1.043,1.4,1.4,0,0,0-1.039-.324,1.553,1.553,0,0,0-1.43.813V17h-2.258V8.547ZM143.973,17a2.507,2.507,0,0,1-.227-.758,2.732,2.732,0,0,1-2.133.914,3,3,0,0,1-2.059-.719,2.312,2.312,0,0,1-.816-1.812,2.389,2.389,0,0,1,1-2.062,4.915,4.915,0,0,1,2.879-.727h1.039v-.484a1.393,1.393,0,0,0-.3-.937,1.183,1.183,0,0,0-.949-.352,1.345,1.345,0,0,0-.895.273.929.929,0,0,0-.324.75h-2.258a2.268,2.268,0,0,1,.453-1.359,3,3,0,0,1,1.281-.98,4.669,4.669,0,0,1,1.859-.355,3.689,3.689,0,0,1,2.48.785,2.747,2.747,0,0,1,.918,2.207v3.664a4.041,4.041,0,0,0,.336,1.82V17Zm-1.867-1.57a1.945,1.945,0,0,0,.922-.223,1.462,1.462,0,0,0,.625-.6V13.156h-.844q-1.7,0-1.8,1.172l-.008.133a.9.9,0,0,0,.3.7A1.153,1.153,0,0,0,142.105,15.43Zm7.93,1.57H147.77V5h2.266Z" transform="translate(3052 -6481)" fill="#12263f"/>
    <path id="Trazado_880812" data-name="Trazado 880812" d="M32.694,15H30.644V10.734h-4V15H24.594V5.047h2.051V9.08h4V5.047h2.051Zm5.065.137a3.631,3.631,0,0,1-2.649-1,3.548,3.548,0,0,1-1.022-2.659v-.191A4.468,4.468,0,0,1,34.52,9.3a3.161,3.161,0,0,1,1.22-1.354,3.425,3.425,0,0,1,1.8-.475,3.07,3.07,0,0,1,2.389.957,3.889,3.889,0,0,1,.872,2.714v.807h-4.71a1.835,1.835,0,0,0,.578,1.162,1.746,1.746,0,0,0,1.22.438,2.132,2.132,0,0,0,1.784-.827l.971,1.087a2.966,2.966,0,0,1-1.2.981A3.947,3.947,0,0,1,37.76,15.137ZM37.534,9.06a1.234,1.234,0,0,0-.954.4,2.062,2.062,0,0,0-.468,1.14H38.86V10.44A1.471,1.471,0,0,0,38.5,9.42,1.274,1.274,0,0,0,37.534,9.06Zm8.545.4a5.367,5.367,0,0,0-.711-.055,1.447,1.447,0,0,0-1.47.759V15H41.923V7.6h1.866l.055.882a1.831,1.831,0,0,1,1.647-1.019,2.07,2.07,0,0,1,.615.089Zm5.106,0a5.367,5.367,0,0,0-.711-.055A1.447,1.447,0,0,0,49,10.16V15H47.029V7.6H48.9l.055.882A1.831,1.831,0,0,1,50.6,7.467a2.07,2.07,0,0,1,.615.089ZM56.217,15a2.194,2.194,0,0,1-.2-.663,2.39,2.39,0,0,1-1.866.8,2.626,2.626,0,0,1-1.8-.629,2.023,2.023,0,0,1-.714-1.586,2.09,2.09,0,0,1,.872-1.8,4.3,4.3,0,0,1,2.519-.636h.909v-.424a1.219,1.219,0,0,0-.263-.82,1.035,1.035,0,0,0-.831-.308,1.177,1.177,0,0,0-.783.239.813.813,0,0,0-.284.656H51.8a1.984,1.984,0,0,1,.4-1.189,2.621,2.621,0,0,1,1.121-.858,4.086,4.086,0,0,1,1.627-.311,3.228,3.228,0,0,1,2.17.687,2.4,2.4,0,0,1,.8,1.931v3.206a3.536,3.536,0,0,0,.294,1.593V15Zm-1.634-1.374a1.7,1.7,0,0,0,.807-.195,1.28,1.28,0,0,0,.547-.523V11.637H55.2q-1.483,0-1.579,1.025l-.007.116a.791.791,0,0,0,.26.608A1.009,1.009,0,0,0,54.583,13.626ZM61.289,7.6l.062.827a2.6,2.6,0,0,1,2.126-.964,1.973,1.973,0,0,1,1.962,1.128A2.54,2.54,0,0,1,67.66,7.467a2.206,2.206,0,0,1,1.791.7,3.221,3.221,0,0,1,.588,2.109V15H68.057V10.283a1.408,1.408,0,0,0-.246-.919,1.091,1.091,0,0,0-.868-.291,1.233,1.233,0,0,0-1.23.848L65.719,15H63.743V10.29a1.391,1.391,0,0,0-.253-.93,1.1,1.1,0,0,0-.861-.287,1.28,1.28,0,0,0-1.217.7V15H59.437V7.6ZM73.642,15H71.659V7.6h1.982Zm-2.1-9.311a.973.973,0,0,1,.3-.731,1.281,1.281,0,0,1,1.617,0,.967.967,0,0,1,.3.731.97.97,0,0,1-.3.738,1.267,1.267,0,0,1-1.606,0A.97.97,0,0,1,71.543,5.689Zm7.13,9.447a3.631,3.631,0,0,1-2.649-1A3.548,3.548,0,0,1,75,11.479v-.191A4.468,4.468,0,0,1,75.433,9.3a3.161,3.161,0,0,1,1.22-1.354,3.425,3.425,0,0,1,1.8-.475,3.07,3.07,0,0,1,2.389.957,3.889,3.889,0,0,1,.872,2.714v.807H77a1.835,1.835,0,0,0,.578,1.162,1.746,1.746,0,0,0,1.22.438,2.132,2.132,0,0,0,1.784-.827l.971,1.087a2.966,2.966,0,0,1-1.2.981A3.947,3.947,0,0,1,78.673,15.137ZM78.447,9.06a1.234,1.234,0,0,0-.954.4,2.062,2.062,0,0,0-.468,1.14h2.748V10.44a1.471,1.471,0,0,0-.355-1.02A1.274,1.274,0,0,0,78.447,9.06ZM84.654,7.6l.062.854a2.582,2.582,0,0,1,2.126-.991,2.146,2.146,0,0,1,1.75.69,3.221,3.221,0,0,1,.588,2.064V15H87.2V10.27a1.282,1.282,0,0,0-.273-.913,1.224,1.224,0,0,0-.909-.284,1.359,1.359,0,0,0-1.251.711V15H82.795V7.6Zm8.388-1.818V7.6h1.265V9.053H93.042v3.691a.881.881,0,0,0,.157.588.79.79,0,0,0,.6.178,3.15,3.15,0,0,0,.581-.048v1.5a4.067,4.067,0,0,1-1.2.178,1.886,1.886,0,0,1-2.119-2.1V9.053h-1.08V7.6h1.08V5.785ZM99.693,15a2.194,2.194,0,0,1-.2-.663,2.39,2.39,0,0,1-1.866.8,2.626,2.626,0,0,1-1.8-.629,2.023,2.023,0,0,1-.714-1.586,2.09,2.09,0,0,1,.872-1.8,4.3,4.3,0,0,1,2.519-.636h.909v-.424a1.219,1.219,0,0,0-.263-.82,1.035,1.035,0,0,0-.831-.308,1.177,1.177,0,0,0-.783.239.813.813,0,0,0-.284.656H95.277a1.985,1.985,0,0,1,.4-1.189,2.621,2.621,0,0,1,1.121-.858,4.086,4.086,0,0,1,1.627-.311,3.228,3.228,0,0,1,2.17.687,2.4,2.4,0,0,1,.8,1.931v3.206a3.536,3.536,0,0,0,.294,1.593V15ZM98.06,13.626a1.7,1.7,0,0,0,.807-.195,1.28,1.28,0,0,0,.547-.523V11.637h-.738q-1.483,0-1.579,1.025l-.007.116a.791.791,0,0,0,.26.608A1.009,1.009,0,0,0,98.06,13.626Zm8.859-.67a.637.637,0,0,0-.359-.571,4.077,4.077,0,0,0-1.152-.373q-2.639-.554-2.639-2.242a2.032,2.032,0,0,1,.817-1.644,3.3,3.3,0,0,1,2.136-.66,3.547,3.547,0,0,1,2.252.663,2.09,2.09,0,0,1,.844,1.723h-1.976a.956.956,0,0,0-.273-.7,1.157,1.157,0,0,0-.854-.277,1.182,1.182,0,0,0-.772.226.712.712,0,0,0-.273.574.609.609,0,0,0,.311.53,3.2,3.2,0,0,0,1.049.349,8.571,8.571,0,0,1,1.244.332,2.044,2.044,0,0,1,1.565,1.989,1.929,1.929,0,0,1-.868,1.637,3.745,3.745,0,0,1-2.242.625,3.912,3.912,0,0,1-1.651-.332,2.77,2.77,0,0,1-1.131-.909,2.113,2.113,0,0,1-.41-1.248h1.873a1.031,1.031,0,0,0,.39.807,1.546,1.546,0,0,0,.971.28,1.43,1.43,0,0,0,.858-.215A.67.67,0,0,0,106.919,12.956Zm6.371-1.709a4.457,4.457,0,0,1,.776-2.755,2.517,2.517,0,0,1,2.123-1.025,2.265,2.265,0,0,1,1.784.807V4.5h1.982V15h-1.784l-.1-.786a2.325,2.325,0,0,1-1.9.923,2.511,2.511,0,0,1-2.1-1.029A4.6,4.6,0,0,1,113.29,11.247Zm1.976.147a2.92,2.92,0,0,0,.362,1.6,1.18,1.18,0,0,0,1.053.555,1.322,1.322,0,0,0,1.292-.774V9.847a1.3,1.3,0,0,0-1.278-.774Q115.266,9.073,115.266,11.394Zm9.625,3.743a3.631,3.631,0,0,1-2.649-1,3.548,3.548,0,0,1-1.022-2.659v-.191A4.468,4.468,0,0,1,121.65,9.3a3.161,3.161,0,0,1,1.22-1.354,3.425,3.425,0,0,1,1.8-.475,3.07,3.07,0,0,1,2.389.957,3.889,3.889,0,0,1,.872,2.714v.807h-4.71a1.835,1.835,0,0,0,.578,1.162,1.746,1.746,0,0,0,1.22.438,2.132,2.132,0,0,0,1.784-.827l.971,1.087a2.966,2.966,0,0,1-1.2.981A3.947,3.947,0,0,1,124.891,15.137Zm-.226-6.077a1.234,1.234,0,0,0-.954.4,2.062,2.062,0,0,0-.468,1.14h2.748V10.44a1.471,1.471,0,0,0-.355-1.02A1.274,1.274,0,0,0,124.665,9.06ZM23.691,29.587,25.065,24.6H27.13l-2.5,7.4H22.748l-2.5-7.4h2.064ZM30.083,32H28.1V24.6h1.982Zm-2.1-9.311a.973.973,0,0,1,.3-.731,1.281,1.281,0,0,1,1.617,0,1.044,1.044,0,0,1,0,1.47,1.267,1.267,0,0,1-1.606,0A.97.97,0,0,1,27.984,22.689Zm7.882,3.767a5.367,5.367,0,0,0-.711-.055,1.447,1.447,0,0,0-1.47.759V32H31.71V24.6h1.866l.055.882a1.831,1.831,0,0,1,1.647-1.019,2.07,2.07,0,0,1,.615.089Zm3.657-3.671V24.6h1.265v1.449H39.523v3.691a.881.881,0,0,0,.157.588.79.79,0,0,0,.6.178,3.151,3.151,0,0,0,.581-.048v1.5a4.067,4.067,0,0,1-1.2.178,1.886,1.886,0,0,1-2.119-2.1V26.053h-1.08V24.6h1.08V22.785Zm6.795,8.463a2.477,2.477,0,0,1-2.023.889,2.337,2.337,0,0,1-1.815-.684,2.918,2.918,0,0,1-.639-2V24.6h1.976v4.784q0,1.157,1.053,1.157a1.426,1.426,0,0,0,1.381-.7V24.6h1.982V32H46.373Zm7.69.752a2.194,2.194,0,0,1-.2-.663,2.39,2.39,0,0,1-1.866.8,2.626,2.626,0,0,1-1.8-.629,2.023,2.023,0,0,1-.714-1.586,2.09,2.09,0,0,1,.872-1.8,4.3,4.3,0,0,1,2.519-.636h.909v-.424a1.219,1.219,0,0,0-.263-.82,1.035,1.035,0,0,0-.831-.308,1.177,1.177,0,0,0-.783.239.813.813,0,0,0-.284.656H49.593a1.984,1.984,0,0,1,.4-1.189,2.621,2.621,0,0,1,1.121-.858,4.086,4.086,0,0,1,1.627-.311,3.228,3.228,0,0,1,2.17.687,2.4,2.4,0,0,1,.8,1.931v3.206A3.536,3.536,0,0,0,56,31.884V32Zm-1.634-1.374a1.7,1.7,0,0,0,.807-.195,1.28,1.28,0,0,0,.547-.523V28.637H52.99q-1.483,0-1.579,1.025l-.007.116a.791.791,0,0,0,.26.608A1.009,1.009,0,0,0,52.375,30.626ZM59.313,32H57.331V21.5h1.982Zm3.712,0H61.043V24.6h1.982Zm-2.1-9.311a.973.973,0,0,1,.3-.731,1.281,1.281,0,0,1,1.617,0,1.044,1.044,0,0,1,0,1.47,1.267,1.267,0,0,1-1.606,0A.97.97,0,0,1,60.927,22.689Zm6,7.718h3.616V32H64.4V30.8l3.479-4.6H64.5V24.6h5.927v1.164ZM76.062,32a2.194,2.194,0,0,1-.2-.663,2.39,2.39,0,0,1-1.866.8,2.626,2.626,0,0,1-1.8-.629,2.023,2.023,0,0,1-.714-1.586,2.09,2.09,0,0,1,.872-1.8,4.3,4.3,0,0,1,2.519-.636h.909v-.424a1.219,1.219,0,0,0-.263-.82,1.035,1.035,0,0,0-.831-.308,1.177,1.177,0,0,0-.783.239.813.813,0,0,0-.284.656H71.646a1.985,1.985,0,0,1,.4-1.189,2.621,2.621,0,0,1,1.121-.858,4.086,4.086,0,0,1,1.627-.311,3.228,3.228,0,0,1,2.17.687,2.4,2.4,0,0,1,.8,1.931v3.206a3.536,3.536,0,0,0,.294,1.593V32Zm-1.634-1.374a1.7,1.7,0,0,0,.807-.195,1.28,1.28,0,0,0,.547-.523V28.637h-.738q-1.483,0-1.579,1.025l-.007.116a.791.791,0,0,0,.26.608A1.009,1.009,0,0,0,74.428,30.626Zm7.93-.082a1.3,1.3,0,0,0,.889-.3,1.054,1.054,0,0,0,.355-.8h1.853a2.534,2.534,0,0,1-.41,1.377,2.706,2.706,0,0,1-1.1.971,3.455,3.455,0,0,1-1.548.345,3.211,3.211,0,0,1-2.5-1.008,3.99,3.99,0,0,1-.916-2.786v-.13a3.944,3.944,0,0,1,.909-2.728,3.174,3.174,0,0,1,2.5-1.019,3.111,3.111,0,0,1,2.225.79,2.8,2.8,0,0,1,.851,2.1H83.6a1.358,1.358,0,0,0-.355-.938,1.321,1.321,0,0,0-1.945.142,2.916,2.916,0,0,0-.352,1.633V28.4a2.953,2.953,0,0,0,.349,1.643A1.2,1.2,0,0,0,82.357,30.544ZM88.667,32H86.685V24.6h1.982Zm-2.1-9.311a.973.973,0,0,1,.3-.731,1.281,1.281,0,0,1,1.617,0,1.044,1.044,0,0,1,0,1.47,1.267,1.267,0,0,1-1.606,0A.97.97,0,0,1,86.568,22.689Zm3.418,5.544a4.387,4.387,0,0,1,.424-1.962,3.1,3.1,0,0,1,1.22-1.333,3.56,3.56,0,0,1,1.849-.472,3.368,3.368,0,0,1,2.444.916,3.676,3.676,0,0,1,1.056,2.488l.014.506a3.866,3.866,0,0,1-.95,2.731,3.683,3.683,0,0,1-5.1,0,3.934,3.934,0,0,1-.954-2.789Zm1.976.14a2.765,2.765,0,0,0,.4,1.612,1.424,1.424,0,0,0,2.256.007,3.025,3.025,0,0,0,.4-1.763,2.737,2.737,0,0,0-.4-1.6,1.311,1.311,0,0,0-1.135-.568,1.29,1.29,0,0,0-1.121.565A3.076,3.076,0,0,0,91.962,28.374ZM93.869,21.5h2.153l-1.894,2.119H92.522Zm6.159,3.1.062.854a2.582,2.582,0,0,1,2.126-.991,2.146,2.146,0,0,1,1.75.69,3.221,3.221,0,0,1,.588,2.064V32h-1.976V27.27a1.282,1.282,0,0,0-.273-.913,1.224,1.224,0,0,0-.909-.284,1.359,1.359,0,0,0-1.251.711V32H98.169V24.6Zm12.585,5.94a1.3,1.3,0,0,0,.889-.3,1.054,1.054,0,0,0,.355-.8h1.853a2.534,2.534,0,0,1-.41,1.377,2.706,2.706,0,0,1-1.1.971,3.455,3.455,0,0,1-1.548.345,3.211,3.211,0,0,1-2.5-1.008,3.99,3.99,0,0,1-.916-2.786v-.13a3.944,3.944,0,0,1,.909-2.728,3.174,3.174,0,0,1,2.5-1.019,3.111,3.111,0,0,1,2.225.79,2.8,2.8,0,0,1,.851,2.1h-1.853a1.358,1.358,0,0,0-.355-.938,1.321,1.321,0,0,0-1.945.142,2.916,2.916,0,0,0-.352,1.633V28.4a2.953,2.953,0,0,0,.349,1.643A1.2,1.2,0,0,0,112.613,30.544Zm3.917-2.311a4.387,4.387,0,0,1,.424-1.962,3.1,3.1,0,0,1,1.22-1.333,3.56,3.56,0,0,1,1.849-.472,3.368,3.368,0,0,1,2.444.916,3.676,3.676,0,0,1,1.056,2.488l.014.506a3.866,3.866,0,0,1-.95,2.731,3.683,3.683,0,0,1-5.1,0,3.934,3.934,0,0,1-.954-2.789Zm1.976.14a2.765,2.765,0,0,0,.4,1.612,1.424,1.424,0,0,0,2.256.007,3.025,3.025,0,0,0,.4-1.763,2.737,2.737,0,0,0-.4-1.6,1.311,1.311,0,0,0-1.135-.568,1.29,1.29,0,0,0-1.121.565A3.076,3.076,0,0,0,118.506,28.374Zm8.066-3.77.062.854a2.582,2.582,0,0,1,2.126-.991,2.146,2.146,0,0,1,1.75.69,3.221,3.221,0,0,1,.588,2.064V32h-1.976V27.27a1.282,1.282,0,0,0-.273-.913,1.224,1.224,0,0,0-.909-.284,1.359,1.359,0,0,0-1.251.711V32h-1.976V24.6ZM44.961,49H42.911V44.734h-4V49H36.861V39.047h2.051V43.08h4V39.047h2.051Zm3.746,0H46.725V41.6h1.982Zm-2.1-9.311a.973.973,0,0,1,.3-.731,1.281,1.281,0,0,1,1.617,0,1.044,1.044,0,0,1,0,1.47,1.267,1.267,0,0,1-1.606,0A.97.97,0,0,1,46.609,39.689ZM56.993,45.37a4.436,4.436,0,0,1-.776,2.738,2.488,2.488,0,0,1-2.1,1.029,2.3,2.3,0,0,1-1.812-.779v3.486H50.334V41.6h1.832l.068.725a2.322,2.322,0,0,1,1.873-.861,2.5,2.5,0,0,1,2.126,1.012,4.556,4.556,0,0,1,.759,2.789Zm-1.976-.144a2.911,2.911,0,0,0-.366-1.593,1.191,1.191,0,0,0-1.063-.561,1.294,1.294,0,0,0-1.278.711v3.028a1.316,1.316,0,0,0,1.292.731Q55.017,47.544,55.017,45.227Zm6.6,3.91a3.631,3.631,0,0,1-2.649-1,3.548,3.548,0,0,1-1.022-2.659v-.191A4.468,4.468,0,0,1,58.38,43.3a3.161,3.161,0,0,1,1.22-1.354,3.425,3.425,0,0,1,1.8-.475,3.07,3.07,0,0,1,2.389.957,3.889,3.889,0,0,1,.872,2.714v.807h-4.71a1.835,1.835,0,0,0,.578,1.162,1.746,1.746,0,0,0,1.22.438,2.132,2.132,0,0,0,1.784-.827l.971,1.087a2.966,2.966,0,0,1-1.2.981A3.947,3.947,0,0,1,61.621,49.137ZM61.4,43.06a1.234,1.234,0,0,0-.954.4,2.062,2.062,0,0,0-.468,1.14h2.748V44.44a1.471,1.471,0,0,0-.355-1.02A1.274,1.274,0,0,0,61.4,43.06Zm8.545.4a5.367,5.367,0,0,0-.711-.055,1.447,1.447,0,0,0-1.47.759V49H65.784V41.6H67.65l.055.882a1.831,1.831,0,0,1,1.647-1.019,2.07,2.07,0,0,1,.615.089Zm3.842,3.131L75.156,41.6H77.22l-2.5,7.4H72.838l-2.5-7.4h2.064ZM80.173,49H78.191V41.6h1.982Zm-2.1-9.311a.973.973,0,0,1,.3-.731,1.281,1.281,0,0,1,1.617,0,1.044,1.044,0,0,1,0,1.47,1.267,1.267,0,0,1-1.606,0A.97.97,0,0,1,78.075,39.689Zm7.731,7.267a.637.637,0,0,0-.359-.571,4.077,4.077,0,0,0-1.152-.373q-2.639-.554-2.639-2.242a2.032,2.032,0,0,1,.817-1.644,3.3,3.3,0,0,1,2.136-.66,3.547,3.547,0,0,1,2.252.663,2.09,2.09,0,0,1,.844,1.723H85.731a.956.956,0,0,0-.273-.7,1.157,1.157,0,0,0-.854-.277,1.182,1.182,0,0,0-.772.226.712.712,0,0,0-.273.574.609.609,0,0,0,.311.53,3.2,3.2,0,0,0,1.049.349,8.571,8.571,0,0,1,1.244.332,2.044,2.044,0,0,1,1.565,1.989,1.929,1.929,0,0,1-.868,1.637,3.745,3.745,0,0,1-2.242.625,3.912,3.912,0,0,1-1.651-.332,2.77,2.77,0,0,1-1.131-.909,2.113,2.113,0,0,1-.41-1.248H83.3a1.031,1.031,0,0,0,.39.807,1.546,1.546,0,0,0,.971.28,1.43,1.43,0,0,0,.858-.215A.67.67,0,0,0,85.806,46.956Zm2.885-1.723a4.387,4.387,0,0,1,.424-1.962,3.1,3.1,0,0,1,1.22-1.333,3.56,3.56,0,0,1,1.849-.472,3.368,3.368,0,0,1,2.444.916,3.676,3.676,0,0,1,1.056,2.488l.014.506a3.866,3.866,0,0,1-.95,2.731,3.683,3.683,0,0,1-5.1,0,3.934,3.934,0,0,1-.954-2.789Zm1.976.14a2.765,2.765,0,0,0,.4,1.612,1.424,1.424,0,0,0,2.256.007,3.025,3.025,0,0,0,.4-1.763,2.737,2.737,0,0,0-.4-1.6,1.311,1.311,0,0,0-1.135-.568,1.29,1.29,0,0,0-1.121.565A3.076,3.076,0,0,0,90.667,45.374Zm10.4-1.918a5.367,5.367,0,0,0-.711-.055,1.447,1.447,0,0,0-1.47.759V49H96.915V41.6h1.866l.055.882a1.831,1.831,0,0,1,1.647-1.019,2.07,2.07,0,0,1,.615.089Zm4.354,5.681a3.631,3.631,0,0,1-2.649-1,3.548,3.548,0,0,1-1.022-2.659v-.191a4.468,4.468,0,0,1,.431-1.993,3.161,3.161,0,0,1,1.22-1.354,3.425,3.425,0,0,1,1.8-.475,3.07,3.07,0,0,1,2.389.957,3.889,3.889,0,0,1,.872,2.714v.807h-4.71a1.835,1.835,0,0,0,.578,1.162,1.746,1.746,0,0,0,1.22.438,2.132,2.132,0,0,0,1.784-.827l.971,1.087a2.966,2.966,0,0,1-1.2.981A3.947,3.947,0,0,1,105.425,49.137ZM105.2,43.06a1.234,1.234,0,0,0-.954.4,2.062,2.062,0,0,0-.468,1.14h2.748V44.44a1.471,1.471,0,0,0-.355-1.02A1.274,1.274,0,0,0,105.2,43.06Zm8.395,3.9a.637.637,0,0,0-.359-.571,4.077,4.077,0,0,0-1.152-.373q-2.639-.554-2.639-2.242a2.032,2.032,0,0,1,.817-1.644,3.3,3.3,0,0,1,2.136-.66,3.547,3.547,0,0,1,2.252.663,2.09,2.09,0,0,1,.844,1.723h-1.976a.956.956,0,0,0-.273-.7,1.157,1.157,0,0,0-.854-.277,1.182,1.182,0,0,0-.772.226.712.712,0,0,0-.273.574.609.609,0,0,0,.311.53,3.2,3.2,0,0,0,1.049.349,8.571,8.571,0,0,1,1.244.332,2.044,2.044,0,0,1,1.565,1.989,1.929,1.929,0,0,1-.868,1.637,3.745,3.745,0,0,1-2.242.625,3.912,3.912,0,0,1-1.651-.332,2.77,2.77,0,0,1-1.131-.909,2.113,2.113,0,0,1-.41-1.248h1.873a1.031,1.031,0,0,0,.39.807,1.546,1.546,0,0,0,.971.28,1.43,1.43,0,0,0,.858-.215A.67.67,0,0,0,113.594,46.956Z" transform="translate(3052 -6342)" fill="#12263f"/>
    <path id="Trazado_880813" data-name="Trazado 880813" d="M10,0H424a10,10,0,0,1,10,10V190a10,10,0,0,1-10,10H10A10,10,0,0,1,0,190V10A10,10,0,0,1,10,0Z" transform="translate(2911 -6266)" fill="#e3dfeb"/>
    <g id="Outline_Color-3" data-name="Outline Color" transform="translate(3027 -6252.081)">
      <g id="Color-3" data-name="Color" transform="translate(6.54 80.807)">
        <path id="Trazado_880782-3" data-name="Trazado 880782" d="M16.285,92.655H31.818a1.076,1.076,0,0,0,1.071-1.08V90.349a4.017,4.017,0,0,1,6.153-3.43l13.672,8.652a6.928,6.928,0,0,1,.026,11.669l-14.094,9.006a3.749,3.749,0,0,1-5.757-3.193V110.66h-16.6A4.3,4.3,0,0,1,12,106.34V96.975A4.3,4.3,0,0,1,16.285,92.655Z" transform="translate(-12 -86.292)" fill="#ffc107"/>
        <path id="Trazado_880783-3" data-name="Trazado 880783" d="M52.715,189.386a4.892,4.892,0,0,1,2.091,4.257,5.239,5.239,0,0,1-2.389,4.575c-3.377,2.295-13.771,8.694-13.771,8.694a3.749,3.749,0,0,1-5.757-3.193v-.959a1.076,1.076,0,0,0-1.071-1.08H16.285A4.3,4.3,0,0,1,12,197.36v2.8a4.3,4.3,0,0,0,4.285,4.32h16.6v2.393a3.749,3.749,0,0,0,5.757,3.193l14.094-9.006a6.928,6.928,0,0,0-.026-11.669Z" transform="translate(-12 -180.108)" fill="#ffa000"/>
      </g>
      <g id="Outline-3" data-name="Outline" transform="translate(6 80.265)">
        <path id="Trazado_880784-3" data-name="Trazado 880784" d="M47.544,89.629,33.871,80.977a4.474,4.474,0,0,0-4.61-.141,4.535,4.535,0,0,0-2.372,4.028V86.09a.536.536,0,0,1-.531.54H10.825A4.848,4.848,0,0,0,6,91.49v9.366a4.848,4.848,0,0,0,4.825,4.86H26.89v1.853a4.267,4.267,0,0,0,2.24,3.8,4.211,4.211,0,0,0,4.347-.148l14.094-9.006a7.468,7.468,0,0,0-.027-12.58ZM26.89,104.636H10.825a3.764,3.764,0,0,1-3.734-3.5,4.8,4.8,0,0,0,3.734,1.785H26.358a.537.537,0,0,1,.532.54Zm-.532-2.8H10.825A3.767,3.767,0,0,1,7.08,98.06V91.49a3.767,3.767,0,0,1,3.745-3.78H26.358a1.617,1.617,0,0,0,1.611-1.62V84.864a3.469,3.469,0,0,1,1.813-3.082,3.409,3.409,0,0,1,3.512.108c.159.1,13.647,8.631,13.795,8.732a4.512,4.512,0,0,1,1.717,3.727,4.714,4.714,0,0,1-2.152,4.122c-3.329,2.262-13.646,8.616-13.75,8.68l-.008,0a3.144,3.144,0,0,1-3.246.111,3.2,3.2,0,0,1-1.679-2.848v-.958A1.618,1.618,0,0,0,26.358,101.84ZM49.92,95.914a6.338,6.338,0,0,1-2.93,5.385L32.9,110.306a3.145,3.145,0,0,1-3.247.11,3.2,3.2,0,0,1-1.679-2.848v-.274a4.358,4.358,0,0,0,1.161.92,4.21,4.21,0,0,0,4.343-.146c.248-.152,10.462-6.445,13.788-8.7a5.715,5.715,0,0,0,2.6-4.326,6.509,6.509,0,0,1,.061.876Z" transform="translate(-6 -80.265)"/>
      </g>
    </g>
    <g id="Outline_Color-4" data-name="Outline Color" transform="translate(3172 -6252.081)">
      <g id="Color-4" data-name="Color" transform="translate(6.54 80.807)">
        <path id="Trazado_880782-4" data-name="Trazado 880782" d="M16.285,92.655H31.818a1.076,1.076,0,0,0,1.071-1.08V90.349a4.017,4.017,0,0,1,6.153-3.43l13.672,8.652a6.928,6.928,0,0,1,.026,11.669l-14.094,9.006a3.749,3.749,0,0,1-5.757-3.193V110.66h-16.6A4.3,4.3,0,0,1,12,106.34V96.975A4.3,4.3,0,0,1,16.285,92.655Z" transform="translate(-12 -86.292)" fill="#ffc107"/>
        <path id="Trazado_880783-4" data-name="Trazado 880783" d="M52.715,189.386a4.892,4.892,0,0,1,2.091,4.257,5.239,5.239,0,0,1-2.389,4.575c-3.377,2.295-13.771,8.694-13.771,8.694a3.749,3.749,0,0,1-5.757-3.193v-.959a1.076,1.076,0,0,0-1.071-1.08H16.285A4.3,4.3,0,0,1,12,197.36v2.8a4.3,4.3,0,0,0,4.285,4.32h16.6v2.393a3.749,3.749,0,0,0,5.757,3.193l14.094-9.006a6.928,6.928,0,0,0-.026-11.669Z" transform="translate(-12 -180.108)" fill="#ffa000"/>
      </g>
      <g id="Outline-4" data-name="Outline" transform="translate(6 80.265)">
        <path id="Trazado_880784-4" data-name="Trazado 880784" d="M47.544,89.629,33.871,80.977a4.474,4.474,0,0,0-4.61-.141,4.535,4.535,0,0,0-2.372,4.028V86.09a.536.536,0,0,1-.531.54H10.825A4.848,4.848,0,0,0,6,91.49v9.366a4.848,4.848,0,0,0,4.825,4.86H26.89v1.853a4.267,4.267,0,0,0,2.24,3.8,4.211,4.211,0,0,0,4.347-.148l14.094-9.006a7.468,7.468,0,0,0-.027-12.58ZM26.89,104.636H10.825a3.764,3.764,0,0,1-3.734-3.5,4.8,4.8,0,0,0,3.734,1.785H26.358a.537.537,0,0,1,.532.54Zm-.532-2.8H10.825A3.767,3.767,0,0,1,7.08,98.06V91.49a3.767,3.767,0,0,1,3.745-3.78H26.358a1.617,1.617,0,0,0,1.611-1.62V84.864a3.469,3.469,0,0,1,1.813-3.082,3.409,3.409,0,0,1,3.512.108c.159.1,13.647,8.631,13.795,8.732a4.512,4.512,0,0,1,1.717,3.727,4.714,4.714,0,0,1-2.152,4.122c-3.329,2.262-13.646,8.616-13.75,8.68l-.008,0a3.144,3.144,0,0,1-3.246.111,3.2,3.2,0,0,1-1.679-2.848v-.958A1.618,1.618,0,0,0,26.358,101.84ZM49.92,95.914a6.338,6.338,0,0,1-2.93,5.385L32.9,110.306a3.145,3.145,0,0,1-3.247.11,3.2,3.2,0,0,1-1.679-2.848v-.274a4.358,4.358,0,0,0,1.161.92,4.21,4.21,0,0,0,4.343-.146c.248-.152,10.462-6.445,13.788-8.7a5.715,5.715,0,0,0,2.6-4.326,6.509,6.509,0,0,1,.061.876Z" transform="translate(-6 -80.265)"/>
      </g>
    </g>
    <path id="Trazado_880814" data-name="Trazado 880814" d="M17.262,12.07h-4.5v3.047h5.281V17H10.418V5.625h7.609v1.9H12.762v2.711h4.5Zm6.586,2.594a.727.727,0,0,0-.41-.652,4.659,4.659,0,0,0-1.316-.426q-3.016-.633-3.016-2.562a2.323,2.323,0,0,1,.934-1.879,3.766,3.766,0,0,1,2.441-.754,4.053,4.053,0,0,1,2.574.758,2.388,2.388,0,0,1,.965,1.969H23.762a1.092,1.092,0,0,0-.312-.8A1.322,1.322,0,0,0,22.473,10a1.351,1.351,0,0,0-.883.258.814.814,0,0,0-.312.656.7.7,0,0,0,.355.605,3.657,3.657,0,0,0,1.2.4,9.8,9.8,0,0,1,1.422.379,2.336,2.336,0,0,1,1.789,2.273,2.2,2.2,0,0,1-.992,1.871,4.28,4.28,0,0,1-2.562.715,4.47,4.47,0,0,1-1.887-.379,3.166,3.166,0,0,1-1.293-1.039,2.414,2.414,0,0,1-.469-1.426H20.98a1.179,1.179,0,0,0,.445.922,1.766,1.766,0,0,0,1.109.32,1.635,1.635,0,0,0,.98-.246A.766.766,0,0,0,23.848,14.664Zm3.3-1.969a5.053,5.053,0,0,1,.887-3.148,2.9,2.9,0,0,1,2.434-1.156A2.6,2.6,0,0,1,32.629,9.43l.148-.883h1.984v11.7H32.5V16.273a2.6,2.6,0,0,1-2.047.883,2.878,2.878,0,0,1-2.406-1.172A5.3,5.3,0,0,1,27.145,12.7Zm2.258.16a3.315,3.315,0,0,0,.426,1.847,1.363,1.363,0,0,0,1.2.634,1.518,1.518,0,0,0,1.469-.829v-3.5a1.506,1.506,0,0,0-1.453-.8,1.38,1.38,0,0,0-1.211.634A3.661,3.661,0,0,0,29.4,12.856Zm12.2,3.285a2.831,2.831,0,0,1-2.312,1.016,2.67,2.67,0,0,1-2.074-.781,3.335,3.335,0,0,1-.73-2.289V8.547h2.258v5.467q0,1.322,1.2,1.322a1.63,1.63,0,0,0,1.578-.8V8.547h2.266V17H41.66Zm7.781,1.016a4.15,4.15,0,0,1-3.027-1.141,4.054,4.054,0,0,1-1.168-3.039v-.219a5.106,5.106,0,0,1,.492-2.277A3.612,3.612,0,0,1,47.07,8.934a3.914,3.914,0,0,1,2.059-.543,3.508,3.508,0,0,1,2.73,1.094,4.444,4.444,0,0,1,1,3.1v.922H47.473a2.1,2.1,0,0,0,.66,1.328,2,2,0,0,0,1.395.5,2.437,2.437,0,0,0,2.039-.945l1.109,1.242A3.389,3.389,0,0,1,51.3,16.754,4.511,4.511,0,0,1,49.379,17.156Zm-.258-6.945a1.411,1.411,0,0,0-1.09.455,2.357,2.357,0,0,0-.535,1.3h3.141v-.181a1.681,1.681,0,0,0-.406-1.165A1.456,1.456,0,0,0,49.121,10.211Zm7.133-1.664.07.945a2.971,2.971,0,0,1,2.43-1.1A2.255,2.255,0,0,1,61,9.68a2.9,2.9,0,0,1,2.539-1.289,2.521,2.521,0,0,1,2.047.8,3.681,3.681,0,0,1,.672,2.41V17H63.988V11.609a1.61,1.61,0,0,0-.281-1.051,1.246,1.246,0,0,0-.992-.332,1.409,1.409,0,0,0-1.406.969l.008,5.8H59.059V11.617a1.59,1.59,0,0,0-.289-1.062,1.259,1.259,0,0,0-.984-.328,1.463,1.463,0,0,0-1.391.8V17H54.137V8.547ZM72.887,17a2.507,2.507,0,0,1-.227-.758,2.732,2.732,0,0,1-2.133.914,3,3,0,0,1-2.059-.719,2.312,2.312,0,0,1-.816-1.812,2.389,2.389,0,0,1,1-2.062,4.915,4.915,0,0,1,2.879-.727h1.039v-.484a1.393,1.393,0,0,0-.3-.937,1.183,1.183,0,0,0-.949-.352,1.345,1.345,0,0,0-.895.273.929.929,0,0,0-.324.75H67.84a2.268,2.268,0,0,1,.453-1.359,3,3,0,0,1,1.281-.98,4.669,4.669,0,0,1,1.859-.355,3.689,3.689,0,0,1,2.48.785,2.747,2.747,0,0,1,.918,2.207v3.664a4.041,4.041,0,0,0,.336,1.82V17ZM71.02,15.43a1.945,1.945,0,0,0,.922-.223,1.462,1.462,0,0,0,.625-.6V13.156h-.844q-1.7,0-1.8,1.172l-.008.133a.9.9,0,0,0,.3.7A1.153,1.153,0,0,0,71.02,15.43Zm18.609-2.219A4.025,4.025,0,0,1,88.273,16.1a4.76,4.76,0,0,1-3.223,1.055,4.28,4.28,0,0,1-3.441-1.473,6.038,6.038,0,0,1-1.254-4.043v-.7a6.819,6.819,0,0,1,.578-2.891,4.332,4.332,0,0,1,1.652-1.918,5.164,5.164,0,0,1,5.668.387,4.326,4.326,0,0,1,1.391,2.961H87.3a2.376,2.376,0,0,0-.613-1.6,2.271,2.271,0,0,0-1.605-.5,1.991,1.991,0,0,0-1.754.84,4.707,4.707,0,0,0-.6,2.605V11.7a5.038,5.038,0,0,0,.559,2.7,1.954,1.954,0,0,0,1.762.852,2.314,2.314,0,0,0,1.621-.5,2.241,2.241,0,0,0,.613-1.535Zm1.039-.516a5.013,5.013,0,0,1,.484-2.242A3.546,3.546,0,0,1,92.547,8.93a4.069,4.069,0,0,1,2.113-.539,3.849,3.849,0,0,1,2.793,1.047,4.2,4.2,0,0,1,1.207,2.844l.016.578A4.418,4.418,0,0,1,97.59,15.98a4.209,4.209,0,0,1-5.832,0,4.5,4.5,0,0,1-1.09-3.187Zm2.258.16a3.16,3.16,0,0,0,.453,1.843,1.628,1.628,0,0,0,2.578.008,3.457,3.457,0,0,0,.461-2.015,3.128,3.128,0,0,0-.461-1.831,1.5,1.5,0,0,0-1.3-.649,1.474,1.474,0,0,0-1.281.646A3.516,3.516,0,0,0,92.926,12.856Zm9.219-4.309.07.977a2.951,2.951,0,0,1,2.43-1.133,2.453,2.453,0,0,1,2,.789,3.682,3.682,0,0,1,.672,2.359V17h-2.258V11.594a1.465,1.465,0,0,0-.312-1.043,1.4,1.4,0,0,0-1.039-.324,1.553,1.553,0,0,0-1.43.813V17H100.02V8.547Zm9.586-2.078V8.547h1.445V10.2H111.73v4.219a1.007,1.007,0,0,0,.18.672.9.9,0,0,0,.688.2,3.6,3.6,0,0,0,.664-.055v1.711a4.648,4.648,0,0,1-1.367.2,2.156,2.156,0,0,1-2.422-2.4V10.2h-1.234V8.547h1.234V6.469Zm6.594,10.688a4.15,4.15,0,0,1-3.027-1.141,4.054,4.054,0,0,1-1.168-3.039v-.219a5.106,5.106,0,0,1,.492-2.277,3.612,3.612,0,0,1,1.395-1.547,3.914,3.914,0,0,1,2.059-.543,3.508,3.508,0,0,1,2.73,1.094,4.444,4.444,0,0,1,1,3.1v.922h-5.383a2.1,2.1,0,0,0,.66,1.328,2,2,0,0,0,1.395.5,2.437,2.437,0,0,0,2.039-.945l1.109,1.242a3.389,3.389,0,0,1-1.375,1.121A4.511,4.511,0,0,1,118.324,17.156Zm-.258-6.945a1.411,1.411,0,0,0-1.09.455,2.357,2.357,0,0,0-.535,1.3h3.141v-.181a1.681,1.681,0,0,0-.406-1.165A1.456,1.456,0,0,0,118.066,10.211Zm7.094-1.664.07.977a2.951,2.951,0,0,1,2.43-1.133,2.453,2.453,0,0,1,2,.789,3.682,3.682,0,0,1,.672,2.359V17h-2.258V11.594a1.465,1.465,0,0,0-.312-1.043,1.4,1.4,0,0,0-1.039-.324,1.553,1.553,0,0,0-1.43.813V17h-2.258V8.547Zm10.773,8.609a4.15,4.15,0,0,1-3.027-1.141,4.054,4.054,0,0,1-1.168-3.039v-.219a5.106,5.106,0,0,1,.492-2.277,3.612,3.612,0,0,1,1.395-1.547,3.914,3.914,0,0,1,2.059-.543,3.508,3.508,0,0,1,2.73,1.094,4.444,4.444,0,0,1,1,3.1v.922h-5.383a2.1,2.1,0,0,0,.66,1.328,2,2,0,0,0,1.395.5,2.437,2.437,0,0,0,2.039-.945l1.109,1.242a3.389,3.389,0,0,1-1.375,1.121A4.511,4.511,0,0,1,135.934,17.156Zm-.258-6.945a1.411,1.411,0,0,0-1.09.455,2.357,2.357,0,0,0-.535,1.3h3.141v-.181a1.681,1.681,0,0,0-.406-1.165A1.456,1.456,0,0,0,135.676,10.211Zm4.664,2.5a5.094,5.094,0,0,1,.887-3.148,2.877,2.877,0,0,1,2.426-1.172,2.589,2.589,0,0,1,2.039.922V5h2.266V17h-2.039l-.109-.9a2.657,2.657,0,0,1-2.172,1.055,2.869,2.869,0,0,1-2.395-1.176A5.258,5.258,0,0,1,140.34,12.711Zm2.258.168a3.337,3.337,0,0,0,.414,1.823,1.349,1.349,0,0,0,1.2.634,1.511,1.511,0,0,0,1.477-.884V11.111a1.489,1.489,0,0,0-1.461-.884Q142.6,10.227,142.6,12.879Zm6.758-.184a5.013,5.013,0,0,1,.484-2.242,3.546,3.546,0,0,1,1.395-1.523,4.069,4.069,0,0,1,2.113-.539,3.849,3.849,0,0,1,2.793,1.047,4.2,4.2,0,0,1,1.207,2.844l.016.578a4.418,4.418,0,0,1-1.086,3.121,4.209,4.209,0,0,1-5.832,0,4.5,4.5,0,0,1-1.09-3.187Zm2.258.16a3.16,3.16,0,0,0,.453,1.843,1.628,1.628,0,0,0,2.578.008,3.457,3.457,0,0,0,.461-2.015,3.128,3.128,0,0,0-.461-1.831,1.5,1.5,0,0,0-1.3-.649,1.474,1.474,0,0,0-1.281.646A3.516,3.516,0,0,0,151.613,12.856ZM163.5,10.664a6.134,6.134,0,0,0-.812-.062,1.654,1.654,0,0,0-1.68.867V17h-2.258V8.547h2.133l.063,1.008a2.092,2.092,0,0,1,1.883-1.164,2.366,2.366,0,0,1,.7.1Zm4.977,6.492a4.15,4.15,0,0,1-3.027-1.141,4.054,4.054,0,0,1-1.168-3.039v-.219a5.106,5.106,0,0,1,.492-2.277,3.612,3.612,0,0,1,1.395-1.547,3.914,3.914,0,0,1,2.059-.543,3.508,3.508,0,0,1,2.73,1.094,4.444,4.444,0,0,1,1,3.1v.922h-5.383a2.1,2.1,0,0,0,.66,1.328,2,2,0,0,0,1.395.5,2.437,2.437,0,0,0,2.039-.945l1.109,1.242a3.389,3.389,0,0,1-1.375,1.121A4.511,4.511,0,0,1,168.48,17.156Zm-.258-6.945a1.411,1.411,0,0,0-1.09.455,2.357,2.357,0,0,0-.535,1.3h3.141v-.181a1.681,1.681,0,0,0-.406-1.165A1.456,1.456,0,0,0,168.223,10.211Zm9.594,4.453a.727.727,0,0,0-.41-.652,4.659,4.659,0,0,0-1.316-.426q-3.016-.633-3.016-2.562a2.323,2.323,0,0,1,.934-1.879,3.766,3.766,0,0,1,2.441-.754,4.053,4.053,0,0,1,2.574.758,2.388,2.388,0,0,1,.965,1.969H177.73a1.092,1.092,0,0,0-.312-.8,1.322,1.322,0,0,0-.977-.316,1.351,1.351,0,0,0-.883.258.814.814,0,0,0-.312.656.7.7,0,0,0,.355.605,3.657,3.657,0,0,0,1.2.4,9.8,9.8,0,0,1,1.422.379,2.336,2.336,0,0,1,1.789,2.273,2.205,2.205,0,0,1-.992,1.871,4.28,4.28,0,0,1-2.562.715,4.47,4.47,0,0,1-1.887-.379,3.166,3.166,0,0,1-1.293-1.039,2.414,2.414,0,0,1-.469-1.426h2.141a1.179,1.179,0,0,0,.445.922,1.766,1.766,0,0,0,1.109.32,1.635,1.635,0,0,0,.98-.246A.766.766,0,0,0,177.816,14.664Z" transform="translate(3033 -6243)" fill="#12263f"/>
    <path id="Trazado_880815" data-name="Trazado 880815" d="M-16.563,0h-2.051V-9.953h2.051Zm3.623-7.4.062.827a2.6,2.6,0,0,1,2.126-.964A1.973,1.973,0,0,1-8.791-6.405,2.54,2.54,0,0,1-6.569-7.533a2.206,2.206,0,0,1,1.791.7A3.221,3.221,0,0,1-4.19-4.724V0H-6.173V-4.717a1.408,1.408,0,0,0-.246-.919,1.091,1.091,0,0,0-.868-.291,1.233,1.233,0,0,0-1.23.848L-8.511,0h-1.976V-4.71a1.391,1.391,0,0,0-.253-.93,1.1,1.1,0,0,0-.861-.287,1.28,1.28,0,0,0-1.217.7V0h-1.976V-7.4ZM1.613,0a2.194,2.194,0,0,1-.2-.663,2.39,2.39,0,0,1-1.866.8,2.626,2.626,0,0,1-1.8-.629,2.023,2.023,0,0,1-.714-1.586,2.09,2.09,0,0,1,.872-1.8A4.3,4.3,0,0,1,.424-4.519h.909v-.424a1.219,1.219,0,0,0-.263-.82A1.035,1.035,0,0,0,.239-6.07a1.177,1.177,0,0,0-.783.239.813.813,0,0,0-.284.656H-2.8a1.984,1.984,0,0,1,.4-1.189,2.621,2.621,0,0,1,1.121-.858A4.086,4.086,0,0,1,.342-7.533a3.228,3.228,0,0,1,2.17.687,2.4,2.4,0,0,1,.8,1.931v3.206A3.536,3.536,0,0,0,3.609-.116V0ZM-.021-1.374a1.7,1.7,0,0,0,.807-.195,1.28,1.28,0,0,0,.547-.523V-3.363H.595q-1.483,0-1.579,1.025l-.007.116a.791.791,0,0,0,.26.608A1.009,1.009,0,0,0-.021-1.374ZM4.546-3.753a4.335,4.335,0,0,1,.81-2.741A2.625,2.625,0,0,1,7.54-7.533,2.3,2.3,0,0,1,9.434-6.7l.082-.7h1.791v7.15a3.161,3.161,0,0,1-.441,1.688A2.832,2.832,0,0,1,9.625,2.536a4.362,4.362,0,0,1-1.873.376,4.056,4.056,0,0,1-1.586-.325A2.815,2.815,0,0,1,5,1.75l.875-1.2a2.314,2.314,0,0,0,1.791.827A1.694,1.694,0,0,0,8.887.954,1.577,1.577,0,0,0,9.324-.239v-.4a2.285,2.285,0,0,1-1.8.772A2.618,2.618,0,0,1,5.37-.906a4.334,4.334,0,0,1-.824-2.765Zm1.976.147a2.7,2.7,0,0,0,.4,1.578,1.283,1.283,0,0,0,1.107.572,1.372,1.372,0,0,0,1.292-.678V-5.249a1.369,1.369,0,0,0-1.278-.678,1.291,1.291,0,0,0-1.118.582A3.042,3.042,0,0,0,6.521-3.606ZM16.229.137a3.631,3.631,0,0,1-2.649-1,3.548,3.548,0,0,1-1.022-2.659v-.191A4.468,4.468,0,0,1,12.988-5.7a3.161,3.161,0,0,1,1.22-1.354,3.425,3.425,0,0,1,1.8-.475,3.07,3.07,0,0,1,2.389.957,3.889,3.889,0,0,1,.872,2.714v.807h-4.71a1.835,1.835,0,0,0,.578,1.162,1.746,1.746,0,0,0,1.22.438,2.132,2.132,0,0,0,1.784-.827L19.113-1.2a2.966,2.966,0,0,1-1.2.981A3.947,3.947,0,0,1,16.229.137ZM16-5.94a1.234,1.234,0,0,0-.954.4,2.062,2.062,0,0,0-.468,1.14h2.748V-4.56a1.471,1.471,0,0,0-.355-1.02A1.274,1.274,0,0,0,16-5.94Z" transform="translate(2983 -6086)" fill="#12263f"/>
    <g id="Grupo_1104710" data-name="Grupo 1104710" transform="translate(2378 -11601)">
      <rect id="Rectángulo_404456-4" data-name="Rectángulo 404456" width="100" height="100" rx="10" transform="translate(555 5395)" fill="#f7eefe"/>
      <path id="Trazado_880808" data-name="Trazado 880808" d="M337.953,190.827c-1.962-1.315-7.116-1.876-10.862-.871-.2-3.715-2.128-6.846-5.648-9.578l-1.3-.87-.869,1.306a14.844,14.844,0,0,0-2.172,9.142,10.847,10.847,0,0,0,2.172,5.66c-4.876,2.816-9.372,2.177-29.281,2.177H259.252c-.089,4.476.633,13.083,6.132,20.09a24.767,24.767,0,0,0,2,2.244c4.471,4.457,11.226,7.725,21.327,7.734,15.411.014,28.613-8.278,36.645-28.325,2.642.042,9.619.471,13.034-6.1.083-.11.869-1.741.869-1.741l-1.3-.87Zm-58.641-4.092h-8.644v8.6h8.644Zm11.165,0h-8.643v8.6h8.643Zm11.167,0H293v8.6h8.643Zm11.167,0h-8.644v8.6h8.644Zm-44.667,0H259.5v8.6h8.643Zm11.167-10.867h-8.644v8.6h8.644Zm11.165,0h-8.643v8.6h8.643Zm11.167,0H293v8.6h8.643Zm0-10.868H293v8.6h8.643Z" transform="translate(305.755 5249)" fill="#1d63ed"/>
    </g>
    <g id="Grupo_1104711" data-name="Grupo 1104711" transform="translate(2523 -11601)">
      <rect id="Rectángulo_404456-5" data-name="Rectángulo 404456" width="100" height="100" rx="10" transform="translate(555 5395)" fill="#f7eefe"/>
      <path id="Trazado_880808-2" data-name="Trazado 880808" d="M337.953,190.827c-1.962-1.315-7.116-1.876-10.862-.871-.2-3.715-2.128-6.846-5.648-9.578l-1.3-.87-.869,1.306a14.844,14.844,0,0,0-2.172,9.142,10.847,10.847,0,0,0,2.172,5.66c-4.876,2.816-9.372,2.177-29.281,2.177H259.252c-.089,4.476.633,13.083,6.132,20.09a24.767,24.767,0,0,0,2,2.244c4.471,4.457,11.226,7.725,21.327,7.734,15.411.014,28.613-8.278,36.645-28.325,2.642.042,9.619.471,13.034-6.1.083-.11.869-1.741.869-1.741l-1.3-.87Zm-58.641-4.092h-8.644v8.6h8.644Zm11.165,0h-8.643v8.6h8.643Zm11.167,0H293v8.6h8.643Zm11.167,0h-8.644v8.6h8.644Zm-44.667,0H259.5v8.6h8.643Zm11.167-10.867h-8.644v8.6h8.644Zm11.165,0h-8.643v8.6h8.643Zm11.167,0H293v8.6h8.643Zm0-10.868H293v8.6h8.643Z" transform="translate(305.755 5249)" fill="#1d63ed"/>
    </g>
    <g id="Grupo_1104712" data-name="Grupo 1104712" transform="translate(2668 -11601)">
      <rect id="Rectángulo_404456-6" data-name="Rectángulo 404456" width="100" height="100" rx="10" transform="translate(555 5395)" fill="#f7eefe"/>
      <g id="Grupo_1104706" data-name="Grupo 1104706" transform="translate(563.093 5381.828)">
        <g id="Grupo_1104695" data-name="Grupo 1104695" transform="translate(9.094 33.094)">
          <path id="Trazado_880786" data-name="Trazado 880786" d="M48,224h56.877v30.626H48Z" transform="translate(-43.625 -198.843)" fill="#787680"/>
          <path id="Trazado_880787" data-name="Trazado 880787" d="M80,248h48.126v24.063H80Z" transform="translate(-71.25 -219.562)" fill="#3e3d42"/>
          <g id="Grupo_1104694" data-name="Grupo 1104694" transform="translate(13.125 32.813)">
            <path id="Trazado_880788" data-name="Trazado 880788" d="M240,280h4.375v15.313H240Z" transform="translate(-222.499 -280)" fill="#ff9811"/>
            <path id="Trazado_880789" data-name="Trazado 880789" d="M176,280h4.375v15.313H176Z" transform="translate(-167.25 -280)" fill="#ff9811"/>
            <path id="Trazado_880790" data-name="Trazado 880790" d="M112,280h4.375v15.313H112Z" transform="translate(-112 -280)" fill="#ff9811"/>
            <path id="Trazado_880791" data-name="Trazado 880791" d="M304,280h4.375v15.313H304Z" transform="translate(-277.749 -280)" fill="#ff9811"/>
            <path id="Trazado_880792" data-name="Trazado 880792" d="M368,280h4.375v15.313H368Z" transform="translate(-332.999 -280)" fill="#ff9811"/>
          </g>
          <path id="Trazado_880793" data-name="Trazado 880793" d="M207.656,57.5A7.665,7.665,0,0,1,200,49.844h4.375a3.281,3.281,0,1,0,3.281-3.281h-2.188V40h4.375v2.506A7.656,7.656,0,0,1,207.656,57.5Z" transform="translate(-174.843 -40)" fill="#e0e0e2"/>
          <path id="Trazado_880794" data-name="Trazado 880794" d="M16,224h4.375v35H16Z" transform="translate(-16 -198.843)" fill="#e0e0e2"/>
          <path id="Trazado_880795" data-name="Trazado 880795" d="M464,224h4.375v35H464Z" transform="translate(-402.748 -198.843)" fill="#e0e0e2"/>
          <path id="Trazado_880796" data-name="Trazado 880796" d="M48,448h56.877v4.375H48Z" transform="translate(-43.625 -392.217)" fill="#ff9811"/>
        </g>
        <g id="Grupo_1104696" data-name="Grupo 1104696" transform="translate(8 32)">
          <path id="Trazado_880797" data-name="Trazado 880797" d="M73.094,240A1.094,1.094,0,0,0,72,241.094v24.063a1.094,1.094,0,0,0,1.094,1.094H121.22a1.094,1.094,0,0,0,1.094-1.094V241.094A1.094,1.094,0,0,0,121.22,240Zm47.033,24.063H74.188V242.188h45.939Z" transform="translate(-63.25 -211.562)"/>
          <path id="Trazado_880798" data-name="Trazado 880798" d="M233.094,289.5h4.375a1.094,1.094,0,0,0,1.094-1.094V273.094A1.094,1.094,0,0,0,237.469,272h-4.375A1.094,1.094,0,0,0,232,273.094v15.313A1.094,1.094,0,0,0,233.094,289.5Zm1.094-15.313h2.188v13.125h-2.188Z" transform="translate(-201.374 -239.187)"/>
          <path id="Trazado_880799" data-name="Trazado 880799" d="M169.094,289.5h4.375a1.094,1.094,0,0,0,1.094-1.094V273.094A1.094,1.094,0,0,0,173.469,272h-4.375A1.094,1.094,0,0,0,168,273.094v15.313A1.094,1.094,0,0,0,169.094,289.5Zm1.094-15.313h2.188v13.125h-2.188Z" transform="translate(-146.124 -239.187)"/>
          <path id="Trazado_880800" data-name="Trazado 880800" d="M105.094,289.5h4.375a1.094,1.094,0,0,0,1.094-1.094V273.094A1.094,1.094,0,0,0,109.469,272h-4.375A1.094,1.094,0,0,0,104,273.094v15.313A1.094,1.094,0,0,0,105.094,289.5Zm1.094-15.313h2.188v13.125h-2.188Z" transform="translate(-90.875 -239.187)"/>
          <path id="Trazado_880801" data-name="Trazado 880801" d="M297.094,289.5h4.375a1.094,1.094,0,0,0,1.094-1.094V273.094A1.094,1.094,0,0,0,301.469,272h-4.375A1.094,1.094,0,0,0,296,273.094v15.313A1.094,1.094,0,0,0,297.094,289.5Zm1.094-15.313h2.188v13.125h-2.188Z" transform="translate(-256.624 -239.187)"/>
          <path id="Trazado_880802" data-name="Trazado 880802" d="M361.094,289.5h4.375a1.094,1.094,0,0,0,1.094-1.094V273.094A1.094,1.094,0,0,0,365.469,272h-4.375A1.094,1.094,0,0,0,360,273.094v15.313A1.094,1.094,0,0,0,361.094,289.5Zm1.094-15.313h2.188v13.125h-2.188Z" transform="translate(-311.874 -239.187)"/>
          <path id="Trazado_880803" data-name="Trazado 880803" d="M74.721,57.157H56.4l-11.291-6.08a8.748,8.748,0,0,0,.077-16.251V33.094A1.094,1.094,0,0,0,44.095,32H39.72a1.094,1.094,0,0,0-1.094,1.094v6.563A1.094,1.094,0,0,0,39.72,40.75h2.188a2.188,2.188,0,1,1-2.188,2.188,1.094,1.094,0,0,0-1.094-1.094H34.251a1.094,1.094,0,0,0-1.094,1.094,8.764,8.764,0,0,0,5.669,8.188L28.487,57.157H9.094A1.094,1.094,0,0,0,8,58.251v35a1.094,1.094,0,0,0,1.094,1.094H74.721a1.094,1.094,0,0,0,1.094-1.094v-35A1.094,1.094,0,0,0,74.721,57.157Zm-62.346,35H10.188V59.345h2.188ZM35.436,44.032H37.67a4.375,4.375,0,1,0,4.237-5.469H40.813V34.188H43V35.6a1.094,1.094,0,0,0,.781,1.047,6.563,6.563,0,1,1-8.346,7.384Zm6.493,7.816,9.859,5.309H32.827Zm27.323,40.31H14.563V89.97H69.252Zm0-4.375H14.563V59.345H69.252Zm4.375,4.375H71.439V59.345h2.188Z" transform="translate(-8 -32)"/>
        </g>
      </g>
    </g>
  </g>
</svg>
