<svg xmlns="http://www.w3.org/2000/svg" width="60" height="60" viewBox="0 0 60 60">
  <g id="lock-coding-share-protect-web_design" data-name="lock-coding-share-protect-web design" transform="translate(-2 -2)">
    <path id="Trazado_880255" data-name="Trazado 880255" d="M59,18H45a3.009,3.009,0,0,0-3-3V12a10,10,0,1,0-20,0v3a3.009,3.009,0,0,0-3,3H5a3.009,3.009,0,0,0-3,3V59a3.009,3.009,0,0,0,3,3H59a3.009,3.009,0,0,0,3-3V21a3.009,3.009,0,0,0-3-3ZM24,12a8,8,0,0,1,16,0v3H39V12a7,7,0,0,0-14,0v3H24Zm13,0v3H27V12a5,5,0,0,1,10,0ZM21,18a1,1,0,0,1,1-1H42a1,1,0,0,1,1,1V36a1,1,0,0,1-1,1H22a1,1,0,0,1-1-1ZM41,48a1,1,0,1,1-1-1A1,1,0,0,1,41,48Zm-8,7a1,1,0,1,1-1-1A1,1,0,0,1,33,55Zm-8-7a1,1,0,1,1-1-1A1,1,0,0,1,25,48ZM4,21a1,1,0,0,1,1-1H19v6H4ZM60,59a1,1,0,0,1-1,1H5a1,1,0,0,1-1-1V28H19v4H14a3.009,3.009,0,0,0-3,3V45.18a3,3,0,1,0,2,0V35a1,1,0,0,1,1-1h5v2a3.009,3.009,0,0,0,3,3h1v6.18a3,3,0,1,0,2,0V39h6V52.18a3,3,0,1,0,2,0V39h6v6.18a3,3,0,1,0,2,0V39h1a3.009,3.009,0,0,0,3-3V34h5a1,1,0,0,1,1,1V45.18a3,3,0,1,0,2,0V35a3.009,3.009,0,0,0-3-3H45V28H60ZM13,48a1,1,0,1,1-1-1A1,1,0,0,1,13,48Zm39-1a1,1,0,1,1-1,1A1,1,0,0,1,52,47Zm8-21H45V24H57a1,1,0,0,0,0-2H45V20H59a1,1,0,0,1,1,1Z" fill="#00ffdf"/>
    <path id="Trazado_880256" data-name="Trazado 880256" d="M8,22H7a1,1,0,0,0,0,2H8a1,1,0,0,0,0-2Z" fill="#00ffdf"/>
    <path id="Trazado_880257" data-name="Trazado 880257" d="M12,22H11a1,1,0,0,0,0,2h1a1,1,0,0,0,0-2Z" fill="#00ffdf"/>
    <path id="Trazado_880258" data-name="Trazado 880258" d="M16,22H15a1,1,0,0,0,0,2h1a1,1,0,0,0,0-2Z" fill="#00ffdf"/>
    <path id="Trazado_880259" data-name="Trazado 880259" d="M30.8,32.98A.948.948,0,0,0,31,33a1,1,0,0,0,.979-.8l2-10a1,1,0,0,0-1.96-.392l-2,10A1,1,0,0,0,30.8,32.98Z" fill="#00ffdf"/>
    <path id="Trazado_880260" data-name="Trazado 880260" d="M27.4,30.8a1,1,0,1,0,1.2-1.6L25.667,27,28.6,24.8a1,1,0,0,0-1.2-1.6l-4,3a1,1,0,0,0,0,1.6Z" fill="#00ffdf"/>
    <path id="Trazado_880261" data-name="Trazado 880261" d="M35,31a.994.994,0,0,0,.514-.143l5-3A1,1,0,0,0,40.6,26.2l-4-3a1,1,0,1,0-1.2,1.6l2.81,2.108-3.725,2.235A1,1,0,0,0,35,31Z" fill="#00ffdf"/>
  </g>
</svg>
